<svg width="155" height="69" viewBox="0 0 155 69" fill="none" xmlns="http://www.w3.org/2000/svg">
<path d="M37.7802 31.108C37.6422 31.108 37.5282 31.069 37.4382 30.991C37.3482 30.907 37.3032 30.796 37.3032 30.658V25.852C37.3032 25.78 37.3002 25.684 37.2942 25.564C37.2882 25.444 37.2762 25.318 37.2582 25.186C37.2402 25.054 37.2132 24.94 37.1772 24.844C37.2912 24.79 37.4562 24.742 37.6722 24.7C37.8882 24.658 38.1852 24.637 38.5632 24.637C39.4152 24.637 40.0512 24.769 40.4712 25.033C40.8972 25.291 41.1102 25.72 41.1102 26.32C41.1102 26.674 41.0262 26.983 40.8582 27.247C40.6962 27.505 40.4712 27.709 40.1832 27.859C39.8952 28.009 39.5622 28.096 39.1842 28.12L39.2562 27.985C39.5202 27.979 39.7332 28.018 39.8952 28.102C40.0632 28.186 40.1982 28.3 40.3002 28.444C40.4082 28.582 40.5042 28.738 40.5882 28.912L41.0202 29.938C41.0982 30.124 41.1702 30.256 41.2362 30.334C41.3022 30.412 41.3772 30.454 41.4612 30.46C41.4912 30.46 41.5302 30.454 41.5782 30.442C41.6262 30.424 41.6712 30.394 41.7132 30.352C41.7372 30.4 41.7522 30.445 41.7582 30.487C41.7642 30.523 41.7672 30.562 41.7672 30.604C41.7672 30.718 41.7342 30.814 41.6682 30.892C41.6022 30.964 41.5242 31.015 41.4342 31.045C41.3442 31.081 41.2632 31.099 41.1912 31.099C41.0172 31.099 40.8702 31.06 40.7502 30.982C40.6362 30.904 40.5372 30.793 40.4532 30.649C40.3692 30.499 40.2882 30.325 40.2102 30.127L39.8232 29.128C39.7632 28.978 39.6972 28.837 39.6252 28.705C39.5532 28.567 39.4482 28.456 39.3102 28.372C39.1722 28.288 38.9772 28.246 38.7252 28.246H38.0232L37.9422 27.886C38.0562 27.892 38.1792 27.898 38.3112 27.904C38.4432 27.904 38.5932 27.904 38.7612 27.904C39.0492 27.898 39.3012 27.832 39.5172 27.706C39.7332 27.58 39.9012 27.403 40.0212 27.175C40.1472 26.947 40.2102 26.686 40.2102 26.392C40.2102 25.93 40.0842 25.579 39.8322 25.339C39.5862 25.099 39.1812 24.979 38.6172 24.979C38.5032 24.979 38.4072 24.982 38.3292 24.988C38.2512 24.988 38.1852 24.991 38.1312 24.997V29.956C38.1312 30.022 38.1342 30.115 38.1402 30.235C38.1462 30.349 38.1582 30.469 38.1762 30.595C38.1942 30.715 38.2212 30.823 38.2572 30.919C38.2212 30.955 38.1612 30.994 38.0772 31.036C37.9992 31.084 37.9002 31.108 37.7802 31.108ZM45.9667 31.117C45.1807 31.117 44.5777 30.85 44.1577 30.316C43.7437 29.782 43.5367 28.969 43.5367 27.877C43.5367 26.785 43.7437 25.972 44.1577 25.438C44.5777 24.904 45.1807 24.637 45.9667 24.637C46.7527 24.637 47.3527 24.904 47.7667 25.438C48.1867 25.972 48.3967 26.785 48.3967 27.877C48.3967 28.969 48.1867 29.782 47.7667 30.316C47.3527 30.85 46.7527 31.117 45.9667 31.117ZM45.9667 30.766C46.4707 30.766 46.8487 30.538 47.1007 30.082C47.3587 29.62 47.4877 28.885 47.4877 27.877C47.4877 26.869 47.3587 26.137 47.1007 25.681C46.8487 25.219 46.4707 24.988 45.9667 24.988C45.4627 24.988 45.0817 25.219 44.8237 25.681C44.5717 26.137 44.4457 26.869 44.4457 27.877C44.4457 28.885 44.5717 29.62 44.8237 30.082C45.0817 30.538 45.4627 30.766 45.9667 30.766ZM52.4169 28.939C52.3269 28.939 52.2519 28.918 52.1919 28.876C52.1379 28.834 52.0899 28.78 52.0479 28.714C52.0059 28.648 51.9699 28.588 51.9399 28.534L50.3739 25.384C50.3379 25.318 50.2899 25.243 50.2299 25.159C50.1699 25.069 50.1039 24.988 50.0319 24.916C50.0799 24.868 50.1549 24.814 50.2569 24.754C50.3589 24.694 50.4819 24.664 50.6259 24.664C50.7819 24.664 50.8989 24.706 50.9769 24.79C51.0609 24.868 51.1329 24.973 51.1929 25.105L52.7409 28.444L52.3989 28.606L53.9289 25.321C53.9949 25.183 54.0279 25.072 54.0279 24.988C54.0279 24.94 54.0189 24.895 54.0009 24.853C53.9889 24.805 53.9709 24.766 53.9469 24.736C54.0069 24.712 54.0699 24.694 54.1359 24.682C54.2079 24.67 54.2979 24.664 54.4059 24.664C54.5439 24.664 54.6429 24.703 54.7029 24.781C54.7689 24.853 54.8019 24.94 54.8019 25.042C54.8019 25.114 54.7839 25.198 54.7479 25.294C54.7119 25.384 54.6639 25.474 54.6039 25.564L52.8309 28.813L52.4169 28.939ZM52.8669 28.453L52.8759 29.92C52.8759 30.094 52.8819 30.268 52.8939 30.442C52.9119 30.616 52.9479 30.775 53.0019 30.919C52.9659 30.955 52.9059 30.994 52.8219 31.036C52.7439 31.084 52.6479 31.108 52.5339 31.108C52.3959 31.108 52.2819 31.069 52.1919 30.991C52.1019 30.907 52.0569 30.796 52.0569 30.658V28.579L52.8669 28.453ZM57.4709 31C57.3329 31 57.2189 30.961 57.1289 30.883C57.0389 30.805 56.9939 30.694 56.9939 30.55V25.942C56.9939 25.762 56.9849 25.591 56.9669 25.429C56.9489 25.267 56.9159 25.114 56.8679 24.97C56.9639 24.88 57.0599 24.823 57.1559 24.799C57.2579 24.769 57.3989 24.754 57.5789 24.754H60.2789C60.3389 24.754 60.3779 24.787 60.3959 24.853C60.4199 24.913 60.4259 24.988 60.4139 25.078C60.4019 25.168 60.3749 25.252 60.3329 25.33C60.2969 25.402 60.2489 25.45 60.1889 25.474C59.8169 25.396 59.4329 25.333 59.0369 25.285C58.6409 25.231 58.2299 25.201 57.8039 25.195L57.8219 30.568C58.1039 30.562 58.3979 30.544 58.7039 30.514C59.0159 30.478 59.3159 30.439 59.6039 30.397C59.8919 30.355 60.1469 30.31 60.3689 30.262C60.4229 30.292 60.4619 30.349 60.4859 30.433C60.5159 30.511 60.5309 30.595 60.5309 30.685C60.5309 30.769 60.5129 30.844 60.4769 30.91C60.4469 30.97 60.3959 31 60.3239 31H57.4709ZM57.6599 27.967V27.49H59.9639C59.9879 27.574 59.9969 27.658 59.9909 27.742C59.9909 27.82 59.9819 27.895 59.9639 27.967H57.6599ZM64.5915 31.126C64.1235 31.126 63.7395 31.066 63.4395 30.946C63.1395 30.826 62.9175 30.667 62.7735 30.469C62.6295 30.265 62.5575 30.043 62.5575 29.803C62.5575 29.683 62.5785 29.578 62.6205 29.488C62.6685 29.398 62.7435 29.332 62.8455 29.29C62.9535 29.242 63.1005 29.233 63.2865 29.263C63.2745 29.323 63.2655 29.386 63.2595 29.452C63.2595 29.512 63.2625 29.581 63.2685 29.659C63.2865 29.869 63.3525 30.058 63.4665 30.226C63.5805 30.394 63.7395 30.526 63.9435 30.622C64.1475 30.718 64.3965 30.766 64.6905 30.766C65.0505 30.766 65.3475 30.679 65.5815 30.505C65.8155 30.331 65.9325 30.064 65.9325 29.704C65.9325 29.47 65.8785 29.269 65.7705 29.101C65.6685 28.933 65.5125 28.777 65.3025 28.633C65.0925 28.483 64.8375 28.324 64.5375 28.156C64.1835 27.958 63.8745 27.769 63.6105 27.589C63.3465 27.403 63.1425 27.196 62.9985 26.968C62.8545 26.74 62.7825 26.464 62.7825 26.14C62.7825 25.78 62.8695 25.492 63.0435 25.276C63.2235 25.054 63.4635 24.892 63.7635 24.79C64.0635 24.688 64.3875 24.637 64.7355 24.637C65.2755 24.637 65.7135 24.733 66.0495 24.925C66.3855 25.111 66.5535 25.381 66.5535 25.735C66.5535 25.855 66.5235 25.957 66.4635 26.041C66.4035 26.119 66.2955 26.167 66.1395 26.185C66.0555 26.203 65.9595 26.2 65.8515 26.176C65.8635 26.104 65.8665 26.035 65.8605 25.969C65.8545 25.897 65.8455 25.831 65.8335 25.771C65.8155 25.609 65.7555 25.471 65.6535 25.357C65.5515 25.237 65.4135 25.147 65.2395 25.087C65.0715 25.021 64.8735 24.988 64.6455 24.988C64.4775 24.988 64.3095 25.015 64.1415 25.069C63.9735 25.117 63.8325 25.207 63.7185 25.339C63.6105 25.465 63.5565 25.642 63.5565 25.87C63.5565 26.098 63.6105 26.296 63.7185 26.464C63.8325 26.632 63.9945 26.788 64.2045 26.932C64.4205 27.076 64.6815 27.235 64.9875 27.409C65.3055 27.577 65.5965 27.754 65.8605 27.94C66.1305 28.126 66.3435 28.342 66.4995 28.588C66.6615 28.828 66.7425 29.119 66.7425 29.461C66.7425 29.671 66.7035 29.875 66.6255 30.073C66.5475 30.271 66.4215 30.451 66.2475 30.613C66.0795 30.769 65.8575 30.895 65.5815 30.991C65.3115 31.081 64.9815 31.126 64.5915 31.126ZM72.3733 24.826C72.6373 24.868 72.9343 24.898 73.2643 24.916C73.6003 24.934 73.9453 24.94 74.2993 24.934C74.6533 24.928 74.9923 24.916 75.3163 24.898C75.6403 24.88 75.9193 24.856 76.1533 24.826V25.744C75.8953 25.768 75.6043 25.789 75.2803 25.807C74.9563 25.819 74.6203 25.825 74.2723 25.825C73.9303 25.825 73.5943 25.819 73.2643 25.807C72.9343 25.789 72.6403 25.768 72.3823 25.744L72.3733 24.826ZM72.8863 28.57C72.8503 28.726 72.8203 28.867 72.7963 28.993C72.7783 29.119 72.7693 29.245 72.7693 29.371C72.7693 29.473 72.7903 29.569 72.8323 29.659C72.8803 29.749 72.9553 29.827 73.0573 29.893C73.1653 29.959 73.3093 30.013 73.4893 30.055C73.6753 30.091 73.9033 30.109 74.1733 30.109C74.5813 30.109 74.9623 30.091 75.3163 30.055C75.6763 30.013 76.0423 29.95 76.4143 29.866L76.4323 30.829C76.1503 30.883 75.8203 30.928 75.4423 30.964C75.0703 30.994 74.6413 31.009 74.1553 31.009C73.3933 31.009 72.8293 30.886 72.4633 30.64C72.1033 30.388 71.9233 30.043 71.9233 29.605C71.9233 29.443 71.9353 29.275 71.9593 29.101C71.9833 28.921 72.0223 28.72 72.0763 28.498L72.8863 28.57ZM70.8073 24.178C70.7893 24.232 70.7653 24.304 70.7353 24.394C70.7113 24.478 70.6873 24.565 70.6633 24.655C70.6453 24.739 70.6303 24.808 70.6183 24.862C70.5883 25.012 70.5523 25.195 70.5103 25.411C70.4743 25.621 70.4353 25.852 70.3933 26.104C70.3573 26.35 70.3213 26.602 70.2853 26.86C70.2553 27.112 70.2283 27.358 70.2043 27.598C70.1863 27.838 70.1773 28.057 70.1773 28.255C70.1773 28.411 70.1803 28.57 70.1863 28.732C70.1983 28.888 70.2133 29.05 70.2313 29.218C70.2853 29.098 70.3393 28.972 70.3933 28.84C70.4473 28.702 70.5013 28.567 70.5553 28.435C70.6093 28.303 70.6603 28.183 70.7083 28.075L71.1583 28.435C71.0803 28.657 70.9963 28.903 70.9063 29.173C70.8163 29.443 70.7353 29.701 70.6633 29.947C70.5973 30.187 70.5493 30.382 70.5193 30.532C70.5073 30.592 70.4953 30.664 70.4833 30.748C70.4713 30.826 70.4683 30.892 70.4743 30.946C70.4743 30.988 70.4743 31.039 70.4743 31.099C70.4803 31.165 70.4863 31.225 70.4923 31.279L69.6733 31.333C69.5833 31.021 69.5053 30.61 69.4393 30.1C69.3733 29.59 69.3403 29.032 69.3403 28.426C69.3403 28.09 69.3553 27.751 69.3853 27.409C69.4153 27.061 69.4513 26.725 69.4933 26.401C69.5353 26.077 69.5773 25.78 69.6193 25.51C69.6673 25.24 69.7033 25.015 69.7273 24.835C69.7453 24.721 69.7603 24.598 69.7723 24.466C69.7903 24.334 69.8023 24.208 69.8083 24.088L70.8073 24.178ZM79.0603 26.194C79.2223 26.164 79.3933 26.125 79.5733 26.077C79.7593 26.029 79.9363 25.981 80.1043 25.933C80.2843 25.879 80.5213 25.804 80.8153 25.708C81.1153 25.606 81.4423 25.507 81.7963 25.411C82.1563 25.309 82.5223 25.225 82.8943 25.159C83.2663 25.093 83.6173 25.06 83.9473 25.06C84.4633 25.06 84.9283 25.156 85.3423 25.348C85.7623 25.54 86.0953 25.819 86.3413 26.185C86.5933 26.551 86.7193 26.998 86.7193 27.526C86.7193 27.952 86.6413 28.336 86.4853 28.678C86.3293 29.02 86.1043 29.326 85.8103 29.596C85.5163 29.866 85.1623 30.097 84.7483 30.289C84.3403 30.475 83.8783 30.625 83.3623 30.739C82.8523 30.847 82.3033 30.916 81.7153 30.946L81.3103 30.01C81.9103 29.992 82.4743 29.932 83.0023 29.83C83.5303 29.728 83.9983 29.578 84.4063 29.38C84.8143 29.182 85.1353 28.93 85.3693 28.624C85.6033 28.312 85.7203 27.943 85.7203 27.517C85.7203 27.211 85.6513 26.938 85.5133 26.698C85.3753 26.458 85.1683 26.266 84.8923 26.122C84.6223 25.978 84.2953 25.906 83.9113 25.906C83.6293 25.906 83.3203 25.942 82.9843 26.014C82.6543 26.08 82.3153 26.164 81.9673 26.266C81.6253 26.368 81.2923 26.479 80.9683 26.599C80.6503 26.719 80.3593 26.833 80.0953 26.941C79.8373 27.043 79.6273 27.13 79.4653 27.202L79.0603 26.194ZM90.7963 24.655C90.7783 24.739 90.7633 24.841 90.7513 24.961C90.7393 25.081 90.7273 25.201 90.7153 25.321C90.7093 25.441 90.7063 25.543 90.7063 25.627C90.7063 25.813 90.7063 26.02 90.7063 26.248C90.7123 26.476 90.7183 26.71 90.7243 26.95C90.7303 27.184 90.7453 27.418 90.7693 27.652C90.8173 28.126 90.8893 28.54 90.9853 28.894C91.0813 29.248 91.2043 29.524 91.3543 29.722C91.5043 29.92 91.6783 30.019 91.8763 30.019C91.9903 30.019 92.0983 29.965 92.2003 29.857C92.3023 29.749 92.3983 29.605 92.4883 29.425C92.5783 29.245 92.6593 29.05 92.7313 28.84C92.8093 28.624 92.8753 28.417 92.9293 28.219L93.6403 29.056C93.4483 29.566 93.2563 29.974 93.0643 30.28C92.8783 30.58 92.6863 30.796 92.4883 30.928C92.2903 31.06 92.0803 31.126 91.8583 31.126C91.5583 31.126 91.2703 31.024 90.9943 30.82C90.7243 30.61 90.4903 30.268 90.2923 29.794C90.0943 29.32 89.9533 28.687 89.8693 27.895C89.8393 27.631 89.8153 27.346 89.7973 27.04C89.7853 26.734 89.7763 26.443 89.7703 26.167C89.7703 25.891 89.7703 25.663 89.7703 25.483C89.7703 25.369 89.7643 25.231 89.7523 25.069C89.7463 24.901 89.7283 24.757 89.6983 24.637L90.7963 24.655ZM95.4043 24.88C95.5663 25.09 95.7223 25.336 95.8723 25.618C96.0283 25.894 96.1693 26.194 96.2953 26.518C96.4213 26.842 96.5323 27.172 96.6283 27.508C96.7303 27.844 96.8143 28.177 96.8803 28.507C96.9463 28.837 96.9913 29.149 97.0153 29.443L96.0883 29.803C96.0523 29.413 95.9923 29.005 95.9083 28.579C95.8243 28.153 95.7163 27.733 95.5843 27.319C95.4523 26.899 95.2963 26.506 95.1163 26.14C94.9423 25.768 94.7413 25.447 94.5133 25.177L95.4043 24.88ZM99.2538 24.925C99.4278 24.919 99.5898 24.913 99.7398 24.907C99.8898 24.895 100.007 24.886 100.091 24.88C100.253 24.868 100.469 24.85 100.739 24.826C101.015 24.796 101.327 24.766 101.675 24.736C102.023 24.7 102.395 24.667 102.791 24.637C103.187 24.601 103.592 24.565 104.006 24.529C104.33 24.499 104.642 24.475 104.942 24.457C105.242 24.433 105.524 24.415 105.788 24.403C106.052 24.385 106.286 24.373 106.49 24.367V25.276C106.328 25.276 106.139 25.279 105.923 25.285C105.713 25.291 105.503 25.303 105.293 25.321C105.083 25.339 104.9 25.369 104.744 25.411C104.444 25.501 104.171 25.642 103.925 25.834C103.679 26.026 103.469 26.248 103.295 26.5C103.121 26.752 102.986 27.019 102.89 27.301C102.794 27.577 102.746 27.85 102.746 28.12C102.746 28.444 102.803 28.729 102.917 28.975C103.031 29.221 103.187 29.431 103.385 29.605C103.583 29.773 103.808 29.914 104.06 30.028C104.318 30.136 104.591 30.217 104.879 30.271C105.173 30.325 105.47 30.358 105.77 30.37L105.437 31.324C105.083 31.312 104.732 31.261 104.384 31.171C104.042 31.081 103.715 30.958 103.403 30.802C103.097 30.64 102.824 30.442 102.584 30.208C102.35 29.968 102.164 29.692 102.026 29.38C101.894 29.068 101.828 28.711 101.828 28.309C101.828 27.859 101.903 27.442 102.053 27.058C102.209 26.674 102.404 26.341 102.638 26.059C102.878 25.771 103.118 25.546 103.358 25.384C103.178 25.408 102.956 25.435 102.692 25.465C102.428 25.489 102.143 25.519 101.837 25.555C101.537 25.585 101.234 25.621 100.928 25.663C100.622 25.699 100.331 25.738 100.055 25.78C99.7848 25.822 99.5508 25.867 99.3528 25.915L99.2538 24.925Z" fill="white"/>
<path d="M2.81563 17C2.54896 17 2.34096 16.9307 2.19163 16.792C2.0423 16.6427 1.96763 16.4507 1.96763 16.216L1.93563 7.848C1.93563 7.528 1.9303 7.18133 1.91963 6.808C1.90896 6.424 1.86096 6.104 1.77563 5.848C2.06363 5.816 2.4103 5.79467 2.81563 5.784C3.22096 5.76267 3.63163 5.752 4.04763 5.752C4.46363 5.74133 4.83163 5.736 5.15163 5.736C6.65563 5.736 7.8183 6.2 8.63963 7.128C9.46096 8.056 9.87163 9.46933 9.87163 11.368C9.87163 13.3413 9.46096 14.776 8.63963 15.672C7.82896 16.5573 6.68763 17 5.21563 17H2.81563ZM3.40763 16.376H5.15163C5.8343 16.376 6.40496 16.216 6.86363 15.896C7.3223 15.5653 7.66896 15.0427 7.90363 14.328C8.1383 13.6027 8.25563 12.6427 8.25563 11.448C8.25563 9.67733 7.9943 8.38667 7.47163 7.576C6.94896 6.76533 6.17563 6.36 5.15163 6.36H3.39163L3.40763 16.376ZM17.3213 17.208C16.1586 17.208 15.2306 16.8453 14.5373 16.12C13.8546 15.3947 13.5133 14.3387 13.5133 12.952C13.5133 11.6187 13.8439 10.568 14.5053 9.8C15.1666 9.02133 16.1266 8.632 17.3853 8.632C17.9613 8.632 18.4733 8.72267 18.9213 8.904C19.3693 9.07467 19.7213 9.336 19.9773 9.688C20.2439 10.0293 20.3773 10.456 20.3773 10.968C20.3773 11.768 20.0519 12.376 19.4013 12.792C18.7613 13.1973 17.8866 13.4 16.7773 13.4C16.3399 13.4 15.9079 13.384 15.4813 13.352C15.0653 13.3093 14.6333 13.24 14.1853 13.144L14.2173 12.6C14.4839 12.6427 14.7826 12.68 15.1133 12.712C15.4439 12.744 15.7853 12.7653 16.1373 12.776C16.4893 12.776 16.8253 12.7493 17.1453 12.696C17.4653 12.632 17.7533 12.5307 18.0093 12.392C18.2653 12.2427 18.4626 12.0347 18.6013 11.768C18.7506 11.5013 18.8253 11.1653 18.8253 10.76C18.8253 10.3547 18.7506 10.0453 18.6013 9.832C18.4519 9.61867 18.2599 9.46933 18.0253 9.384C17.8013 9.288 17.5666 9.24 17.3213 9.24C16.6386 9.24 16.0893 9.544 15.6733 10.152C15.2679 10.7493 15.0653 11.624 15.0653 12.776C15.0653 13.64 15.1773 14.328 15.4013 14.84C15.6253 15.3413 15.9346 15.704 16.3293 15.928C16.7346 16.1413 17.1879 16.248 17.6893 16.248C18.2653 16.248 18.7666 16.1307 19.1933 15.896C19.6199 15.6507 19.9133 15.3147 20.0733 14.888C20.1799 14.9307 20.2546 15.0107 20.2973 15.128C20.3399 15.2453 20.3079 15.4373 20.2013 15.704C19.9986 16.1947 19.6413 16.568 19.1293 16.824C18.6173 17.08 18.0146 17.208 17.3213 17.208ZM26.724 17.208C26.02 17.208 25.444 17.1227 24.996 16.952C24.5587 16.7813 24.2333 16.552 24.02 16.264C23.8173 15.9653 23.716 15.64 23.716 15.288C23.716 15.1067 23.7533 14.9413 23.828 14.792C23.9027 14.632 24.02 14.5093 24.18 14.424C24.3507 14.328 24.5853 14.3067 24.884 14.36C24.852 14.4773 24.8307 14.5947 24.82 14.712C24.82 14.8187 24.8307 14.936 24.852 15.064C24.884 15.512 25.0707 15.8747 25.412 16.152C25.764 16.4293 26.2493 16.568 26.868 16.568C27.412 16.568 27.86 16.472 28.212 16.28C28.5747 16.0773 28.756 15.7733 28.756 15.368C28.756 15.0373 28.6493 14.7707 28.436 14.568C28.2227 14.3547 27.9507 14.1733 27.62 14.024C27.2893 13.864 26.9427 13.6987 26.58 13.528C26.164 13.3253 25.7587 13.1173 25.364 12.904C24.98 12.68 24.66 12.3973 24.404 12.056C24.1587 11.7147 24.036 11.2773 24.036 10.744C24.036 10.232 24.1693 9.82133 24.436 9.512C24.7133 9.20267 25.076 8.97867 25.524 8.84C25.972 8.69067 26.452 8.616 26.964 8.616C27.8387 8.616 28.5267 8.75467 29.028 9.032C29.54 9.30933 29.796 9.704 29.796 10.216C29.796 10.408 29.7427 10.5787 29.636 10.728C29.54 10.8773 29.364 10.968 29.108 11C29.0227 11.0213 28.9427 11.032 28.868 11.032C28.7933 11.0213 28.7133 11.0053 28.628 10.984C28.6493 10.8667 28.6547 10.744 28.644 10.616C28.644 10.488 28.6227 10.3707 28.58 10.264C28.5373 9.93333 28.3667 9.68267 28.068 9.512C27.78 9.33067 27.396 9.24 26.916 9.24C26.6493 9.24 26.3933 9.27733 26.148 9.352C25.9133 9.416 25.7213 9.528 25.572 9.688C25.4333 9.83733 25.364 10.04 25.364 10.296C25.364 10.6373 25.4547 10.92 25.636 11.144C25.828 11.368 26.0787 11.5653 26.388 11.736C26.708 11.896 27.044 12.0613 27.396 12.232C27.716 12.3813 28.036 12.536 28.356 12.696C28.676 12.856 28.9693 13.0373 29.236 13.24C29.5027 13.432 29.716 13.6613 29.876 13.928C30.036 14.184 30.116 14.4987 30.116 14.872C30.116 15.2347 30.0093 15.5973 29.796 15.96C29.5933 16.3227 29.2467 16.6213 28.756 16.856C28.2653 17.0907 27.588 17.208 26.724 17.208ZM34.7996 7.432C34.5436 7.432 34.3196 7.34133 34.1276 7.16C33.9463 6.97867 33.8556 6.76 33.8556 6.504C33.8556 6.23733 33.9463 6.01333 34.1276 5.832C34.3196 5.65067 34.5436 5.56 34.7996 5.56C35.0556 5.56 35.2743 5.65067 35.4556 5.832C35.637 6.01333 35.7276 6.23733 35.7276 6.504C35.7276 6.76 35.637 6.97867 35.4556 7.16C35.2743 7.34133 35.0556 7.432 34.7996 7.432ZM35.5836 15.08C35.5836 15.3893 35.5996 15.6987 35.6316 16.008C35.6636 16.3173 35.7223 16.6 35.8076 16.856C35.7436 16.92 35.637 16.9893 35.4876 17.064C35.349 17.1493 35.1783 17.192 34.9756 17.192C34.741 17.192 34.5436 17.1227 34.3836 16.984C34.2343 16.8347 34.1596 16.6373 34.1596 16.392L34.1436 10.744C34.1436 10.424 34.1276 10.1093 34.0956 9.8C34.0743 9.49067 34.0156 9.208 33.9196 8.952C33.9943 8.888 34.101 8.81867 34.2396 8.744C34.3783 8.66933 34.549 8.632 34.7516 8.632C34.9863 8.632 35.1783 8.70133 35.3276 8.84C35.4876 8.968 35.5676 9.16 35.5676 9.416L35.5836 15.08ZM42.5388 20.696C42.0481 20.696 41.5894 20.6267 41.1628 20.488C40.7361 20.36 40.3948 20.152 40.1388 19.864C39.8828 19.5867 39.7548 19.2293 39.7548 18.792C39.7548 18.4293 39.8614 18.136 40.0748 17.912C40.2881 17.688 40.5441 17.576 40.8428 17.576C41.1734 17.576 41.4081 17.6667 41.5468 17.848C41.3974 17.9653 41.2854 18.1093 41.2108 18.28C41.1361 18.4507 41.0988 18.6373 41.0988 18.84C41.0988 19.1173 41.1574 19.352 41.2748 19.544C41.4028 19.736 41.5788 19.88 41.8028 19.976C42.0268 20.0827 42.2881 20.136 42.5868 20.136C43.4614 20.136 44.1014 19.8053 44.5068 19.144C44.9228 18.4827 45.1308 17.5493 45.1308 16.344C45.1308 16.1947 45.1308 16.0187 45.1308 15.816C45.1308 15.6133 45.1308 15.416 45.1308 15.224C44.9388 15.8 44.6188 16.248 44.1708 16.568C43.7228 16.888 43.1734 17.048 42.5228 17.048C41.9574 17.048 41.4614 16.9147 41.0348 16.648C40.6081 16.3707 40.2774 15.9387 40.0428 15.352C39.8081 14.7547 39.6908 13.9813 39.6908 13.032C39.6908 12.6053 39.7228 12.184 39.7868 11.768C39.8614 11.3413 39.9788 10.9413 40.1388 10.568C40.3094 10.1947 40.5334 9.864 40.8108 9.576C41.0881 9.27733 41.4401 9.048 41.8668 8.888C42.2934 8.71733 42.8054 8.632 43.4028 8.632C43.7761 8.632 44.1548 8.66933 44.5388 8.744C44.9334 8.808 45.3068 8.92 45.6588 9.08C46.0108 9.22933 46.3148 9.432 46.5708 9.688V16.28C46.5708 17.3787 46.3948 18.248 46.0428 18.888C45.6908 19.5387 45.2108 20.0027 44.6028 20.28C44.0054 20.5573 43.3174 20.696 42.5388 20.696ZM42.9228 16.296C43.3281 16.296 43.6694 16.2053 43.9468 16.024C44.2241 15.832 44.4481 15.5813 44.6188 15.272C44.7894 14.9627 44.9121 14.616 44.9868 14.232C45.0721 13.8373 45.1148 13.4373 45.1148 13.032L45.1308 9.8C44.9601 9.61867 44.7201 9.48 44.4108 9.384C44.1014 9.288 43.7654 9.24 43.4028 9.24C42.9441 9.24 42.5708 9.352 42.2828 9.576C41.9948 9.78933 41.7761 10.0827 41.6268 10.456C41.4774 10.8187 41.3708 11.2347 41.3068 11.704C41.2534 12.1733 41.2268 12.664 41.2268 13.176C41.2268 14.2853 41.3601 15.0853 41.6268 15.576C41.9041 16.056 42.3361 16.296 42.9228 16.296ZM52.0118 17.192C51.7664 17.192 51.5638 17.1173 51.4038 16.968C51.2438 16.808 51.1638 16.5947 51.1638 16.328V10.584C51.1531 10.2853 51.1158 10.0773 51.0518 9.96C50.9878 9.832 50.8758 9.768 50.7158 9.768C50.6624 9.768 50.5931 9.784 50.5078 9.816C50.4224 9.83733 50.3531 9.896 50.2998 9.992C50.1718 9.82133 50.1078 9.64533 50.1078 9.464C50.1078 9.21867 50.1931 9.02133 50.3638 8.872C50.5451 8.72267 50.8011 8.648 51.1318 8.648C51.5584 8.648 51.8838 8.792 52.1078 9.08C52.3424 9.368 52.4598 9.8 52.4598 10.376V11.368L52.2038 11.704C52.2784 11.064 52.4438 10.5147 52.6998 10.056C52.9558 9.59733 53.2918 9.24533 53.7078 9C54.1344 8.75467 54.6251 8.632 55.1798 8.632C56.0651 8.632 56.7158 8.91467 57.1318 9.48C57.5478 10.0347 57.7558 10.856 57.7558 11.944V15.08C57.7664 15.3467 57.7878 15.6453 57.8198 15.976C57.8518 16.3067 57.9104 16.6 57.9958 16.856C57.8998 16.952 57.7824 17.032 57.6438 17.096C57.5158 17.16 57.3558 17.192 57.1638 17.192C56.9184 17.192 56.7158 17.1227 56.5558 16.984C56.3958 16.8347 56.3158 16.6373 56.3158 16.392V12.136C56.3051 11.2613 56.1878 10.5947 55.9638 10.136C55.7504 9.67733 55.3451 9.448 54.7478 9.448C54.4918 9.448 54.2358 9.51733 53.9798 9.656C53.7238 9.784 53.4891 9.99733 53.2758 10.296C53.0731 10.584 52.9078 10.968 52.7798 11.448C52.6624 11.9173 52.6038 12.488 52.6038 13.16C52.6038 13.7787 52.6038 14.2907 52.6038 14.696C52.6038 15.1013 52.6091 15.4373 52.6198 15.704C52.6411 15.96 52.6678 16.1787 52.6998 16.36C52.7318 16.5307 52.7798 16.7013 52.8438 16.872C52.7798 16.9253 52.6731 16.9893 52.5238 17.064C52.3851 17.1493 52.2144 17.192 52.0118 17.192ZM65.5181 17.208C64.3555 17.208 63.4275 16.8453 62.7341 16.12C62.0515 15.3947 61.7101 14.3387 61.7101 12.952C61.7101 11.6187 62.0408 10.568 62.7021 9.8C63.3635 9.02133 64.3235 8.632 65.5821 8.632C66.1581 8.632 66.6701 8.72267 67.1181 8.904C67.5661 9.07467 67.9181 9.336 68.1741 9.688C68.4408 10.0293 68.5741 10.456 68.5741 10.968C68.5741 11.768 68.2488 12.376 67.5981 12.792C66.9581 13.1973 66.0835 13.4 64.9741 13.4C64.5368 13.4 64.1048 13.384 63.6781 13.352C63.2621 13.3093 62.8301 13.24 62.3821 13.144L62.4141 12.6C62.6808 12.6427 62.9795 12.68 63.3101 12.712C63.6408 12.744 63.9821 12.7653 64.3341 12.776C64.6861 12.776 65.0221 12.7493 65.3421 12.696C65.6621 12.632 65.9501 12.5307 66.2061 12.392C66.4621 12.2427 66.6595 12.0347 66.7981 11.768C66.9475 11.5013 67.0221 11.1653 67.0221 10.76C67.0221 10.3547 66.9475 10.0453 66.7981 9.832C66.6488 9.61867 66.4568 9.46933 66.2221 9.384C65.9981 9.288 65.7635 9.24 65.5181 9.24C64.8355 9.24 64.2861 9.544 63.8701 10.152C63.4648 10.7493 63.2621 11.624 63.2621 12.776C63.2621 13.64 63.3741 14.328 63.5981 14.84C63.8221 15.3413 64.1315 15.704 64.5261 15.928C64.9315 16.1413 65.3848 16.248 65.8861 16.248C66.4621 16.248 66.9635 16.1307 67.3901 15.896C67.8168 15.6507 68.1101 15.3147 68.2701 14.888C68.3768 14.9307 68.4515 15.0107 68.4941 15.128C68.5368 15.2453 68.5048 15.4373 68.3981 15.704C68.1955 16.1947 67.8381 16.568 67.3261 16.824C66.8141 17.08 66.2115 17.208 65.5181 17.208ZM73.6089 17.16C73.3955 17.16 73.2035 17.0853 73.0329 16.936C72.8622 16.776 72.7769 16.5627 72.7769 16.296V10.584C72.7769 10.2853 72.7395 10.0773 72.6649 9.96C72.6009 9.832 72.4889 9.768 72.3289 9.768C72.2755 9.768 72.2062 9.784 72.1209 9.816C72.0355 9.83733 71.9662 9.896 71.9129 9.992C71.7849 9.82133 71.7209 9.64533 71.7209 9.464C71.7209 9.21867 71.8062 9.02133 71.9769 8.872C72.1582 8.72267 72.4142 8.648 72.7449 8.648C73.1715 8.648 73.4969 8.80267 73.7209 9.112C73.9555 9.41067 74.0675 9.86933 74.0569 10.488V11.416L73.8649 11.384C73.9822 10.4773 74.2382 9.79467 74.6329 9.336C75.0382 8.86667 75.5502 8.632 76.1689 8.632C76.7235 8.632 77.1769 8.78133 77.5289 9.08C77.8809 9.368 78.0569 9.784 78.0569 10.328C78.0569 10.6907 77.9555 10.9893 77.7529 11.224C77.5502 11.4587 77.3155 11.5813 77.0489 11.592C76.7502 11.6027 76.5315 11.5333 76.3929 11.384C76.5315 11.192 76.6169 11.0213 76.6489 10.872C76.6809 10.712 76.6969 10.5413 76.6969 10.36C76.6969 10.0293 76.6222 9.78933 76.4729 9.64C76.3235 9.48 76.1049 9.4 75.8169 9.4C75.5395 9.4 75.2782 9.528 75.0329 9.784C74.7875 10.0293 74.5902 10.4293 74.4409 10.984C74.2915 11.528 74.2169 12.2533 74.2169 13.16C74.2169 13.768 74.2169 14.2747 74.2169 14.68C74.2275 15.0747 74.2382 15.4053 74.2489 15.672C74.2595 15.928 74.2809 16.1467 74.3129 16.328C74.3449 16.4987 74.3929 16.664 74.4569 16.824C74.3929 16.888 74.2862 16.9573 74.1369 17.032C73.9982 17.1067 73.8222 17.1493 73.6089 17.16ZM80.9654 12.424H85.8614V13.336H80.9654V12.424ZM100.812 15.08C100.812 15.3893 100.823 15.6987 100.844 16.008C100.876 16.3173 100.94 16.6 101.036 16.856C100.972 16.92 100.865 16.9893 100.716 17.064C100.567 17.1493 100.391 17.192 100.188 17.192C99.964 17.192 99.7773 17.1227 99.628 16.984C99.4787 16.8347 99.404 16.6373 99.404 16.392L99.372 7.496L99.612 7.08L96.028 15.352C95.7613 15.448 95.516 15.5013 95.292 15.512C95.0787 15.5227 94.8653 15.48 94.652 15.384C94.236 14.5627 93.804 13.6933 93.356 12.776C92.9187 11.8587 92.4867 10.9253 92.06 9.976C91.644 9.02667 91.2387 8.09867 90.844 7.192L91.036 7.4L91.052 15.08C91.052 15.3893 91.0627 15.72 91.084 16.072C91.116 16.424 91.18 16.728 91.276 16.984C91.212 17.048 91.132 17.096 91.036 17.128C90.94 17.1707 90.8333 17.192 90.716 17.192C90.5347 17.192 90.4013 17.1333 90.316 17.016C90.2307 16.8987 90.188 16.7387 90.188 16.536L90.172 7.816C90.172 7.4 90.1667 7.048 90.156 6.76C90.1453 6.46133 90.1187 6.18933 90.076 5.944C90.14 5.88 90.252 5.832 90.412 5.8C90.572 5.75733 90.7853 5.736 91.052 5.736C91.2333 5.736 91.3827 5.76267 91.5 5.816C91.628 5.85867 91.7347 5.928 91.82 6.024C92.46 7.432 93.1 8.84 93.74 10.248C94.3907 11.656 95.0307 13.0373 95.66 14.392H95.42C95.6973 13.7413 95.9907 13.0533 96.3 12.328C96.6093 11.6027 96.9187 10.8667 97.228 10.12C97.548 9.36267 97.8573 8.62667 98.156 7.912C98.4547 7.18667 98.732 6.50933 98.988 5.88C99.1587 5.816 99.324 5.77867 99.484 5.768C99.6547 5.74667 99.7933 5.736 99.9 5.736C100.124 5.736 100.321 5.77333 100.492 5.848C100.673 5.92267 100.775 6.01867 100.796 6.136L100.812 15.08ZM111.909 17.16C111.429 17.16 111.061 16.9947 110.805 16.664C110.56 16.3333 110.437 15.7947 110.437 15.048V13.768L110.757 13.896C110.587 14.5253 110.325 15.0907 109.973 15.592C109.621 16.0827 109.2 16.472 108.709 16.76C108.219 17.0373 107.68 17.176 107.093 17.176C106.475 17.176 105.984 17.0107 105.621 16.68C105.259 16.3387 105.077 15.8853 105.077 15.32C105.077 14.8613 105.195 14.4613 105.429 14.12C105.675 13.7787 106 13.4907 106.405 13.256C106.811 13.0213 107.259 12.8347 107.749 12.696C108.197 12.5787 108.651 12.4987 109.109 12.456C109.568 12.4133 109.984 12.3973 110.357 12.408V12.008C110.357 11.0907 110.213 10.4027 109.925 9.944C109.637 9.47467 109.147 9.24 108.453 9.24C108.208 9.24 107.963 9.27733 107.717 9.352C107.483 9.42667 107.285 9.56 107.125 9.752C106.976 9.93333 106.901 10.1893 106.901 10.52C106.901 10.7227 106.949 10.9413 107.045 11.176C107.152 11.4 107.328 11.56 107.573 11.656C107.467 11.784 107.339 11.8747 107.189 11.928C107.04 11.9707 106.885 11.992 106.725 11.992C106.331 11.992 106.016 11.848 105.781 11.56C105.557 11.2613 105.445 10.9307 105.445 10.568C105.445 9.93867 105.728 9.45867 106.293 9.128C106.859 8.79733 107.621 8.632 108.581 8.632C109.701 8.632 110.523 8.91467 111.045 9.48C111.579 10.0347 111.845 10.904 111.845 12.088V15.192C111.845 15.7573 112.032 16.04 112.405 16.04C112.48 16.04 112.565 16.0187 112.661 15.976C112.768 15.9227 112.853 15.8427 112.917 15.736C112.981 15.832 113.024 15.928 113.045 16.024C113.077 16.1093 113.093 16.1947 113.093 16.28C113.093 16.5253 112.981 16.7333 112.757 16.904C112.533 17.0747 112.251 17.16 111.909 17.16ZM107.781 16.184C108.069 16.1733 108.368 16.0827 108.677 15.912C108.987 15.7307 109.269 15.4907 109.525 15.192C109.781 14.8933 109.989 14.552 110.149 14.168C110.309 13.784 110.395 13.3787 110.405 12.952C110.16 12.9413 109.893 12.9467 109.605 12.968C109.328 12.9787 109.051 13.0107 108.773 13.064C108.507 13.1173 108.267 13.192 108.053 13.288C107.616 13.448 107.275 13.672 107.029 13.96C106.784 14.248 106.661 14.5947 106.661 15C106.661 15.3093 106.747 15.592 106.917 15.848C107.088 16.0933 107.376 16.2053 107.781 16.184ZM117.393 17.192C117.073 17.192 116.854 17.112 116.737 16.952C116.63 16.7813 116.577 16.5733 116.577 16.328V6.104C116.566 5.848 116.641 5.65067 116.801 5.512C116.961 5.37333 117.164 5.304 117.409 5.304C117.622 5.304 117.798 5.34667 117.937 5.432C118.076 5.50667 118.177 5.576 118.241 5.64C118.177 5.91733 118.134 6.17333 118.113 6.408C118.092 6.64267 118.07 6.86667 118.049 7.08C118.038 7.28267 118.033 7.496 118.033 7.72C118.033 7.93333 118.022 8.16267 118.001 8.408L117.985 11.4L117.889 11.272C118.038 10.7387 118.257 10.28 118.545 9.896C118.844 9.50133 119.206 9.192 119.633 8.968C120.06 8.744 120.545 8.632 121.089 8.632C121.761 8.632 122.262 8.80267 122.593 9.144C122.924 9.48533 123.089 9.92267 123.089 10.456C123.089 10.8933 122.977 11.288 122.753 11.64C122.54 11.9813 122.262 12.28 121.921 12.536C121.59 12.792 121.233 13.0107 120.849 13.192C120.988 13.2453 121.105 13.336 121.201 13.464C121.308 13.5813 121.414 13.72 121.521 13.88L122.369 15.384C122.486 15.5867 122.582 15.736 122.657 15.832C122.742 15.9173 122.86 15.96 123.009 15.96C123.062 15.96 123.132 15.9493 123.217 15.928C123.302 15.896 123.382 15.8427 123.457 15.768C123.532 15.8427 123.585 15.9227 123.617 16.008C123.649 16.0933 123.665 16.1787 123.665 16.264C123.665 16.5307 123.542 16.7547 123.297 16.936C123.062 17.1067 122.796 17.192 122.497 17.192C122.209 17.192 121.948 17.1067 121.713 16.936C121.478 16.7653 121.292 16.5147 121.153 16.184L119.857 13.528C119.526 13.6453 119.201 13.752 118.881 13.848C118.572 13.9333 118.284 14.008 118.017 14.072C118.017 14.5307 118.017 14.9147 118.017 15.224C118.017 15.5227 118.022 15.768 118.033 15.96C118.054 16.1413 118.081 16.3013 118.113 16.44C118.156 16.568 118.204 16.712 118.257 16.872C118.172 16.9467 118.06 17.016 117.921 17.08C117.793 17.1547 117.617 17.192 117.393 17.192ZM118.017 13.464C118.444 13.336 118.87 13.1867 119.297 13.016C119.734 12.8347 120.124 12.6267 120.465 12.392C120.817 12.1573 121.094 11.8907 121.297 11.592C121.51 11.2827 121.617 10.9307 121.617 10.536C121.617 10.1413 121.516 9.864 121.313 9.704C121.121 9.53333 120.876 9.448 120.577 9.448C120.076 9.448 119.628 9.624 119.233 9.976C118.849 10.3173 118.55 10.792 118.337 11.4C118.124 11.9973 118.017 12.6853 118.017 13.464ZM130.529 17.208C129.367 17.208 128.439 16.8453 127.745 16.12C127.063 15.3947 126.721 14.3387 126.721 12.952C126.721 11.6187 127.052 10.568 127.713 9.8C128.375 9.02133 129.335 8.632 130.593 8.632C131.169 8.632 131.681 8.72267 132.129 8.904C132.577 9.07467 132.929 9.336 133.185 9.688C133.452 10.0293 133.585 10.456 133.585 10.968C133.585 11.768 133.26 12.376 132.609 12.792C131.969 13.1973 131.095 13.4 129.985 13.4C129.548 13.4 129.116 13.384 128.689 13.352C128.273 13.3093 127.841 13.24 127.393 13.144L127.425 12.6C127.692 12.6427 127.991 12.68 128.321 12.712C128.652 12.744 128.993 12.7653 129.345 12.776C129.697 12.776 130.033 12.7493 130.353 12.696C130.673 12.632 130.961 12.5307 131.217 12.392C131.473 12.2427 131.671 12.0347 131.809 11.768C131.959 11.5013 132.033 11.1653 132.033 10.76C132.033 10.3547 131.959 10.0453 131.809 9.832C131.66 9.61867 131.468 9.46933 131.233 9.384C131.009 9.288 130.775 9.24 130.529 9.24C129.847 9.24 129.297 9.544 128.881 10.152C128.476 10.7493 128.273 11.624 128.273 12.776C128.273 13.64 128.385 14.328 128.609 14.84C128.833 15.3413 129.143 15.704 129.537 15.928C129.943 16.1413 130.396 16.248 130.897 16.248C131.473 16.248 131.975 16.1307 132.401 15.896C132.828 15.6507 133.121 15.3147 133.281 14.888C133.388 14.9307 133.463 15.0107 133.505 15.128C133.548 15.2453 133.516 15.4373 133.409 15.704C133.207 16.1947 132.849 16.568 132.337 16.824C131.825 17.08 131.223 17.208 130.529 17.208ZM138.62 17.16C138.407 17.16 138.215 17.0853 138.044 16.936C137.873 16.776 137.788 16.5627 137.788 16.296V10.584C137.788 10.2853 137.751 10.0773 137.676 9.96C137.612 9.832 137.5 9.768 137.34 9.768C137.287 9.768 137.217 9.784 137.132 9.816C137.047 9.83733 136.977 9.896 136.924 9.992C136.796 9.82133 136.732 9.64533 136.732 9.464C136.732 9.21867 136.817 9.02133 136.988 8.872C137.169 8.72267 137.425 8.648 137.756 8.648C138.183 8.648 138.508 8.80267 138.732 9.112C138.967 9.41067 139.079 9.86933 139.068 10.488V11.416L138.876 11.384C138.993 10.4773 139.249 9.79467 139.644 9.336C140.049 8.86667 140.561 8.632 141.18 8.632C141.735 8.632 142.188 8.78133 142.54 9.08C142.892 9.368 143.068 9.784 143.068 10.328C143.068 10.6907 142.967 10.9893 142.764 11.224C142.561 11.4587 142.327 11.5813 142.06 11.592C141.761 11.6027 141.543 11.5333 141.404 11.384C141.543 11.192 141.628 11.0213 141.66 10.872C141.692 10.712 141.708 10.5413 141.708 10.36C141.708 10.0293 141.633 9.78933 141.484 9.64C141.335 9.48 141.116 9.4 140.828 9.4C140.551 9.4 140.289 9.528 140.044 9.784C139.799 10.0293 139.601 10.4293 139.452 10.984C139.303 11.528 139.228 12.2533 139.228 13.16C139.228 13.768 139.228 14.2747 139.228 14.68C139.239 15.0747 139.249 15.4053 139.26 15.672C139.271 15.928 139.292 16.1467 139.324 16.328C139.356 16.4987 139.404 16.664 139.468 16.824C139.404 16.888 139.297 16.9573 139.148 17.032C139.009 17.1067 138.833 17.1493 138.62 17.16Z" fill="white"/>
<circle cx="150.5" cy="39.5" r="4.25" stroke="white" stroke-width="0.5"/>
<path d="M146.5 39.5H98L80.5 68.5" stroke="white" stroke-width="0.5"/>
</svg>
