<svg width="289" height="577" viewBox="0 0 289 577" fill="none" xmlns="http://www.w3.org/2000/svg">
<g opacity="0.57">
<path d="M54.0468 0C54.0468 1.28381 54.0468 2.56762 57.5772 28.7447C61.1077 54.9218 68.1687 105.953 71.9666 145.401C75.7646 184.849 76.0855 211.167 76.7323 228.737C77.6757 254.364 79.334 273.51 79.9759 295.981C81.1664 337.658 89.0403 351.725 93.096 357.565C96.9627 363.134 106.508 368.57 114.323 374.104C117.556 375.728 121.136 376.711 125.177 377.197C127.292 377.362 129.539 377.362 135.744 378.335" stroke="white" stroke-width="2" stroke-linecap="round"/>
<path d="M124.002 360.846C124.877 362.6 129.405 369.144 133.462 374.848C135.279 377.401 136.626 379.525 138.956 381.048C142.793 383.556 151.228 384.579 158.771 386.792C164.182 388.379 168.058 388.504 172.849 388.819C185.092 389.622 187.771 388.379 189.097 387.815C189.548 386.625 189.297 384.727 188.919 382.522C188.79 381.442 188.79 380.442 189.548 379.411" stroke="white" stroke-width="2" stroke-linecap="round"/>
<path d="M127.033 359.71C125.904 359.71 118.129 356.709 111.137 353.655C107.366 352.008 104.573 343.092 99.015 332.716C96.1962 327.455 96.7228 319.708 96.1564 314.887C95.9772 313.361 100.11 319.776 105.67 324.396C108.567 326.804 110.734 329.134 113.571 332.921C115.853 335.966 118.94 337.727 120.649 339.559C122.417 341.454 124.494 344.911 126.332 349.463C127.961 353.497 128.67 356.284 129.619 358.317C131.273 361.861 129.814 346.85 129.308 342.927C128.655 337.864 127.791 332.324 127.476 328.844C127.289 326.777 127.662 324.985 128.853 323.413C132.605 318.462 135.99 318.041 137.761 316.146C138.795 315.04 140.036 313.998 140.981 312.738C141.447 312.118 141.802 311.479 141.995 312.594C143.332 320.315 142.567 323.701 143.698 328.303C145.649 336.242 146.727 339.614 148.057 343.209C149.471 347.034 147.875 350.609 146.994 352.058C145.206 355 141.824 356.042 138.475 356.677C135.376 357.057 133.228 357.307 132.03 357.874C131.458 358.19 130.958 358.565 131.958 358.573" stroke="white" stroke-width="2" stroke-linecap="round"/>
<path d="M150.144 364.256C150.019 363.252 149.766 359.982 149.451 355.066C148.987 347.82 149.637 341.789 150.328 339.206C152.28 331.916 160.48 326.383 163.958 323.413C170.676 317.676 177.166 315.26 177.799 315.189C181.939 314.731 174.536 327.065 172.691 332.481C171.606 335.668 172.119 343.357 171.742 348.773C171.623 350.487 170.986 351.999 169.98 353.259C166.707 357.359 159.889 359.073 155.968 360.461C155.077 360.842 154.327 361.217 153.503 361.598C152.679 361.979 151.804 362.354 150.523 363.877" stroke="white" stroke-width="2" stroke-linecap="round"/>
<path d="M175.15 367.286C175.15 364.024 174.15 356.458 172.062 350.322C171.143 347.62 172.491 344.819 174.002 342.675C177.757 337.348 185.994 331.316 191.044 327.453C194.808 324.575 199.133 321.958 199.842 320.308C201.295 316.922 196.625 329.368 196.555 340.848C196.52 346.501 199.77 350.843 199.906 356.28C199.997 359.908 193.874 362.217 189.436 363.496C184.762 364.377 181.095 365.642 179.519 366.209C178.818 366.525 178.318 366.9 176.666 367.665" stroke="white" stroke-width="2" stroke-linecap="round"/>
<path d="M192.957 375.622C193.833 374.118 196.86 369.833 197.881 365.912C198.299 364.306 198.387 362.873 198.764 361.676C199.532 359.237 203.672 357.702 208.16 355.549C211.535 353.931 216.918 350.139 220.29 346.337C224.712 341.351 225.662 337.621 226.234 334.467C226.794 331.381 226.424 340.152 226.551 356.756C226.61 364.511 225.42 367.022 223.529 370.809C221.755 374.362 210.34 373.978 204.271 374.421C201.3 374.611 198.902 374.99 196.951 375.179C195.875 375.244 194.625 375.244 192.2 376.001" stroke="white" stroke-width="2" stroke-linecap="round"/>
<path d="M190.684 378.654C192.188 378.904 197.224 380.412 202.727 383.126C206.442 384.959 209.234 387.739 212.898 390.514C215.878 392.772 220.093 392.543 222.942 392.609C226.263 392.687 230.444 390.277 234.683 388.512C238.125 387.079 238.794 380.821 239.557 377.403C240.388 373.683 240.063 371.209 239.753 370.574C238.24 367.484 233.391 372.591 230.476 373.031C229.216 373.47 226.696 373.728 223.542 373.791C222.264 373.853 221.638 373.978 220.237 374.107" stroke="white" stroke-width="2" stroke-linecap="round"/>
<path d="M112.257 327.505C110.631 323.622 107.081 316.025 106.073 312.994C104.681 308.807 103.293 305.166 102.347 302.009C101.531 299.283 101.269 289.697 101.769 275.824C102.315 260.688 105.562 258.303 106.001 257.669C108.319 254.323 109.847 268.628 112.939 277.522C115.017 283.501 117.046 287.571 118.815 292.436C121.873 300.845 123.994 304.871 125.449 311.505C126.275 315.752 126.525 318.526 126.969 322.059C127.033 323.197 127.033 324.573 127.412 326.747" stroke="white" stroke-width="2" stroke-linecap="round"/>
<path d="M145.598 324.473C145.848 322.083 146.606 318.305 146.797 304.698C146.846 301.244 148.614 296.353 151.637 288.599C155.721 278.127 160.609 273.984 164.905 268.356C167.919 264.408 170.217 259.958 173.37 254.213C174.06 252.954 174.635 252.373 174.893 252.551C178.053 254.736 173.135 263.436 172.752 269.894C172.676 271.173 172.377 272.044 172.248 277.997C172.119 283.949 172.119 294.951 171.994 301.119C171.111 310.194 169.854 312.971 168.651 315.685C168.334 316.384 167.959 317.01 166.815 317.654" stroke="white" stroke-width="2" stroke-linecap="round"/>
<path d="M177.424 320.306C180.197 317.407 182.213 314.888 183.671 305.759C184.843 298.428 186.994 288.306 190.544 280.796C195.196 270.957 205.695 267.399 211.312 263.048C212.953 261.777 215.046 261.209 217.065 260.384C217.781 260.093 218.085 260.936 217.963 261.758C217.4 265.577 214.569 271.385 213.356 275.903C212.446 279.295 211.272 283.79 210.956 288.082C210.532 293.84 208.007 300.301 204.964 307.341C203.539 310.638 201.687 313.971 199.406 317.515C198.398 318.904 197.383 320.048 196.5 321.118C196.117 321.689 195.867 322.314 194.852 322.958" stroke="white" stroke-width="2" stroke-linecap="round"/>
<path d="M200.156 335.84C200.66 334.836 201.914 330.816 203.058 325.254C204.36 318.926 203.816 315.525 205.013 312.298C205.637 310.619 206.84 307.572 210.105 302.414C214.919 294.81 221.854 289.511 225.829 286.23C229.434 283.253 232.346 281.418 235.632 279.205C236.366 278.711 237.021 278.508 237.405 278.692C240.296 280.073 235.899 286.7 234.954 289.854C233.256 295.521 233.376 300.195 232.427 304.317C231.687 307.532 230.974 310.819 230.468 314.608C229.947 318.513 229.837 321.556 229.394 324.335C228.579 329.005 226.931 332.676 226.617 333.936C226.427 334.571 226.177 335.196 225.541 336.598" stroke="white" stroke-width="2" stroke-linecap="round"/>
<path d="M230.087 352.511C232.224 352.008 236.256 351.504 240.114 350.558C243.166 349.811 245.985 347.722 251.096 342.807C254.231 339.792 257.852 333.613 260.013 329.661C261.563 326.828 264.671 320.36 267.083 315.332C269.833 309.599 273.772 306.175 276.68 304.144C279.668 302.057 274.674 312.335 273.348 315.62C271.015 321.398 272.272 328.627 272.08 331.914C271.642 339.442 270.514 353.118 267.861 357.736C264.831 363.014 256.283 365.242 250.878 367.471C245.129 369.682 241.715 370.948 240.076 371.452C239.313 371.705 238.688 371.955 238.423 371.455" stroke="white" stroke-width="2" stroke-linecap="round"/>
<path d="M138.778 311.971C138.532 310.716 135.762 307.689 132.915 305.537C130.595 303.783 127.935 300.619 124.205 297.208C120.706 294.008 119.084 289.632 117.944 286.285C116.235 281.271 117.682 276.25 119.7 271.575C121.427 267.572 123.865 264.626 125.699 262.218C126.115 261.672 127.018 261.709 127.967 262.895C132.968 269.144 133.595 272.681 135.484 275.333C137.441 278.081 139.407 280.137 139.973 281.837C140.665 283.911 141.051 293.072 141.301 305.509C141.551 309.944 142.052 310.569 142.372 311.203C142.692 311.838 142.817 312.463 142.946 311.971" stroke="white" stroke-width="2" stroke-linecap="round"/>
<path d="M141.051 282.419C141.426 278.774 142.688 272.97 144.704 267.791C147.074 261.7 149.762 260.702 150.705 259.569C151.249 258.916 152.024 258.186 152.723 259.3C154.941 267.131 155.699 270.151 156.456 273.25C156.585 274.198 156.585 275.448 156.585 276.736" stroke="white" stroke-width="2" stroke-linecap="round"/>
<path d="M174.393 275.599C176.143 275.849 177.92 275.728 179.621 274.912C183.264 273.163 183.478 269.295 186.001 267.334C186.615 266.857 187.138 266.514 187.708 266.258C188.278 266.002 188.904 265.877 189.538 266.438C190.798 268.249 191.567 270.287 191.757 272.799C191.821 274.561 191.821 277.312 191.821 279.767" stroke="white" stroke-width="2" stroke-linecap="round"/>
<path d="M214.553 280.524C218.077 278.891 222.116 276.364 224.649 276.036C225.533 277.97 225.92 280.137 225.982 281.649C226.045 282.411 226.17 283.161 226.299 284.313" stroke="white" stroke-width="2" stroke-linecap="round"/>
<path d="M235.392 301.363C236.521 300.234 239.794 297.71 243.964 295.183C248.273 292.571 252.941 291.012 253.762 290.629C256.835 289.195 252.32 298.824 251.748 303.299C250.937 309.641 251.305 321.466 250.488 330.267C250.134 334.08 247.523 336.841 246.32 339.366C245.243 342.528 244.492 345.047 243.352 347.576C243.098 348.211 242.848 348.836 242.212 348.722" stroke="white" stroke-width="2" stroke-linecap="round"/>
<path d="M253.578 305.531C255.207 305.156 258.996 303.644 261.587 302.064C263.062 301.165 264.308 300.105 265.19 299.66C265.823 300.34 266.206 301.859 266.395 305.373C266.46 308.012 266.46 312.388 266.081 316.139" stroke="white" stroke-width="2" stroke-linecap="round"/>
<path d="M109.662 262.625C110.666 261.845 112.45 258.95 115.252 254.856C116.838 252.539 116.045 248.536 116.769 244.165C117.147 241.88 118.057 240.346 118.782 239.452C121.078 236.625 130.879 233.755 137.081 232.671C138.961 232.343 144.884 232.28 152.775 232.056C161.241 231.719 170.237 232.162 170.965 233.111C171.248 233.617 171.359 234.171 171.473 235.75" stroke="white" stroke-width="2" stroke-linecap="round"/>
<path d="M168.45 258.93C168.564 258.376 167.227 256.142 165.546 253.399C163.317 249.763 160.401 247.858 158.1 246.17C156.182 244.763 151.022 244.149 147.184 244.594C144.142 244.947 140.816 247.609 136.216 250.409C133.631 252.655 132.062 254.331 131.39 256.726C131.162 258.345 131.162 260.784 130.826 263.633" stroke="white" stroke-width="2" stroke-linecap="round"/>
<path d="M156.356 243.813C157.358 243.703 161.147 242.369 164.074 240.405C166.545 238.749 171.541 235.435 176.44 233.85C181.729 232.138 184.004 235.187 186.412 236.584C190.201 238.782 193.625 244.008 196.213 247.945C197.651 250.133 198.234 252.87 198.682 255.784C199.044 258.137 199.242 260.375 199.745 262.673C199.913 263.291 200.135 263.956 200.416 264.52C200.696 265.085 201.029 265.528 201.371 265.985" stroke="white" stroke-width="2" stroke-linecap="round"/>
<path d="M193.981 242.133C194.871 242.244 197.327 243.8 199.905 245.32C203.679 247.545 210.73 248.18 215.079 248.793C219.098 249.36 223.872 252.762 225.941 254.667C228.545 257.063 229.805 260.26 231.153 262.951C231.827 265.753 232.499 268.659 232.892 272.458C232.949 274.242 232.949 277.124 232.949 279.422" stroke="white" stroke-width="2" stroke-linecap="round"/>
<path d="M237.988 285.133C239.994 283.907 243.571 282.782 246.989 282.392C251.801 281.843 258.016 280.544 263.662 279.872C265.395 279.666 267.288 279.758 268.481 280.035C271.516 280.741 272.025 284.67 272.866 287.753C273.261 290.39 273.483 293.068 273.876 297.037C273.933 298.876 273.933 301.869 273.933 303.945" stroke="white" stroke-width="2" stroke-linecap="round"/>
<path d="M230.933 258.594C234.283 258.594 238.082 258.373 240.889 258.203C246.136 257.886 253.085 259.031 255.673 261.161C258.502 263.488 258.03 268.095 258.199 273.189C258.366 274.82 258.591 275.945 258.814 277.062C258.927 277.625 259.038 278.179 259.152 280.094" stroke="white" stroke-width="2" stroke-linecap="round"/>
<path d="M269.566 279.086C268.786 278.421 267.221 275.962 266.544 273.385C266.199 272.071 266.095 270.805 265.706 269.799C263.972 268.45 262.293 267.779 261.065 267.443C260.391 267.328 259.615 267.328 258.816 267.328" stroke="white" stroke-width="2" stroke-linecap="round"/>
<path d="M137.544 248.516C136.21 248.183 130.859 246.178 126.699 245.214C123.254 245.157 120.529 245.378 119.357 245.936C118.739 246.272 118.073 246.715 116.716 248.18" stroke="white" stroke-width="2" stroke-linecap="round"/>
<path d="M137.208 232.055C139.986 231.058 145.815 228.81 149.843 227.304C153.223 226.039 157.787 225.451 161.76 225.06C163.856 224.853 168.521 224.665 175.068 225.053C179.196 227.46 180.759 229.69 182.218 231.713C182.556 232.163 182.888 232.606 183.567 234.071" stroke="white" stroke-width="2" stroke-linecap="round"/>
<path d="M197.34 241.462C198.23 241.351 205.12 239.574 210.596 237.771C215.061 236.302 219.162 236.087 221.964 235.808C225.113 235.494 228.891 238.203 233.438 240.669C236.629 242.4 238.761 244.586 240.613 246.828C242.127 249.07 243.47 251.526 244.814 253.883C245.043 254.445 245.043 255 245.379 256.579" stroke="white" stroke-width="2" stroke-linecap="round"/>
<path d="M217.832 234.407C218.054 234.407 218.168 233.852 217.891 232.735C217.194 229.927 213.478 229.26 211.122 228.642C208.567 227.972 204.422 227.016 200.99 226.737C198.134 226.505 195.896 226.123 191.88 225.729C189.543 225.672 185.441 225.672 183.107 225.839C180.772 226.005 180.329 226.338 179.872 226.68" stroke="white" stroke-width="2" stroke-linecap="round"/>
<path d="M242.019 244.149C243.575 244.149 247.381 244.371 250.683 245.488C254.869 246.904 257.344 248.395 259.704 249.631C261.675 250.664 262.504 253.542 263.683 255.619C264.187 258.026 265.306 260.71 265.813 263.675C265.87 264.738 265.87 266.179 265.87 267.664" stroke="white" stroke-width="2" stroke-linecap="round"/>
<path d="M190.958 387.424C192.513 388.646 195.876 391.112 197.948 392.458C200.114 393.863 202.587 397.038 204.556 399.675C206.964 402.901 208.419 406.108 209.375 408.634C210.332 411.164 210.663 413.727 210.778 415.652C211.534 428.4 211.671 400.202 212.343 397.179C212.457 396.171 212.457 394.841 212.291 393.934C212.125 393.027 211.792 392.584 211.113 390.783" stroke="white" stroke-width="2" stroke-linecap="round"/>
<path d="M229.59 393.808C229.59 396.257 229.811 401.178 229.704 408.17C229.644 412.069 227.245 414.951 225.565 417.316C224.05 419.449 221.205 420.897 219.07 421.413C218.504 414.901 217.839 404.578 217.217 401.158C217.16 399.875 217.16 397.879 216.824 395.151" stroke="white" stroke-width="2" stroke-linecap="round"/>
<path d="M124.107 361.221C122.888 362.438 119.968 366.697 117.288 370.611C114.481 374.708 113.807 379.342 113.859 391.019C113.879 395.497 115.594 397.603 116.99 400.235C118.53 403.138 119.733 405.444 121.525 407.464C123.142 409.286 123.314 401.332 124.607 396.121C125.492 392.557 127.003 388.902 129.028 385.755C130.15 382.731 130.936 379.93 131.104 378.477C131.162 377.8 131.162 377.245 131.162 376.674" stroke="white" stroke-width="2" stroke-linecap="round"/>
<path d="M140.568 373.315C139.677 373.984 137 376.211 134.863 378.069C132.861 379.81 131.39 382.15 130.27 384.671C129.773 385.788 129.818 392.625 129.873 402.585C129.91 409.272 131.712 412.156 133.172 415.408C134.205 417.708 135.636 419.886 136.474 421.456C137.424 423.236 138.881 417 140.168 413.479C143.293 404.927 145.6 402.998 146.277 400.87C147.632 396.608 146.836 389.453 147.229 385.931C147.654 382.12 146.954 379.254 146.228 378.416C144.38 377.014 142.922 375.895 142.197 375.057C141.804 374.662 141.36 374.33 140.568 373.987" stroke="white" stroke-width="2" stroke-linecap="round"/>
<path d="M139.896 376.002C141.004 376.446 142.13 377.229 143.413 378.346C144.142 378.908 145.029 379.463 145.652 379.97C146.275 380.477 146.608 380.92 146.95 381.377" stroke="white" stroke-width="2" stroke-linecap="round"/>
<path d="M161.059 377.009C161.059 378.457 160.394 382.25 158.1 388.073C156.512 392.102 156.471 395.472 155.52 400.17C154.871 403.378 155.013 407.66 155.626 412.38C155.991 415.192 156.686 418.974 157.473 423.632C158.11 427.396 159.155 428.961 159.6 429.413C161.67 431.515 162.732 424.611 164.355 420.923C167.649 413.434 170.573 406.813 172.306 402.445C173.637 399.091 173.932 395.613 174.44 391.696C175.146 386.24 173.16 383.742 171.48 381.44C169.91 379.29 167.227 378.138 165.044 376.957C164.425 376.677 163.76 376.344 163.196 376.007C162.632 375.669 162.188 375.337 161.731 374.994" stroke="white" stroke-width="2" stroke-linecap="round"/>
<path d="M164.755 378.689C165.201 380.587 165.427 382.932 166.147 384.78C166.494 385.671 168.309 385.408 168.663 385.297C171.364 384.453 162.185 384.515 161.234 383.901C160.766 383.6 160.616 382.956 161.887 382.67C165.93 382.385 169.673 383.272 171.127 384.948C171.695 385.737 171.917 386.402 172.481 387.424" stroke="white" stroke-width="2" stroke-linecap="round"/>
<path d="M178.864 381.377C178.753 382.489 178.306 385.617 178.247 392.381C178.208 396.941 182.432 401.513 185.069 406.493C189.184 414.265 189.278 420.547 189.557 424.252C189.666 425.704 189.725 426.947 190.225 427.676C191.769 429.924 195.647 424.162 197.503 421.086C200.655 415.864 197.79 406.028 196.952 402.889C195.933 399.073 194.209 394.942 193.257 392.527C192.418 390.398 190.964 388.11 189.619 386.087C188.386 384.234 186.375 383.064 184.192 381.942C183.574 381.606 182.909 381.162 182.289 380.823C181.669 380.484 181.115 380.262 180.544 380.034" stroke="white" stroke-width="2" stroke-linecap="round"/>
<path d="M180.544 384.065C180.987 384.065 181.548 384.619 182.329 385.514C183.332 385.966 184.457 386.191 185.131 386.138C185.25 385.973 184.917 385.53 183.903 384.401" stroke="white" stroke-width="2" stroke-linecap="round"/>
<path d="M146.325 407.029C147.114 407.421 148.221 408.845 148.779 410.469C149.171 411.612 149.65 412.651 150.203 413.284C150.465 413.584 150.912 413.604 151.232 413.487C152.186 412.263 152.583 410.915 152.741 410.125C152.821 409.727 152.899 409.335 152.98 408.931" stroke="white" stroke-width="2" stroke-linecap="round"/>
<path d="M124.695 404.652C124.852 404.808 125.168 405.281 125.76 406.15C126.587 407.176 127.386 407.977 128.057 408.333C128.415 408.455 128.807 408.455 129.211 407.979" stroke="white" stroke-width="2" stroke-linecap="round"/>
<path d="M172.945 406.078C173.578 407.735 174.053 410.423 174.173 417.065C174.231 420.273 175.161 422.469 175.834 423.587C176.958 425.451 178.479 417.05 180.032 412.665C181.024 410.361 181.659 408.621 181.937 407.035C181.977 406.636 181.977 406.244 182.215 405.127" stroke="white" stroke-width="2" stroke-linecap="round"/>
<path d="M201.705 409.644C202.811 410.668 203.764 412.568 204.751 413.72C205.008 414.02 205.266 414.312 205.505 414.199C206.3 412.579 206.616 411.234 206.971 410.089C207.17 409.492 207.405 408.864 207.647 407.505" stroke="white" stroke-width="2" stroke-linecap="round"/>
<path d="M115.473 399.728C115.298 401.133 114.943 408.859 114.503 415.349C113.993 422.86 113.882 427.099 112.915 434.687C111.254 447.709 111.231 455.202 110.791 461.21C110.526 469.704 110.171 487.95 110.786 498.428C111.051 499.403 111.401 500.453 112.292 501.535" stroke="white" stroke-width="2" stroke-linecap="round"/>
<path d="M129.79 412.984C129.79 417.534 129.79 426.002 130.052 436.068C130.197 441.64 132.43 451.257 134.021 463.978C134.734 469.68 135.087 474.281 135.882 485.182C136.153 503.784 135.628 516.722 134.745 519.28C134.387 520.439 134.212 521.313 133.501 523.275" stroke="white" stroke-width="2" stroke-linecap="round"/>
<path d="M151 412.984C150.65 415.434 150.294 417.921 150.029 425.901C149.398 444.895 150.289 460.15 151.169 465.001C152.506 472.369 155.401 479.922 158.943 495.207C159.658 500.994 160.014 505.226 160.454 508.945C160.544 509.834 160.544 510.709 162.135 512.14" stroke="white" stroke-width="2" stroke-linecap="round"/>
<path d="M167.032 416.524C167.032 416.827 167.032 417.129 167.032 422.526C167.032 427.924 167.032 438.406 167.284 445.671C167.536 452.936 168.04 456.666 169.056 461.359C171.286 471.665 173.141 478.82 173.192 481.463C173.267 485.446 173.648 489.715 173.702 492.976C173.55 494.199 173.245 495.323 172.889 496.491C172.735 497.055 172.634 497.559 172.53 498.078" stroke="white" stroke-width="2" stroke-linecap="round"/>
<path d="M191.468 427.216C191.367 428.633 191.162 431.681 190.909 440.38C190.712 447.14 190.857 460.045 191.159 467.901C191.462 475.757 192.066 478.176 192.479 486.226C192.891 494.276 193.093 507.884 192.995 515.649C192.85 527.154 189.751 532.753 187.808 537.014C186.996 537.982 186.077 538.901 185.111 539.816C184.65 540.227 184.247 540.529 183.526 540.23" stroke="white" stroke-width="2" stroke-linecap="round"/>
<path d="M206.129 412.248C206.129 413.256 206.129 421.537 206.331 434.052C206.432 440.347 207.653 444.9 208.263 450.036C208.649 453.292 209.99 456.214 211.816 461.08C214.494 468.212 215.998 474.339 217.168 477.438C217.834 480.234 218.142 485.515 218.194 491.119C218.145 492.791 217.944 492.085 217.736 491.358" stroke="white" stroke-width="2" stroke-linecap="round"/>
<path d="M227.205 417.136C227.205 417.338 226.802 424.397 225.989 435.338C225.369 443.684 222.22 449.605 221.708 452.151C221.216 454.599 220.387 457.644 219.825 460.144C219.225 462.813 217.137 468.414 213.118 477.685C211.646 481.079 210.411 483.906 208.985 487.529C207.95 490.157 207.962 493.277 207.607 495.88C207.111 499.523 206.337 502.141 205.876 504.938C205.824 506.005 205.824 507.517 206.227 508.095C206.63 508.672 207.436 508.269 208.267 507.853" stroke="white" stroke-width="2" stroke-linecap="round"/>
<path d="M112.968 381.398C112.364 382.003 111.346 383.826 107.707 390.552C104.86 395.814 99.6327 404.636 96.6821 409.559C93.2595 415.268 91.4956 417.526 89.2124 421.482C86.1893 426.719 83.6579 433.189 81.4221 439.74C80.298 443.033 79.5894 446.391 79.174 452.691C78.7586 458.99 78.7586 468.163 79.1114 475.66C79.4642 483.157 80.1697 488.701 80.5332 495.639C80.8967 502.577 80.8967 510.742 80.7959 515.301C80.6951 519.859 80.4935 520.565 79.6749 520.07" stroke="white" stroke-width="2" stroke-linecap="round"/>
<path d="M240.339 382.926C240.944 384.337 241.457 391.112 241.964 401.586C242.178 406.017 242.672 408.632 248.474 424.195C254.276 439.757 265.465 468.182 271.38 483.531C277.295 498.879 277.597 500.29 277.904 502.328C278.211 504.365 278.513 506.986 278.669 509.243C278.825 511.5 278.825 513.315 278.214 515.184" stroke="white" stroke-width="2" stroke-linecap="round"/>
<path d="M231.481 411.638C231.683 412.041 232.19 413.962 232.901 422.304C233.465 428.915 233.411 440.423 234.17 452.642C234.929 464.861 236.24 477.461 237.116 484.758C238.19 493.695 239.82 498.152 241.649 502.982C244.404 508.25 246.442 511.607 247.459 513.894C247.871 514.872 248.073 515.477 248.586 515.794" stroke="white" stroke-width="2" stroke-linecap="round"/>
<path d="M81.1813 519.576C80.7465 520.778 78.9941 522.968 77.2352 524.948C75.3727 527.044 73.6119 528.351 71.9649 530.655C69.7569 533.744 70.3114 541.586 71.8958 546.849C72.7808 549.79 75.2457 551.079 78.0949 554.862C78.7335 555.71 79.5212 555.697 80.2919 555.59C81.9724 555.356 83.1544 554.386 84.0832 552.966C88.9308 545.557 86.2342 534.299 85.8488 531.391C85.448 528.366 84.1524 526.611 83.38 524.416C83.1609 523.756 82.8348 522.995 82.5582 522.331C82.2815 521.667 82.0641 521.124 81.8401 520.564" stroke="white" stroke-width="2" stroke-linecap="round"/>
<path d="M112.144 499.484C112.582 501.345 113.02 504.188 112.915 508.251C112.783 513.344 110.833 516.704 110.224 520.545C109.558 524.742 110.494 528.243 111.26 529.776C112.074 531.406 113.346 532.311 114.442 532.695C114.985 532.885 115.537 532.97 116.034 532.863C117.039 532.646 117.849 531.55 118.562 530.455C121.967 525.225 118.627 512.791 117.747 509.759C116.868 507.505 115.774 505.532 114.455 503.773C114.124 503.331 113.798 502.896 112.803 501.131" stroke="white" stroke-width="2" stroke-linecap="round"/>
<path d="M133.555 522.871C133.555 524.182 132.468 528.115 130.979 531.425C129.872 533.885 128.732 535.928 127.355 538.069C125.906 540.324 126.42 543.28 126.58 548.651C126.623 550.114 127.395 551.284 127.892 552.063C128.39 552.842 128.825 553.169 129.918 553.337C132.723 553.767 135.304 552.852 136.62 551.538C138.757 549.403 140.024 546.6 140.254 539.533C140.384 535.569 137.296 533.642 134.772 530.022C133.891 528.484 133.337 527.268 133.008 526.01C132.896 525.295 132.896 524.426 132.896 523.53" stroke="white" stroke-width="2" stroke-linecap="round"/>
<path d="M161.882 512C161.991 513.97 162.212 521.164 161.228 526.1C160.71 528.704 159.142 531.309 158.644 533.895C158.509 534.599 158.588 535.48 158.751 536.145C159.336 538.53 162.969 539.551 166.479 540.819C167.426 541.161 168.45 540.987 169.063 540.606C172.838 538.262 168.813 528.608 167.65 525.023C166.5 521.479 165.4 519.148 164.575 516.95C164.3 515.854 163.862 514.86 163.205 513.983C162.874 513.542 162.548 513.107 162.212 512.33" stroke="white" stroke-width="2" stroke-linecap="round"/>
<path d="M172.423 497.836C172.423 498.923 172.423 500.353 172.26 501.942C172.005 504.42 169.247 505.406 167.38 506.888C166.079 507.921 165.288 509.358 164.959 511.107C163.959 516.414 167.146 519.787 168.847 521.437C169.691 522.256 171.968 522.211 174.491 521.939C175.523 521.828 175.928 521.124 176.26 520.518C178.167 517.044 176.599 511.354 175.72 508.77C174.841 506.516 174.182 504.108 173.195 502.071C172.973 501.575 172.864 501.031 172.423 499.154" stroke="white" stroke-width="2" stroke-linecap="round"/>
<path d="M183.951 540.658C184.281 543.596 183.629 549.98 182.255 552.671C181.069 554.994 179.024 558.313 178.078 562.269C176.442 569.117 179.333 571.937 181.089 574.139C181.979 575.255 185.029 575.244 188.43 575.081C190.369 574.988 191.412 574.038 192.507 573.111C196.992 569.315 193.945 561.093 192.412 556.322C191.332 552.961 189.558 549.67 188.293 547.529C187.249 545.164 186.478 543.738 186.259 542.642C186.149 542.091 186.04 541.547 185.928 540.328" stroke="white" stroke-width="2" stroke-linecap="round"/>
<path d="M208.326 508.377C208.873 509.029 209.315 512.092 208.55 514.846C207.839 517.409 205.586 519.563 204.706 522.201C204.268 523.516 204.044 525.166 204.207 527.028C204.357 528.738 205.576 530.001 206.671 530.933C208.786 532.733 213.788 532.752 216.719 531.605C220.023 530.314 216.897 523.324 216.125 520.956C215.42 518.797 214.038 516.625 213.216 514.26C211.627 511.677 209.759 510.136 208.718 509.643C208.221 509.368 207.786 509.042 207.009 508.706" stroke="white" stroke-width="2" stroke-linecap="round"/>
<path d="M217.22 491.908C217.437 491.908 217.549 492.56 217.169 493.82C216.268 496.805 213.274 497.389 211.462 500.022C210.697 501.135 210.415 502.333 210.085 503.646C209.659 505.344 210.299 506.945 211.011 507.985C212.374 509.979 214.796 510.677 217.156 511.833C219.306 512.886 222.582 512.659 224.681 511.568C227.391 510.157 225.02 504.438 223.65 501.691C221.614 498.502 220.52 496.091 219.256 494.166C218.979 493.67 218.761 493.127 218.537 491.249" stroke="white" stroke-width="2" stroke-linecap="round"/>
<path d="M247.195 514.965C247.195 515.946 246.542 518.14 245.223 520.5C243.892 522.882 242.148 524.945 240.722 527.198C239.262 529.504 239.619 533.279 240.656 535.819C241.207 537.166 242.033 538.236 242.47 539.277C242.963 540.454 244.553 540.875 246.248 541.204C250.626 542.055 252.35 540.002 253.227 539.236C254.855 537.817 254 534.524 253.84 529.479C253.675 524.277 251.154 522.33 249.835 520.571C249.178 519.695 248.624 518.703 248.295 517.554C248.183 516.948 248.183 516.296 247.524 514.965" stroke="white" stroke-width="2" stroke-linecap="round"/>
<path d="M278.487 514.635C278.052 516.167 276.517 518.575 275.035 520.612C273.242 523.076 270.917 524.069 269.106 525.883C268.255 526.734 268.276 528.786 268.439 530.98C268.656 533.899 271.451 536.474 273.865 539.493C275.908 542.047 280.437 541.646 283.966 541.209C285.281 541.047 286.277 539.241 287.209 537.268C288.978 533.523 287.387 527.719 286.287 525.239C285.288 522.987 282.999 521.342 281.456 519.31C280.116 517.544 279.699 515.195 279.202 512.997C279.146 512.445 279.146 511.902 279.037 511.35C278.928 510.798 278.711 510.255 278.487 509.695" stroke="white" stroke-width="2" stroke-linecap="round"/>
<path d="M74.7437 157.76C74.4845 156.866 76.0203 151.733 80.9101 146.559C86.4697 140.676 92.9024 140.878 100.243 139.325C108.493 137.579 113.521 138.418 118.699 138.739C123.606 139.043 129.529 140.986 132.183 143.116C132.76 143.579 132.895 144.336 132.771 144.857C131.721 149.27 124.655 153.234 120.539 156.458C117.007 159.225 113.452 160.971 95.0726 164.197C84.9128 165.981 79.1345 164.34 77.8482 163.569C75.5213 161.764 74.3608 159.957 74.2273 159.12C74.4768 158.793 75.3704 158.665 76.2911 158.534" stroke="white" stroke-width="2" stroke-linecap="round"/>
<path d="M65.8462 121.396C65.8462 121.141 65.5908 120.371 64.5019 118.957C60.1423 113.297 51.5482 113.404 42.4979 112.566C21.9659 110.666 19.3082 113.009 15.7628 114.427C14.21 115.048 12.9833 115.849 12.2076 116.491C10.4761 117.925 15.9194 121.636 21.2754 125.574C24.3739 127.853 29.3276 129.125 36.4205 130.162C40.0182 130.688 48.2446 130.681 54.0338 129.526C58.3025 128.674 60.4226 125.922 62.4206 123.982C63.0028 123.466 63.6411 122.828 64.2253 122.307C64.8094 121.787 65.3201 121.404 65.8462 120.623" stroke="white" stroke-width="2" stroke-linecap="round"/>
<path d="M76.2911 159.307C77.9623 158.15 80.531 156.096 86.5833 153.448C94.5543 152.603 109.251 151.322 114.897 149.833C115.87 149.636 116.763 149.636 118.458 149.249" stroke="white" stroke-width="2" stroke-linecap="round"/>
<path d="M62.7514 120.236C62.4961 120.236 61.5986 120.108 60.0551 119.915C58.5115 119.849 56.9564 119.721 52.6044 119.528C49.0183 119.462 42.6353 119.462 36.0588 119.462" stroke="white" stroke-width="2" stroke-linecap="round"/>
<path d="M74.7438 199.347C73.3317 198.449 67.44 195.115 55.8926 191.619C50.688 190.044 35.672 190.581 27.171 191.155C23.6944 191.39 19.1845 193.668 16.082 194.828C14.7079 195.342 13.757 196.635 13.0452 197.662C11.0504 200.54 20.2909 204.476 27.7107 208.616C36.5944 213.572 46.8132 213.66 53.322 212.828C60.1189 211.96 62.3491 207.347 65.3839 205.672C67.9043 204.38 69.4517 203.219 70.4807 202.447C70.999 202.058 71.5097 201.675 73.1963 200.12" stroke="white" stroke-width="2" stroke-linecap="round"/>
<path d="M69.3278 199.346C68.175 199.218 62.5348 197.938 46.9467 197.476C41.6963 197.32 38.3954 199.215 35.6816 199.795C35.0337 199.988 34.3954 200.244 33.7474 200.439C33.0994 200.634 32.4611 200.762 31.0298 201.667" stroke="white" stroke-width="2" stroke-linecap="round"/>
<path d="M67.7805 93.7365C67.7805 92.3284 68.8018 88.2123 75.297 79.9705C79.1309 75.1055 82.7283 74.0149 86.2042 72.0169C92.7851 68.2339 106.272 68.5913 114.05 69.6165C117.834 70.1153 120.257 71.8138 121.224 72.454C121.731 72.7901 121.553 73.8602 121.297 74.6397C120.261 77.8045 117.56 79.926 115.821 82.1233C113.809 84.6661 111.115 87.4076 105.593 91.6533C96.6138 98.5568 91.1384 98.3709 84.3164 100.05C76.179 99.6746 71.5329 97.6127 68.7573 95.9996C68.1712 95.5469 67.7882 95.0363 67.7805 94.1233" stroke="white" stroke-width="2" stroke-linecap="round"/>
<path d="M70.4884 94.8977C73.8269 93.358 78.9759 90.271 90.8812 84.0253C95.885 81.1026 98.9682 80.0736 101.877 79.4256C102.589 79.2961 103.355 79.1684 104.144 79.0369" stroke="white" stroke-width="2" stroke-linecap="round"/>
<path d="M59.6567 48.0889C58.7591 46.9322 56.1905 45.1334 52.8346 43.1953C50.0728 41.6003 45.498 40.2359 35.2059 38.615C21.9168 36.5221 18.6661 39.5705 14.5423 41.2475C9.44934 43.3186 6.92913 44.7311 3.70474 47.3694C2.94906 47.9877 2.28693 48.2127 1.76662 48.6634C1.24631 49.1141 0.863329 49.7524 1.04902 50.528C1.93189 54.2158 7.40883 55.1683 25.1575 61.7331C33.7126 64.8975 45.1653 61.265 49.8462 58.5416C52.4264 56.0928 55.262 53.5125 56.4303 51.1934C56.5618 50.5454 56.5618 49.9071 57.3356 47.7021" stroke="white" stroke-width="2" stroke-linecap="round"/>
<path d="M54.6276 47.7018C52.9641 47.7018 48.585 46.9359 44.9699 46.1564C36.8867 45.7676 23.9582 46.5335 21.0452 47.4407C20.4611 47.698 19.9504 48.081 18.6506 48.8624" stroke="white" stroke-width="2" stroke-linecap="round"/>
</g>
</svg>
