<svg width="105" height="58" viewBox="0 0 105 58" fill="none" xmlns="http://www.w3.org/2000/svg">
<path d="M24.3222 23.818L24.7452 23.332C24.9732 23.398 25.2072 23.488 25.4472 23.602C25.6932 23.716 25.8882 23.83 26.0322 23.944L25.5822 24.484C25.4502 24.37 25.2612 24.25 25.0152 24.124C24.7752 23.998 24.5442 23.896 24.3222 23.818ZM19.6962 24.286H26.6712V24.97H19.6962V24.286ZM20.3622 25.501H23.0802V26.068H20.3622V25.501ZM20.4522 26.599H21.1452V28.246H20.4522V26.599ZM25.1952 25.312L25.9782 25.501C25.7262 26.245 25.3782 26.914 24.9342 27.508C24.4962 28.096 23.9982 28.585 23.4402 28.975C23.3982 28.921 23.3412 28.858 23.2692 28.786C23.1972 28.708 23.1222 28.633 23.0442 28.561C22.9722 28.483 22.9032 28.423 22.8372 28.381C23.3832 28.045 23.8572 27.613 24.2592 27.085C24.6672 26.557 24.9792 25.966 25.1952 25.312ZM23.0712 23.404H23.8722C23.8962 24.064 23.9742 24.688 24.1062 25.276C24.2382 25.864 24.4032 26.386 24.6012 26.842C24.8052 27.292 25.0212 27.646 25.2492 27.904C25.4832 28.156 25.7052 28.282 25.9152 28.282C26.0292 28.276 26.1102 28.189 26.1582 28.021C26.2062 27.847 26.2422 27.562 26.2662 27.166C26.3502 27.238 26.4552 27.31 26.5812 27.382C26.7072 27.454 26.8212 27.505 26.9232 27.535C26.8812 27.937 26.8182 28.249 26.7342 28.471C26.6562 28.687 26.5452 28.837 26.4012 28.921C26.2632 29.005 26.0892 29.047 25.8792 29.047C25.5792 29.047 25.2942 28.951 25.0242 28.759C24.7602 28.561 24.5142 28.285 24.2862 27.931C24.0582 27.577 23.8572 27.163 23.6832 26.689C23.5092 26.215 23.3682 25.699 23.2602 25.141C23.1582 24.583 23.0952 24.004 23.0712 23.404ZM20.4522 26.599H22.9722V28.516H20.4522V27.949H22.2612V27.166H20.4522V26.599ZM20.8662 29.317H21.7032V30.604C21.7032 30.724 21.7362 30.802 21.8022 30.838C21.8682 30.868 22.0152 30.883 22.2432 30.883C22.2972 30.883 22.3872 30.883 22.5132 30.883C22.6392 30.883 22.7802 30.883 22.9362 30.883C23.0982 30.883 23.2482 30.883 23.3862 30.883C23.5242 30.883 23.6292 30.883 23.7012 30.883C23.8272 30.883 23.9202 30.865 23.9802 30.829C24.0402 30.787 24.0852 30.703 24.1152 30.577C24.1452 30.451 24.1662 30.256 24.1782 29.992C24.2322 30.034 24.3042 30.076 24.3942 30.118C24.4842 30.16 24.5772 30.196 24.6732 30.226C24.7692 30.256 24.8562 30.28 24.9342 30.298C24.8982 30.658 24.8412 30.934 24.7632 31.126C24.6912 31.324 24.5772 31.459 24.4212 31.531C24.2652 31.609 24.0492 31.648 23.7732 31.648C23.7312 31.648 23.6532 31.648 23.5392 31.648C23.4312 31.648 23.3082 31.648 23.1702 31.648C23.0322 31.648 22.8942 31.648 22.7562 31.648C22.6182 31.648 22.4952 31.648 22.3872 31.648C22.2792 31.648 22.2042 31.648 22.1622 31.648C21.8142 31.648 21.5442 31.618 21.3522 31.558C21.1662 31.498 21.0372 31.39 20.9652 31.234C20.8992 31.084 20.8662 30.877 20.8662 30.613V29.317ZM21.6132 29.047L22.1622 28.579C22.3482 28.663 22.5342 28.765 22.7202 28.885C22.9062 29.005 23.0832 29.128 23.2512 29.254C23.4192 29.38 23.5512 29.503 23.6472 29.623L23.0622 30.145C22.9662 30.031 22.8372 29.908 22.6752 29.776C22.5192 29.644 22.3482 29.515 22.1622 29.389C21.9762 29.257 21.7932 29.143 21.6132 29.047ZM24.6642 29.605L25.3662 29.236C25.5702 29.404 25.7742 29.596 25.9782 29.812C26.1822 30.028 26.3652 30.247 26.5272 30.469C26.6952 30.685 26.8212 30.886 26.9052 31.072L26.1312 31.477C26.0592 31.291 25.9452 31.09 25.7892 30.874C25.6392 30.652 25.4652 30.43 25.2672 30.208C25.0692 29.986 24.8682 29.785 24.6642 29.605ZM19.6962 29.344L20.4432 29.614C20.3292 29.98 20.1762 30.34 19.9842 30.694C19.7982 31.042 19.5492 31.336 19.2372 31.576L18.5262 31.099C18.8202 30.889 19.0632 30.628 19.2552 30.316C19.4472 30.004 19.5942 29.68 19.6962 29.344ZM19.3002 24.286H20.0832V25.654C20.0832 25.924 20.0682 26.215 20.0382 26.527C20.0142 26.833 19.9662 27.148 19.8942 27.472C19.8222 27.796 19.7202 28.114 19.5882 28.426C19.4562 28.732 19.2882 29.011 19.0842 29.263C19.0422 29.209 18.9822 29.149 18.9042 29.083C18.8262 29.011 18.7452 28.942 18.6612 28.876C18.5832 28.81 18.5142 28.765 18.4542 28.741C18.7122 28.435 18.8982 28.099 19.0122 27.733C19.1322 27.367 19.2102 27.004 19.2462 26.644C19.2822 26.278 19.3002 25.942 19.3002 25.636V24.286ZM31.3332 28.462C31.6452 28.408 32.0142 28.342 32.4402 28.264C32.8662 28.18 33.3072 28.096 33.7632 28.012L33.8262 28.642C33.4182 28.732 33.0132 28.822 32.6112 28.912C32.2152 29.002 31.8492 29.08 31.5132 29.146L31.3332 28.462ZM34.3212 25.546H37.0842V26.338H34.3212V25.546ZM35.8332 23.467H36.6072V30.829C36.6072 31.051 36.5802 31.222 36.5262 31.342C36.4782 31.468 36.3912 31.564 36.2652 31.63C36.1272 31.696 35.9532 31.738 35.7432 31.756C35.5392 31.78 35.2812 31.792 34.9692 31.792C34.9572 31.684 34.9272 31.552 34.8792 31.396C34.8312 31.24 34.7802 31.105 34.7262 30.991C34.9362 30.997 35.1282 31 35.3022 31C35.4822 31.006 35.6022 31.006 35.6622 31C35.7282 31 35.7732 30.988 35.7972 30.964C35.8212 30.94 35.8332 30.895 35.8332 30.829V23.467ZM34.5012 27.139L35.1042 26.995C35.1942 27.229 35.2722 27.481 35.3382 27.751C35.4102 28.021 35.4672 28.285 35.5092 28.543C35.5572 28.795 35.5902 29.023 35.6082 29.227L34.9512 29.38C34.9452 29.176 34.9212 28.945 34.8792 28.687C34.8372 28.429 34.7832 28.165 34.7172 27.895C34.6512 27.625 34.5792 27.373 34.5012 27.139ZM29.0472 26.14H31.2162V26.797H29.0472V26.14ZM29.0922 23.701H31.1982V24.367H29.0922V23.701ZM29.0472 27.355H31.2162V28.012H29.0472V27.355ZM28.6962 24.898H31.4142V25.582H28.6962V24.898ZM29.3712 28.588H31.2252V31.252H29.3712V30.568H30.5502V29.272H29.3712V28.588ZM29.0202 28.588H29.6862V31.648H29.0202V28.588ZM32.0892 25.546H33.8262V26.176H32.0892V25.546ZM32.0892 26.815H33.8262V27.445H32.0892V26.815ZM33.4392 24.286H34.1412V30.901C34.1412 31.087 34.1172 31.237 34.0692 31.351C34.0212 31.471 33.9372 31.561 33.8172 31.621C33.6912 31.681 33.5322 31.72 33.3402 31.738C33.1542 31.756 32.9172 31.765 32.6292 31.765C32.6112 31.663 32.5782 31.543 32.5302 31.405C32.4822 31.267 32.4312 31.15 32.3772 31.054C32.5812 31.06 32.7672 31.063 32.9352 31.063C33.1092 31.063 33.2232 31.063 33.2772 31.063C33.3852 31.063 33.4392 31.006 33.4392 30.892V24.286ZM33.8802 27.445L34.6182 27.679C34.3902 28.129 34.1202 28.564 33.8082 28.984C33.4962 29.398 33.1602 29.779 32.8002 30.127C32.4402 30.475 32.0682 30.778 31.6842 31.036C31.6542 30.982 31.6062 30.916 31.5402 30.838C31.4742 30.76 31.4082 30.682 31.3422 30.604C31.2762 30.52 31.2162 30.454 31.1622 30.406C31.5342 30.178 31.8882 29.911 32.2242 29.605C32.5662 29.299 32.8812 28.963 33.1692 28.597C33.4572 28.225 33.6942 27.841 33.8802 27.445ZM31.7652 24.286H33.7452V24.925H32.4402V28.714H31.7652V24.286ZM32.6832 23.386L33.5112 23.53C33.4332 23.746 33.3522 23.959 33.2682 24.169C33.1902 24.379 33.1152 24.562 33.0432 24.718L32.3862 24.565C32.4402 24.397 32.4942 24.202 32.5482 23.98C32.6082 23.758 32.6532 23.56 32.6832 23.386ZM42.6192 24.826C42.8832 24.868 43.1802 24.898 43.5102 24.916C43.8462 24.934 44.1912 24.94 44.5452 24.934C44.8992 24.928 45.2382 24.916 45.5622 24.898C45.8862 24.88 46.1652 24.856 46.3992 24.826V25.744C46.1412 25.768 45.8502 25.789 45.5262 25.807C45.2022 25.819 44.8662 25.825 44.5182 25.825C44.1762 25.825 43.8402 25.819 43.5102 25.807C43.1802 25.789 42.8862 25.768 42.6282 25.744L42.6192 24.826ZM43.1322 28.57C43.0962 28.726 43.0662 28.867 43.0422 28.993C43.0242 29.119 43.0152 29.245 43.0152 29.371C43.0152 29.473 43.0362 29.569 43.0782 29.659C43.1262 29.749 43.2012 29.827 43.3032 29.893C43.4112 29.959 43.5552 30.013 43.7352 30.055C43.9212 30.091 44.1492 30.109 44.4192 30.109C44.8272 30.109 45.2082 30.091 45.5622 30.055C45.9222 30.013 46.2882 29.95 46.6602 29.866L46.6782 30.829C46.3962 30.883 46.0662 30.928 45.6882 30.964C45.3162 30.994 44.8872 31.009 44.4012 31.009C43.6392 31.009 43.0752 30.886 42.7092 30.64C42.3492 30.388 42.1692 30.043 42.1692 29.605C42.1692 29.443 42.1812 29.275 42.2052 29.101C42.2292 28.921 42.2682 28.72 42.3222 28.498L43.1322 28.57ZM41.0532 24.178C41.0352 24.232 41.0112 24.304 40.9812 24.394C40.9572 24.478 40.9332 24.565 40.9092 24.655C40.8912 24.739 40.8762 24.808 40.8642 24.862C40.8342 25.012 40.7982 25.195 40.7562 25.411C40.7202 25.621 40.6812 25.852 40.6392 26.104C40.6032 26.35 40.5672 26.602 40.5312 26.86C40.5012 27.112 40.4742 27.358 40.4502 27.598C40.4322 27.838 40.4232 28.057 40.4232 28.255C40.4232 28.411 40.4262 28.57 40.4322 28.732C40.4442 28.888 40.4592 29.05 40.4772 29.218C40.5312 29.098 40.5852 28.972 40.6392 28.84C40.6932 28.702 40.7472 28.567 40.8012 28.435C40.8552 28.303 40.9062 28.183 40.9542 28.075L41.4042 28.435C41.3262 28.657 41.2422 28.903 41.1522 29.173C41.0622 29.443 40.9812 29.701 40.9092 29.947C40.8432 30.187 40.7952 30.382 40.7652 30.532C40.7532 30.592 40.7412 30.664 40.7292 30.748C40.7172 30.826 40.7142 30.892 40.7202 30.946C40.7202 30.988 40.7202 31.039 40.7202 31.099C40.7262 31.165 40.7322 31.225 40.7382 31.279L39.9192 31.333C39.8292 31.021 39.7512 30.61 39.6852 30.1C39.6192 29.59 39.5862 29.032 39.5862 28.426C39.5862 28.09 39.6012 27.751 39.6312 27.409C39.6612 27.061 39.6972 26.725 39.7392 26.401C39.7812 26.077 39.8232 25.78 39.8652 25.51C39.9132 25.24 39.9492 25.015 39.9732 24.835C39.9912 24.721 40.0062 24.598 40.0182 24.466C40.0362 24.334 40.0482 24.208 40.0542 24.088L41.0532 24.178ZM49.3062 26.194C49.4682 26.164 49.6392 26.125 49.8192 26.077C50.0052 26.029 50.1822 25.981 50.3502 25.933C50.5302 25.879 50.7672 25.804 51.0612 25.708C51.3612 25.606 51.6882 25.507 52.0422 25.411C52.4022 25.309 52.7682 25.225 53.1402 25.159C53.5122 25.093 53.8632 25.06 54.1932 25.06C54.7092 25.06 55.1742 25.156 55.5882 25.348C56.0082 25.54 56.3412 25.819 56.5872 26.185C56.8392 26.551 56.9652 26.998 56.9652 27.526C56.9652 27.952 56.8872 28.336 56.7312 28.678C56.5752 29.02 56.3502 29.326 56.0562 29.596C55.7622 29.866 55.4082 30.097 54.9942 30.289C54.5862 30.475 54.1242 30.625 53.6082 30.739C53.0982 30.847 52.5492 30.916 51.9612 30.946L51.5562 30.01C52.1562 29.992 52.7202 29.932 53.2482 29.83C53.7762 29.728 54.2442 29.578 54.6522 29.38C55.0602 29.182 55.3812 28.93 55.6152 28.624C55.8492 28.312 55.9662 27.943 55.9662 27.517C55.9662 27.211 55.8972 26.938 55.7592 26.698C55.6212 26.458 55.4142 26.266 55.1382 26.122C54.8682 25.978 54.5412 25.906 54.1572 25.906C53.8752 25.906 53.5662 25.942 53.2302 26.014C52.9002 26.08 52.5612 26.164 52.2132 26.266C51.8712 26.368 51.5382 26.479 51.2142 26.599C50.8962 26.719 50.6052 26.833 50.3412 26.941C50.0832 27.043 49.8732 27.13 49.7112 27.202L49.3062 26.194ZM61.0422 24.655C61.0242 24.739 61.0092 24.841 60.9972 24.961C60.9852 25.081 60.9732 25.201 60.9612 25.321C60.9552 25.441 60.9522 25.543 60.9522 25.627C60.9522 25.813 60.9522 26.02 60.9522 26.248C60.9582 26.476 60.9642 26.71 60.9702 26.95C60.9762 27.184 60.9912 27.418 61.0152 27.652C61.0632 28.126 61.1352 28.54 61.2312 28.894C61.3272 29.248 61.4502 29.524 61.6002 29.722C61.7502 29.92 61.9242 30.019 62.1222 30.019C62.2362 30.019 62.3442 29.965 62.4462 29.857C62.5482 29.749 62.6442 29.605 62.7342 29.425C62.8242 29.245 62.9052 29.05 62.9772 28.84C63.0552 28.624 63.1212 28.417 63.1752 28.219L63.8862 29.056C63.6942 29.566 63.5022 29.974 63.3102 30.28C63.1242 30.58 62.9322 30.796 62.7342 30.928C62.5362 31.06 62.3262 31.126 62.1042 31.126C61.8042 31.126 61.5162 31.024 61.2402 30.82C60.9702 30.61 60.7362 30.268 60.5382 29.794C60.3402 29.32 60.1992 28.687 60.1152 27.895C60.0852 27.631 60.0612 27.346 60.0432 27.04C60.0312 26.734 60.0222 26.443 60.0162 26.167C60.0162 25.891 60.0162 25.663 60.0162 25.483C60.0162 25.369 60.0102 25.231 59.9982 25.069C59.9922 24.901 59.9742 24.757 59.9442 24.637L61.0422 24.655ZM65.6502 24.88C65.8122 25.09 65.9682 25.336 66.1182 25.618C66.2742 25.894 66.4152 26.194 66.5412 26.518C66.6672 26.842 66.7782 27.172 66.8742 27.508C66.9762 27.844 67.0602 28.177 67.1262 28.507C67.1922 28.837 67.2372 29.149 67.2612 29.443L66.3342 29.803C66.2982 29.413 66.2382 29.005 66.1542 28.579C66.0702 28.153 65.9622 27.733 65.8302 27.319C65.6982 26.899 65.5422 26.506 65.3622 26.14C65.1882 25.768 64.9872 25.447 64.7592 25.177L65.6502 24.88ZM69.4998 24.925C69.6738 24.919 69.8358 24.913 69.9858 24.907C70.1358 24.895 70.2528 24.886 70.3368 24.88C70.4988 24.868 70.7148 24.85 70.9848 24.826C71.2608 24.796 71.5728 24.766 71.9208 24.736C72.2688 24.7 72.6408 24.667 73.0368 24.637C73.4328 24.601 73.8378 24.565 74.2518 24.529C74.5758 24.499 74.8878 24.475 75.1878 24.457C75.4878 24.433 75.7698 24.415 76.0338 24.403C76.2978 24.385 76.5318 24.373 76.7358 24.367V25.276C76.5738 25.276 76.3848 25.279 76.1688 25.285C75.9588 25.291 75.7488 25.303 75.5388 25.321C75.3288 25.339 75.1458 25.369 74.9898 25.411C74.6898 25.501 74.4168 25.642 74.1708 25.834C73.9248 26.026 73.7148 26.248 73.5408 26.5C73.3668 26.752 73.2318 27.019 73.1358 27.301C73.0398 27.577 72.9918 27.85 72.9918 28.12C72.9918 28.444 73.0488 28.729 73.1628 28.975C73.2768 29.221 73.4328 29.431 73.6308 29.605C73.8288 29.773 74.0538 29.914 74.3058 30.028C74.5638 30.136 74.8368 30.217 75.1248 30.271C75.4188 30.325 75.7158 30.358 76.0158 30.37L75.6828 31.324C75.3288 31.312 74.9778 31.261 74.6298 31.171C74.2878 31.081 73.9608 30.958 73.6488 30.802C73.3428 30.64 73.0698 30.442 72.8298 30.208C72.5958 29.968 72.4098 29.692 72.2718 29.38C72.1398 29.068 72.0738 28.711 72.0738 28.309C72.0738 27.859 72.1488 27.442 72.2988 27.058C72.4548 26.674 72.6498 26.341 72.8838 26.059C73.1238 25.771 73.3638 25.546 73.6038 25.384C73.4238 25.408 73.2018 25.435 72.9378 25.465C72.6738 25.489 72.3888 25.519 72.0828 25.555C71.7828 25.585 71.4798 25.621 71.1738 25.663C70.8678 25.699 70.5768 25.738 70.3008 25.78C70.0308 25.822 69.7968 25.867 69.5988 25.915L69.4998 24.925Z" fill="white"/>
<path d="M11.588 17.208C10.148 17.208 9.03867 16.7173 8.26 15.736C7.48133 14.744 7.092 13.32 7.092 11.464C7.092 9.59733 7.492 8.168 8.292 7.176C9.092 6.184 10.2067 5.688 11.636 5.688C12.052 5.688 12.4467 5.73067 12.82 5.816C13.204 5.90133 13.5453 6.01867 13.844 6.168C14.1533 6.31733 14.3933 6.49333 14.564 6.696C14.7453 6.888 14.836 7.10133 14.836 7.336C14.836 7.57067 14.7347 7.77867 14.532 7.96C14.3293 8.13067 14.036 8.20533 13.652 8.184C13.5773 7.56533 13.3587 7.10133 12.996 6.792C12.644 6.472 12.2013 6.312 11.668 6.312C10.676 6.312 9.93467 6.744 9.444 7.608C8.95333 8.46133 8.708 9.74133 8.708 11.448C8.708 13.1547 8.948 14.44 9.428 15.304C9.91867 16.1573 10.66 16.584 11.652 16.584C12.1427 16.584 12.5373 16.4827 12.836 16.28C13.1347 16.0773 13.3587 15.816 13.508 15.496C13.668 15.1653 13.7747 14.8187 13.828 14.456C13.8813 14.0933 13.908 13.7627 13.908 13.464C13.908 13.0693 13.8707 12.7227 13.796 12.424C13.7213 12.1253 13.5987 11.88 13.428 11.688C13.268 11.4853 13.0493 11.3467 12.772 11.272C12.8253 11.1013 12.9373 10.9733 13.108 10.888C13.2893 10.8027 13.492 10.76 13.716 10.76C14.0147 10.76 14.292 10.84 14.548 11C14.8147 11.16 15.0227 11.416 15.172 11.768C15.332 12.1093 15.412 12.5733 15.412 13.16C15.412 13.5973 15.3587 14.0187 15.252 14.424C15.156 14.8293 15.0067 15.2027 14.804 15.544C14.6013 15.8747 14.3453 16.168 14.036 16.424C13.7267 16.6693 13.3693 16.8613 12.964 17C12.5587 17.1387 12.1 17.208 11.588 17.208ZM20.5476 17.16C20.3343 17.16 20.1423 17.0853 19.9716 16.936C19.801 16.776 19.7156 16.5627 19.7156 16.296V10.584C19.7156 10.2853 19.6783 10.0773 19.6036 9.96C19.5396 9.832 19.4276 9.768 19.2676 9.768C19.2143 9.768 19.145 9.784 19.0596 9.816C18.9743 9.83733 18.905 9.896 18.8516 9.992C18.7236 9.82133 18.6596 9.64533 18.6596 9.464C18.6596 9.21867 18.745 9.02133 18.9156 8.872C19.097 8.72267 19.353 8.648 19.6836 8.648C20.1103 8.648 20.4356 8.80267 20.6596 9.112C20.8943 9.41067 21.0063 9.86933 20.9956 10.488V11.416L20.8036 11.384C20.921 10.4773 21.177 9.79467 21.5716 9.336C21.977 8.86667 22.489 8.632 23.1076 8.632C23.6623 8.632 24.1156 8.78133 24.4676 9.08C24.8196 9.368 24.9956 9.784 24.9956 10.328C24.9956 10.6907 24.8943 10.9893 24.6916 11.224C24.489 11.4587 24.2543 11.5813 23.9876 11.592C23.689 11.6027 23.4703 11.5333 23.3316 11.384C23.4703 11.192 23.5556 11.0213 23.5876 10.872C23.6196 10.712 23.6356 10.5413 23.6356 10.36C23.6356 10.0293 23.561 9.78933 23.4116 9.64C23.2623 9.48 23.0436 9.4 22.7556 9.4C22.4783 9.4 22.217 9.528 21.9716 9.784C21.7263 10.0293 21.529 10.4293 21.3796 10.984C21.2303 11.528 21.1556 12.2533 21.1556 13.16C21.1556 13.768 21.1556 14.2747 21.1556 14.68C21.1663 15.0747 21.177 15.4053 21.1876 15.672C21.1983 15.928 21.2196 16.1467 21.2516 16.328C21.2836 16.4987 21.3316 16.664 21.3956 16.824C21.3316 16.888 21.225 16.9573 21.0756 17.032C20.937 17.1067 20.761 17.1493 20.5476 17.16ZM34.6881 17.16C34.2081 17.16 33.8401 16.9947 33.5841 16.664C33.3388 16.3333 33.2161 15.7947 33.2161 15.048V13.768L33.5361 13.896C33.3655 14.5253 33.1041 15.0907 32.7521 15.592C32.4001 16.0827 31.9788 16.472 31.4881 16.76C30.9975 17.0373 30.4588 17.176 29.8721 17.176C29.2535 17.176 28.7628 17.0107 28.4001 16.68C28.0375 16.3387 27.8561 15.8853 27.8561 15.32C27.8561 14.8613 27.9735 14.4613 28.2081 14.12C28.4535 13.7787 28.7788 13.4907 29.1841 13.256C29.5895 13.0213 30.0375 12.8347 30.5281 12.696C30.9761 12.5787 31.4295 12.4987 31.8881 12.456C32.3468 12.4133 32.7628 12.3973 33.1361 12.408V12.008C33.1361 11.0907 32.9921 10.4027 32.7041 9.944C32.4161 9.47467 31.9255 9.24 31.2321 9.24C30.9868 9.24 30.7415 9.27733 30.4961 9.352C30.2615 9.42667 30.0641 9.56 29.9041 9.752C29.7548 9.93333 29.6801 10.1893 29.6801 10.52C29.6801 10.7227 29.7281 10.9413 29.8241 11.176C29.9308 11.4 30.1068 11.56 30.3521 11.656C30.2455 11.784 30.1175 11.8747 29.9681 11.928C29.8188 11.9707 29.6641 11.992 29.5041 11.992C29.1095 11.992 28.7948 11.848 28.5601 11.56C28.3361 11.2613 28.2241 10.9307 28.2241 10.568C28.2241 9.93867 28.5068 9.45867 29.0721 9.128C29.6375 8.79733 30.4001 8.632 31.3601 8.632C32.4801 8.632 33.3015 8.91467 33.8241 9.48C34.3575 10.0347 34.6241 10.904 34.6241 12.088V15.192C34.6241 15.7573 34.8108 16.04 35.1841 16.04C35.2588 16.04 35.3441 16.0187 35.4401 15.976C35.5468 15.9227 35.6321 15.8427 35.6961 15.736C35.7601 15.832 35.8028 15.928 35.8241 16.024C35.8561 16.1093 35.8721 16.1947 35.8721 16.28C35.8721 16.5253 35.7601 16.7333 35.5361 16.904C35.3121 17.0747 35.0295 17.16 34.6881 17.16ZM30.5601 16.184C30.8481 16.1733 31.1468 16.0827 31.4561 15.912C31.7655 15.7307 32.0481 15.4907 32.3041 15.192C32.5601 14.8933 32.7681 14.552 32.9281 14.168C33.0881 13.784 33.1735 13.3787 33.1841 12.952C32.9388 12.9413 32.6721 12.9467 32.3841 12.968C32.1068 12.9787 31.8295 13.0107 31.5521 13.064C31.2855 13.1173 31.0455 13.192 30.8321 13.288C30.3948 13.448 30.0535 13.672 29.8081 13.96C29.5628 14.248 29.4401 14.5947 29.4401 15C29.4401 15.3093 29.5255 15.592 29.6961 15.848C29.8668 16.0933 30.1548 16.2053 30.5601 16.184ZM41.2439 17.176C40.7105 17.176 40.2945 17.0107 39.9959 16.68C39.7079 16.3493 39.5639 15.8907 39.5639 15.304V7.512C39.5639 7.256 39.6439 7.064 39.8039 6.936C39.9639 6.79733 40.1665 6.728 40.4119 6.728C40.6252 6.728 40.8012 6.76533 40.9399 6.84C41.0785 6.91467 41.1745 6.984 41.2279 7.048C41.1319 7.38933 41.0732 7.8 41.0519 8.28C41.0305 8.74933 41.0199 9.37867 41.0199 10.168L41.0039 15.192C41.0039 15.4693 41.0679 15.6827 41.1959 15.832C41.3239 15.9813 41.5159 16.056 41.7719 16.056C41.9105 16.056 42.0492 16.0347 42.1879 15.992C42.3372 15.9387 42.4385 15.8587 42.4919 15.752C42.5665 15.8373 42.6145 15.928 42.6359 16.024C42.6679 16.12 42.6839 16.2107 42.6839 16.296C42.6839 16.552 42.5505 16.7653 42.2839 16.936C42.0172 17.096 41.6705 17.176 41.2439 17.176ZM38.3639 9.64L38.3799 9.24C38.3905 9.112 38.4332 9.016 38.5079 8.952C38.5932 8.888 38.6892 8.856 38.7959 8.856H41.5479C41.5905 8.856 41.6812 8.856 41.8199 8.856C41.9585 8.84533 42.1132 8.84 42.2839 8.84C42.4545 8.82933 42.6092 8.824 42.7479 8.824C42.8865 8.81333 42.9772 8.808 43.0199 8.808L43.0039 9.192C42.9932 9.32 42.9505 9.42133 42.8759 9.496C42.8012 9.56 42.7105 9.592 42.6039 9.592H39.3239C39.2172 9.592 39.0572 9.59733 38.8439 9.608C38.6305 9.608 38.4705 9.61867 38.3639 9.64ZM47.7046 7.432C47.4486 7.432 47.2246 7.34133 47.0326 7.16C46.8513 6.97867 46.7606 6.76 46.7606 6.504C46.7606 6.23733 46.8513 6.01333 47.0326 5.832C47.2246 5.65067 47.4486 5.56 47.7046 5.56C47.9606 5.56 48.1793 5.65067 48.3606 5.832C48.542 6.01333 48.6326 6.23733 48.6326 6.504C48.6326 6.76 48.542 6.97867 48.3606 7.16C48.1793 7.34133 47.9606 7.432 47.7046 7.432ZM48.4886 15.08C48.4886 15.3893 48.5046 15.6987 48.5366 16.008C48.5686 16.3173 48.6273 16.6 48.7126 16.856C48.6486 16.92 48.542 16.9893 48.3926 17.064C48.254 17.1493 48.0833 17.192 47.8806 17.192C47.646 17.192 47.4486 17.1227 47.2886 16.984C47.1393 16.8347 47.0646 16.6373 47.0646 16.392L47.0486 10.744C47.0486 10.424 47.0326 10.1093 47.0006 9.8C46.9793 9.49067 46.9206 9.208 46.8246 8.952C46.8993 8.888 47.006 8.81867 47.1446 8.744C47.2833 8.66933 47.454 8.632 47.6566 8.632C47.8913 8.632 48.0833 8.70133 48.2326 8.84C48.3926 8.968 48.4726 9.16 48.4726 9.416L48.4886 15.08ZM55.0758 17.176C54.5424 17.176 54.1264 17.0107 53.8278 16.68C53.5398 16.3493 53.3958 15.8907 53.3958 15.304V7.512C53.3958 7.256 53.4758 7.064 53.6358 6.936C53.7958 6.79733 53.9984 6.728 54.2438 6.728C54.4571 6.728 54.6331 6.76533 54.7718 6.84C54.9104 6.91467 55.0064 6.984 55.0598 7.048C54.9638 7.38933 54.9051 7.8 54.8838 8.28C54.8624 8.74933 54.8518 9.37867 54.8518 10.168L54.8358 15.192C54.8358 15.4693 54.8998 15.6827 55.0278 15.832C55.1558 15.9813 55.3478 16.056 55.6038 16.056C55.7424 16.056 55.8811 16.0347 56.0198 15.992C56.1691 15.9387 56.2704 15.8587 56.3238 15.752C56.3984 15.8373 56.4464 15.928 56.4678 16.024C56.4998 16.12 56.5158 16.2107 56.5158 16.296C56.5158 16.552 56.3824 16.7653 56.1158 16.936C55.8491 17.096 55.5024 17.176 55.0758 17.176ZM52.1958 9.64L52.2118 9.24C52.2224 9.112 52.2651 9.016 52.3398 8.952C52.4251 8.888 52.5211 8.856 52.6278 8.856H55.3798C55.4224 8.856 55.5131 8.856 55.6518 8.856C55.7904 8.84533 55.9451 8.84 56.1158 8.84C56.2864 8.82933 56.4411 8.824 56.5798 8.824C56.7184 8.81333 56.8091 8.808 56.8518 8.808L56.8358 9.192C56.8251 9.32 56.7824 9.42133 56.7078 9.496C56.6331 9.56 56.5424 9.592 56.4358 9.592H53.1558C53.0491 9.592 52.8891 9.59733 52.6758 9.608C52.4624 9.608 52.3024 9.61867 52.1958 9.64ZM66.1174 8.632C66.352 8.632 66.5494 8.70667 66.7094 8.856C66.8694 9.00533 66.9494 9.21867 66.9494 9.496L66.9654 15.24C66.9654 15.5387 66.9974 15.752 67.0614 15.88C67.136 15.9973 67.248 16.056 67.3974 16.056C67.4614 16.056 67.536 16.0453 67.6214 16.024C67.7067 15.992 67.776 15.928 67.8294 15.832C67.9467 16.0027 68.0054 16.1787 68.0054 16.36C68.0054 16.5947 67.9147 16.7867 67.7334 16.936C67.5627 17.0853 67.3174 17.16 66.9974 17.16C66.5707 17.16 66.24 17.0213 66.0054 16.744C65.7814 16.456 65.6694 16.024 65.6694 15.448V14.44L65.9094 14.12C65.8454 14.76 65.6854 15.3147 65.4294 15.784C65.1734 16.2427 64.8374 16.6 64.4214 16.856C64.016 17.1013 63.5414 17.224 62.9974 17.224C62.144 17.224 61.5094 16.9733 61.0934 16.472C60.688 15.96 60.4854 15.096 60.4854 13.88V10.744C60.4854 10.4667 60.4694 10.168 60.4374 9.848C60.4054 9.51733 60.3467 9.224 60.2614 8.968C60.3574 8.88267 60.4694 8.808 60.5974 8.744C60.736 8.66933 60.9014 8.632 61.0934 8.632C61.3387 8.632 61.536 8.70133 61.6854 8.84C61.8454 8.97867 61.9254 9.176 61.9254 9.432V13.688C61.9254 14.3387 61.9734 14.872 62.0694 15.288C62.1654 15.6933 62.32 15.992 62.5334 16.184C62.7574 16.3653 63.056 16.456 63.4294 16.456C63.6854 16.456 63.936 16.3867 64.1814 16.248C64.4267 16.1093 64.6507 15.8907 64.8534 15.592C65.056 15.2827 65.216 14.888 65.3334 14.408C65.4614 13.928 65.5254 13.3467 65.5254 12.664C65.5254 12.0453 65.52 11.5333 65.5094 11.128C65.5094 10.7227 65.504 10.392 65.4934 10.136C65.4827 9.86933 65.456 9.65067 65.4134 9.48C65.3814 9.29867 65.3387 9.12267 65.2854 8.952C65.3494 8.888 65.4507 8.81867 65.5894 8.744C65.728 8.66933 65.904 8.632 66.1174 8.632ZM73.8675 17.208C73.3128 17.208 72.8542 17.096 72.4915 16.872C72.1395 16.6373 71.8622 16.328 71.6595 15.944C71.4568 15.56 71.3128 15.1387 71.2275 14.68C71.1422 14.2107 71.0995 13.7467 71.0995 13.288C71.0995 11.8267 71.3875 10.6853 71.9635 9.864C72.5502 9.04267 73.3875 8.632 74.4755 8.632C75.0195 8.632 75.4728 8.73867 75.8355 8.952C76.2088 9.16533 76.4702 9.464 76.6195 9.848V7.992C76.6195 7.58667 76.6035 7.18133 76.5715 6.776C76.5395 6.36 76.4755 5.98133 76.3795 5.64C76.4435 5.576 76.5448 5.50667 76.6835 5.432C76.8328 5.34667 77.0088 5.304 77.2115 5.304C77.4568 5.304 77.6595 5.37333 77.8195 5.512C77.9795 5.65067 78.0595 5.848 78.0595 6.104L78.0435 15.192C78.0435 15.48 78.0862 15.6933 78.1715 15.832C78.2675 15.96 78.3955 16.024 78.5555 16.024C78.6088 16.024 78.6782 16.0133 78.7635 15.992C78.8595 15.96 78.9288 15.896 78.9715 15.8C79.0462 15.8853 79.0942 15.976 79.1155 16.072C79.1475 16.168 79.1635 16.2533 79.1635 16.328C79.1635 16.5733 79.0622 16.7707 78.8595 16.92C78.6568 17.0587 78.4008 17.128 78.0915 17.128C77.6115 17.128 77.2542 16.936 77.0195 16.552C76.7955 16.1573 76.6835 15.6133 76.6835 14.92V13.624L77.0355 13.512C76.9715 14.0667 76.8542 14.568 76.6835 15.016C76.5235 15.464 76.3102 15.8533 76.0435 16.184C75.7875 16.5147 75.4782 16.7707 75.1155 16.952C74.7528 17.1227 74.3368 17.208 73.8675 17.208ZM74.2675 16.344C74.6408 16.344 74.9715 16.232 75.2595 16.008C75.5582 15.7733 75.8035 15.4587 75.9955 15.064C76.1982 14.6693 76.3475 14.216 76.4435 13.704C76.5502 13.192 76.6035 12.6533 76.6035 12.088C76.6035 11.768 76.5768 11.4533 76.5235 11.144C76.4702 10.824 76.3795 10.536 76.2515 10.28C76.1235 10.024 75.9368 9.82133 75.6915 9.672C75.4462 9.52267 75.1315 9.448 74.7475 9.448C74.0648 9.448 73.5422 9.77333 73.1795 10.424C72.8275 11.064 72.6515 12.0027 72.6515 13.24C72.6515 13.6453 72.6675 14.0347 72.6995 14.408C72.7422 14.7813 72.8222 15.1173 72.9395 15.416C73.0568 15.704 73.2222 15.9333 73.4355 16.104C73.6488 16.264 73.9262 16.344 74.2675 16.344ZM86.0812 17.208C84.9186 17.208 83.9906 16.8453 83.2972 16.12C82.6146 15.3947 82.2732 14.3387 82.2732 12.952C82.2732 11.6187 82.6039 10.568 83.2652 9.8C83.9266 9.02133 84.8866 8.632 86.1452 8.632C86.7213 8.632 87.2333 8.72267 87.6813 8.904C88.1293 9.07467 88.4812 9.336 88.7372 9.688C89.0039 10.0293 89.1372 10.456 89.1372 10.968C89.1372 11.768 88.8119 12.376 88.1613 12.792C87.5213 13.1973 86.6466 13.4 85.5372 13.4C85.0999 13.4 84.6679 13.384 84.2412 13.352C83.8252 13.3093 83.3932 13.24 82.9452 13.144L82.9772 12.6C83.2439 12.6427 83.5426 12.68 83.8732 12.712C84.2039 12.744 84.5452 12.7653 84.8972 12.776C85.2492 12.776 85.5852 12.7493 85.9053 12.696C86.2253 12.632 86.5133 12.5307 86.7692 12.392C87.0252 12.2427 87.2226 12.0347 87.3612 11.768C87.5106 11.5013 87.5852 11.1653 87.5852 10.76C87.5852 10.3547 87.5106 10.0453 87.3612 9.832C87.2119 9.61867 87.0199 9.46933 86.7852 9.384C86.5612 9.288 86.3266 9.24 86.0812 9.24C85.3986 9.24 84.8492 9.544 84.4332 10.152C84.0279 10.7493 83.8252 11.624 83.8252 12.776C83.8252 13.64 83.9372 14.328 84.1612 14.84C84.3852 15.3413 84.6946 15.704 85.0892 15.928C85.4946 16.1413 85.9479 16.248 86.4492 16.248C87.0252 16.248 87.5266 16.1307 87.9532 15.896C88.3799 15.6507 88.6732 15.3147 88.8333 14.888C88.9399 14.9307 89.0146 15.0107 89.0573 15.128C89.0999 15.2453 89.0679 15.4373 88.9612 15.704C88.7586 16.1947 88.4012 16.568 87.8892 16.824C87.3773 17.08 86.7746 17.208 86.0812 17.208Z" fill="white"/>
<circle cx="4.5" cy="4.5" r="4.25" transform="matrix(-1 0 0 1 9 34)" stroke="white" stroke-width="0.5"/>
<path d="M8.5 38.5H70.5L104 57" stroke="white" stroke-width="0.5"/>
</svg>
