<svg width="262" height="115" viewBox="0 0 262 115" fill="none" xmlns="http://www.w3.org/2000/svg">
<path d="M178.382 22.404L179.012 23.097C178.58 23.217 178.097 23.325 177.563 23.421C177.035 23.511 176.48 23.589 175.898 23.655C175.322 23.715 174.74 23.766 174.152 23.808C173.57 23.844 173.006 23.874 172.46 23.898C172.442 23.784 172.412 23.655 172.37 23.511C172.328 23.361 172.286 23.241 172.244 23.151C172.784 23.127 173.339 23.094 173.909 23.052C174.479 23.01 175.037 22.959 175.583 22.899C176.135 22.833 176.651 22.761 177.131 22.683C177.611 22.599 178.028 22.506 178.382 22.404ZM172.289 24.951H179.345V25.761H172.289V24.951ZM171.677 27.057H179.867V27.885H171.677V27.057ZM175.331 23.493H176.222V29.667C176.222 29.943 176.18 30.147 176.096 30.279C176.018 30.411 175.883 30.513 175.691 30.585C175.499 30.651 175.244 30.693 174.926 30.711C174.614 30.729 174.224 30.735 173.756 30.729C173.738 30.651 173.708 30.561 173.666 30.459C173.63 30.357 173.588 30.255 173.54 30.153C173.492 30.051 173.444 29.964 173.396 29.892C173.642 29.898 173.876 29.904 174.098 29.91C174.326 29.91 174.524 29.91 174.692 29.91C174.866 29.904 174.986 29.901 175.052 29.901C175.154 29.901 175.226 29.883 175.268 29.847C175.31 29.811 175.331 29.745 175.331 29.649V23.493ZM186.806 22.557H187.679V30.108H186.806V22.557ZM184.313 25.203H190.145V26.031H184.313V25.203ZM184.547 29.577H189.992V30.396H184.547V29.577ZM183.035 24.933L183.863 24.105L183.872 24.114V30.738H183.035V24.933ZM184.016 22.422L184.826 22.683C184.616 23.205 184.367 23.724 184.079 24.24C183.791 24.75 183.479 25.23 183.143 25.68C182.813 26.13 182.471 26.526 182.117 26.868C182.087 26.796 182.042 26.709 181.982 26.607C181.928 26.499 181.868 26.391 181.802 26.283C181.736 26.169 181.676 26.079 181.622 26.013C181.94 25.725 182.246 25.392 182.54 25.014C182.834 24.63 183.107 24.216 183.359 23.772C183.617 23.328 183.836 22.878 184.016 22.422ZM195.635 22.404H196.499V29.883C196.499 30.111 196.466 30.282 196.4 30.396C196.334 30.51 196.223 30.597 196.067 30.657C195.911 30.711 195.71 30.744 195.464 30.756C195.218 30.774 194.903 30.783 194.519 30.783C194.501 30.681 194.462 30.564 194.402 30.432C194.348 30.3 194.291 30.186 194.231 30.09C194.399 30.096 194.564 30.099 194.726 30.099C194.888 30.105 195.029 30.105 195.149 30.099C195.275 30.099 195.365 30.099 195.419 30.099C195.503 30.093 195.56 30.075 195.59 30.045C195.62 30.021 195.635 29.967 195.635 29.883V22.404ZM192.179 23.061H200.045V23.745H192.179V23.061ZM193.934 24.771V25.32H198.281V24.771H193.934ZM193.115 24.213H199.145V25.887H193.115V24.213ZM192.872 26.427H199.289V29.802H198.434V27.021H192.872V26.427ZM191.999 27.543H200.234V28.209H191.999V27.543ZM192.8 28.776H198.884V29.406H192.8V28.776ZM205.841 23.826C206.105 23.868 206.402 23.898 206.732 23.916C207.068 23.934 207.413 23.94 207.767 23.934C208.121 23.928 208.46 23.916 208.784 23.898C209.108 23.88 209.387 23.856 209.621 23.826V24.744C209.363 24.768 209.072 24.789 208.748 24.807C208.424 24.819 208.088 24.825 207.74 24.825C207.398 24.825 207.062 24.819 206.732 24.807C206.402 24.789 206.108 24.768 205.85 24.744L205.841 23.826ZM206.354 27.57C206.318 27.726 206.288 27.867 206.264 27.993C206.246 28.119 206.237 28.245 206.237 28.371C206.237 28.473 206.258 28.569 206.3 28.659C206.348 28.749 206.423 28.827 206.525 28.893C206.633 28.959 206.777 29.013 206.957 29.055C207.143 29.091 207.371 29.109 207.641 29.109C208.049 29.109 208.43 29.091 208.784 29.055C209.144 29.013 209.51 28.95 209.882 28.866L209.9 29.829C209.618 29.883 209.288 29.928 208.91 29.964C208.538 29.994 208.109 30.009 207.623 30.009C206.861 30.009 206.297 29.886 205.931 29.64C205.571 29.388 205.391 29.043 205.391 28.605C205.391 28.443 205.403 28.275 205.427 28.101C205.451 27.921 205.49 27.72 205.544 27.498L206.354 27.57ZM204.275 23.178C204.257 23.232 204.233 23.304 204.203 23.394C204.179 23.478 204.155 23.565 204.131 23.655C204.113 23.739 204.098 23.808 204.086 23.862C204.056 24.012 204.02 24.195 203.978 24.411C203.942 24.621 203.903 24.852 203.861 25.104C203.825 25.35 203.789 25.602 203.753 25.86C203.723 26.112 203.696 26.358 203.672 26.598C203.654 26.838 203.645 27.057 203.645 27.255C203.645 27.411 203.648 27.57 203.654 27.732C203.666 27.888 203.681 28.05 203.699 28.218C203.753 28.098 203.807 27.972 203.861 27.84C203.915 27.702 203.969 27.567 204.023 27.435C204.077 27.303 204.128 27.183 204.176 27.075L204.626 27.435C204.548 27.657 204.464 27.903 204.374 28.173C204.284 28.443 204.203 28.701 204.131 28.947C204.065 29.187 204.017 29.382 203.987 29.532C203.975 29.592 203.963 29.664 203.951 29.748C203.939 29.826 203.936 29.892 203.942 29.946C203.942 29.988 203.942 30.039 203.942 30.099C203.948 30.165 203.954 30.225 203.96 30.279L203.141 30.333C203.051 30.021 202.973 29.61 202.907 29.1C202.841 28.59 202.808 28.032 202.808 27.426C202.808 27.09 202.823 26.751 202.853 26.409C202.883 26.061 202.919 25.725 202.961 25.401C203.003 25.077 203.045 24.78 203.087 24.51C203.135 24.24 203.171 24.015 203.195 23.835C203.213 23.721 203.228 23.598 203.24 23.466C203.258 23.334 203.27 23.208 203.276 23.088L204.275 23.178ZM212.528 25.194C212.69 25.164 212.861 25.125 213.041 25.077C213.227 25.029 213.404 24.981 213.572 24.933C213.752 24.879 213.989 24.804 214.283 24.708C214.583 24.606 214.91 24.507 215.264 24.411C215.624 24.309 215.99 24.225 216.362 24.159C216.734 24.093 217.085 24.06 217.415 24.06C217.931 24.06 218.396 24.156 218.81 24.348C219.23 24.54 219.563 24.819 219.809 25.185C220.061 25.551 220.187 25.998 220.187 26.526C220.187 26.952 220.109 27.336 219.953 27.678C219.797 28.02 219.572 28.326 219.278 28.596C218.984 28.866 218.63 29.097 218.216 29.289C217.808 29.475 217.346 29.625 216.83 29.739C216.32 29.847 215.771 29.916 215.183 29.946L214.778 29.01C215.378 28.992 215.942 28.932 216.47 28.83C216.998 28.728 217.466 28.578 217.874 28.38C218.282 28.182 218.603 27.93 218.837 27.624C219.071 27.312 219.188 26.943 219.188 26.517C219.188 26.211 219.119 25.938 218.981 25.698C218.843 25.458 218.636 25.266 218.36 25.122C218.09 24.978 217.763 24.906 217.379 24.906C217.097 24.906 216.788 24.942 216.452 25.014C216.122 25.08 215.783 25.164 215.435 25.266C215.093 25.368 214.76 25.479 214.436 25.599C214.118 25.719 213.827 25.833 213.563 25.941C213.305 26.043 213.095 26.13 212.933 26.202L212.528 25.194ZM224.264 23.655C224.246 23.739 224.231 23.841 224.219 23.961C224.207 24.081 224.195 24.201 224.183 24.321C224.177 24.441 224.174 24.543 224.174 24.627C224.174 24.813 224.174 25.02 224.174 25.248C224.18 25.476 224.186 25.71 224.192 25.95C224.198 26.184 224.213 26.418 224.237 26.652C224.285 27.126 224.357 27.54 224.453 27.894C224.549 28.248 224.672 28.524 224.822 28.722C224.972 28.92 225.146 29.019 225.344 29.019C225.458 29.019 225.566 28.965 225.668 28.857C225.77 28.749 225.866 28.605 225.956 28.425C226.046 28.245 226.127 28.05 226.199 27.84C226.277 27.624 226.343 27.417 226.397 27.219L227.108 28.056C226.916 28.566 226.724 28.974 226.532 29.28C226.346 29.58 226.154 29.796 225.956 29.928C225.758 30.06 225.548 30.126 225.326 30.126C225.026 30.126 224.738 30.024 224.462 29.82C224.192 29.61 223.958 29.268 223.76 28.794C223.562 28.32 223.421 27.687 223.337 26.895C223.307 26.631 223.283 26.346 223.265 26.04C223.253 25.734 223.244 25.443 223.238 25.167C223.238 24.891 223.238 24.663 223.238 24.483C223.238 24.369 223.232 24.231 223.22 24.069C223.214 23.901 223.196 23.757 223.166 23.637L224.264 23.655ZM228.872 23.88C229.034 24.09 229.19 24.336 229.34 24.618C229.496 24.894 229.637 25.194 229.763 25.518C229.889 25.842 230 26.172 230.096 26.508C230.198 26.844 230.282 27.177 230.348 27.507C230.414 27.837 230.459 28.149 230.483 28.443L229.556 28.803C229.52 28.413 229.46 28.005 229.376 27.579C229.292 27.153 229.184 26.733 229.052 26.319C228.92 25.899 228.764 25.506 228.584 25.14C228.41 24.768 228.209 24.447 227.981 24.177L228.872 23.88ZM232.721 23.925C232.895 23.919 233.057 23.913 233.207 23.907C233.357 23.895 233.474 23.886 233.558 23.88C233.72 23.868 233.936 23.85 234.206 23.826C234.482 23.796 234.794 23.766 235.142 23.736C235.49 23.7 235.862 23.667 236.258 23.637C236.654 23.601 237.059 23.565 237.473 23.529C237.797 23.499 238.109 23.475 238.409 23.457C238.709 23.433 238.991 23.415 239.255 23.403C239.519 23.385 239.753 23.373 239.957 23.367V24.276C239.795 24.276 239.606 24.279 239.39 24.285C239.18 24.291 238.97 24.303 238.76 24.321C238.55 24.339 238.367 24.369 238.211 24.411C237.911 24.501 237.638 24.642 237.392 24.834C237.146 25.026 236.936 25.248 236.762 25.5C236.588 25.752 236.453 26.019 236.357 26.301C236.261 26.577 236.213 26.85 236.213 27.12C236.213 27.444 236.27 27.729 236.384 27.975C236.498 28.221 236.654 28.431 236.852 28.605C237.05 28.773 237.275 28.914 237.527 29.028C237.785 29.136 238.058 29.217 238.346 29.271C238.64 29.325 238.937 29.358 239.237 29.37L238.904 30.324C238.55 30.312 238.199 30.261 237.851 30.171C237.509 30.081 237.182 29.958 236.87 29.802C236.564 29.64 236.291 29.442 236.051 29.208C235.817 28.968 235.631 28.692 235.493 28.38C235.361 28.068 235.295 27.711 235.295 27.309C235.295 26.859 235.37 26.442 235.52 26.058C235.676 25.674 235.871 25.341 236.105 25.059C236.345 24.771 236.585 24.546 236.825 24.384C236.645 24.408 236.423 24.435 236.159 24.465C235.895 24.489 235.61 24.519 235.304 24.555C235.004 24.585 234.701 24.621 234.395 24.663C234.089 24.699 233.798 24.738 233.522 24.78C233.252 24.822 233.018 24.867 232.82 24.915L232.721 23.925Z" fill="white"/>
<path d="M165.223 15.08C165.223 15.3893 165.234 15.6987 165.255 16.008C165.287 16.3173 165.351 16.6 165.447 16.856C165.373 16.92 165.261 16.9893 165.111 17.064C164.973 17.1493 164.802 17.192 164.599 17.192C164.354 17.192 164.151 17.1227 163.991 16.984C163.831 16.8347 163.751 16.6373 163.751 16.392V7.848C163.751 7.528 163.735 7.21867 163.703 6.92C163.671 6.61067 163.613 6.32267 163.527 6.056C163.591 6.00267 163.693 5.93867 163.831 5.864C163.981 5.77867 164.157 5.736 164.359 5.736C164.605 5.736 164.807 5.80533 164.967 5.944C165.138 6.08267 165.223 6.27467 165.223 6.52V15.08ZM171.687 15.08C171.687 15.3893 171.703 15.6987 171.735 16.008C171.767 16.3173 171.826 16.6 171.911 16.856C171.847 16.92 171.741 16.9893 171.591 17.064C171.453 17.1493 171.277 17.192 171.063 17.192C170.829 17.192 170.631 17.1227 170.471 16.984C170.311 16.8347 170.231 16.6373 170.231 16.392L170.215 7.848C170.215 7.528 170.199 7.21867 170.167 6.92C170.146 6.61067 170.087 6.32267 169.991 6.056C170.066 6.00267 170.173 5.93867 170.311 5.864C170.461 5.77867 170.637 5.736 170.839 5.736C171.085 5.736 171.287 5.80533 171.447 5.944C171.607 6.08267 171.687 6.27467 171.687 6.52V15.08ZM164.679 10.728H170.711V11.576H164.679V10.728ZM182.785 17.16C182.305 17.16 181.937 16.9947 181.681 16.664C181.436 16.3333 181.313 15.7947 181.313 15.048V13.768L181.633 13.896C181.462 14.5253 181.201 15.0907 180.849 15.592C180.497 16.0827 180.076 16.472 179.585 16.76C179.094 17.0373 178.556 17.176 177.969 17.176C177.35 17.176 176.86 17.0107 176.497 16.68C176.134 16.3387 175.953 15.8853 175.953 15.32C175.953 14.8613 176.07 14.4613 176.305 14.12C176.55 13.7787 176.876 13.4907 177.281 13.256C177.686 13.0213 178.134 12.8347 178.625 12.696C179.073 12.5787 179.526 12.4987 179.985 12.456C180.444 12.4133 180.86 12.3973 181.233 12.408V12.008C181.233 11.0907 181.089 10.4027 180.801 9.944C180.513 9.47467 180.022 9.24 179.329 9.24C179.084 9.24 178.838 9.27733 178.593 9.352C178.358 9.42667 178.161 9.56 178.001 9.752C177.852 9.93333 177.777 10.1893 177.777 10.52C177.777 10.7227 177.825 10.9413 177.921 11.176C178.028 11.4 178.204 11.56 178.449 11.656C178.342 11.784 178.214 11.8747 178.065 11.928C177.916 11.9707 177.761 11.992 177.601 11.992C177.206 11.992 176.892 11.848 176.657 11.56C176.433 11.2613 176.321 10.9307 176.321 10.568C176.321 9.93867 176.604 9.45867 177.169 9.128C177.734 8.79733 178.497 8.632 179.457 8.632C180.577 8.632 181.398 8.91467 181.921 9.48C182.454 10.0347 182.721 10.904 182.721 12.088V15.192C182.721 15.7573 182.908 16.04 183.281 16.04C183.356 16.04 183.441 16.0187 183.537 15.976C183.644 15.9227 183.729 15.8427 183.793 15.736C183.857 15.832 183.9 15.928 183.921 16.024C183.953 16.1093 183.969 16.1947 183.969 16.28C183.969 16.5253 183.857 16.7333 183.633 16.904C183.409 17.0747 183.126 17.16 182.785 17.16ZM178.657 16.184C178.945 16.1733 179.244 16.0827 179.553 15.912C179.862 15.7307 180.145 15.4907 180.401 15.192C180.657 14.8933 180.865 14.552 181.025 14.168C181.185 13.784 181.27 13.3787 181.281 12.952C181.036 12.9413 180.769 12.9467 180.481 12.968C180.204 12.9787 179.926 13.0107 179.649 13.064C179.382 13.1173 179.142 13.192 178.929 13.288C178.492 13.448 178.15 13.672 177.905 13.96C177.66 14.248 177.537 14.5947 177.537 15C177.537 15.3093 177.622 15.592 177.793 15.848C177.964 16.0933 178.252 16.2053 178.657 16.184ZM188.383 17.192C188.138 17.192 187.935 17.1173 187.775 16.968C187.615 16.808 187.535 16.5947 187.535 16.328V10.584C187.524 10.2853 187.487 10.0773 187.423 9.96C187.359 9.832 187.247 9.768 187.087 9.768C187.034 9.768 186.964 9.784 186.879 9.816C186.794 9.83733 186.724 9.896 186.671 9.992C186.543 9.82133 186.479 9.64533 186.479 9.464C186.479 9.21867 186.564 9.02133 186.735 8.872C186.916 8.72267 187.172 8.648 187.503 8.648C187.93 8.648 188.255 8.792 188.479 9.08C188.714 9.368 188.831 9.8 188.831 10.376V11.368L188.575 11.704C188.65 11.064 188.815 10.5147 189.071 10.056C189.327 9.59733 189.663 9.24533 190.079 9C190.506 8.75467 190.996 8.632 191.551 8.632C192.436 8.632 193.087 8.91467 193.503 9.48C193.919 10.0347 194.127 10.856 194.127 11.944V15.08C194.138 15.3467 194.159 15.6453 194.191 15.976C194.223 16.3067 194.282 16.6 194.367 16.856C194.271 16.952 194.154 17.032 194.015 17.096C193.887 17.16 193.727 17.192 193.535 17.192C193.29 17.192 193.087 17.1227 192.927 16.984C192.767 16.8347 192.687 16.6373 192.687 16.392V12.136C192.676 11.2613 192.559 10.5947 192.335 10.136C192.122 9.67733 191.716 9.448 191.119 9.448C190.863 9.448 190.607 9.51733 190.351 9.656C190.095 9.784 189.86 9.99733 189.647 10.296C189.444 10.584 189.279 10.968 189.151 11.448C189.034 11.9173 188.975 12.488 188.975 13.16C188.975 13.7787 188.975 14.2907 188.975 14.696C188.975 15.1013 188.98 15.4373 188.991 15.704C189.012 15.96 189.039 16.1787 189.071 16.36C189.103 16.5307 189.151 16.7013 189.215 16.872C189.151 16.9253 189.044 16.9893 188.895 17.064C188.756 17.1493 188.586 17.192 188.383 17.192ZM200.849 17.208C200.295 17.208 199.836 17.096 199.473 16.872C199.121 16.6373 198.844 16.328 198.641 15.944C198.439 15.56 198.295 15.1387 198.209 14.68C198.124 14.2107 198.081 13.7467 198.081 13.288C198.081 11.8267 198.369 10.6853 198.945 9.864C199.532 9.04267 200.369 8.632 201.457 8.632C202.001 8.632 202.455 8.73867 202.817 8.952C203.191 9.16533 203.452 9.464 203.601 9.848V7.992C203.601 7.58667 203.585 7.18133 203.553 6.776C203.521 6.36 203.457 5.98133 203.361 5.64C203.425 5.576 203.527 5.50667 203.665 5.432C203.815 5.34667 203.991 5.304 204.193 5.304C204.439 5.304 204.641 5.37333 204.801 5.512C204.961 5.65067 205.041 5.848 205.041 6.104L205.025 15.192C205.025 15.48 205.068 15.6933 205.153 15.832C205.249 15.96 205.377 16.024 205.537 16.024C205.591 16.024 205.66 16.0133 205.745 15.992C205.841 15.96 205.911 15.896 205.953 15.8C206.028 15.8853 206.076 15.976 206.097 16.072C206.129 16.168 206.145 16.2533 206.145 16.328C206.145 16.5733 206.044 16.7707 205.841 16.92C205.639 17.0587 205.383 17.128 205.073 17.128C204.593 17.128 204.236 16.936 204.001 16.552C203.777 16.1573 203.665 15.6133 203.665 14.92V13.624L204.017 13.512C203.953 14.0667 203.836 14.568 203.665 15.016C203.505 15.464 203.292 15.8533 203.025 16.184C202.769 16.5147 202.46 16.7707 202.097 16.952C201.735 17.1227 201.319 17.208 200.849 17.208ZM201.249 16.344C201.623 16.344 201.953 16.232 202.241 16.008C202.54 15.7733 202.785 15.4587 202.977 15.064C203.18 14.6693 203.329 14.216 203.425 13.704C203.532 13.192 203.585 12.6533 203.585 12.088C203.585 11.768 203.559 11.4533 203.505 11.144C203.452 10.824 203.361 10.536 203.233 10.28C203.105 10.024 202.919 9.82133 202.673 9.672C202.428 9.52267 202.113 9.448 201.729 9.448C201.047 9.448 200.524 9.77333 200.161 10.424C199.809 11.064 199.633 12.0027 199.633 13.24C199.633 13.6453 199.649 14.0347 199.681 14.408C199.724 14.7813 199.804 15.1173 199.921 15.416C200.039 15.704 200.204 15.9333 200.417 16.104C200.631 16.264 200.908 16.344 201.249 16.344ZM212.011 17.192C211.829 17.192 211.664 17.1493 211.515 17.064C211.365 16.9893 211.259 16.856 211.195 16.664L209.067 9.864C209.035 9.768 208.987 9.64 208.923 9.48C208.859 9.30933 208.779 9.176 208.683 9.08C208.757 8.984 208.859 8.904 208.987 8.84C209.125 8.76533 209.301 8.728 209.515 8.728C209.739 8.728 209.925 8.776 210.075 8.872C210.235 8.968 210.336 9.11733 210.379 9.32L212.251 16.168L213.835 9.832C213.856 9.75733 213.872 9.672 213.883 9.576C213.904 9.46933 213.915 9.368 213.915 9.272C213.915 9.18667 213.909 9.112 213.899 9.048C213.888 8.984 213.861 8.92533 213.819 8.872C213.968 8.81867 214.128 8.78133 214.299 8.76C214.48 8.728 214.645 8.70667 214.795 8.696C214.997 8.696 215.189 8.73333 215.371 8.808C215.552 8.872 215.669 9 215.723 9.192L217.515 16.168L219.195 9.832C219.216 9.74667 219.237 9.656 219.259 9.56C219.28 9.464 219.291 9.368 219.291 9.272C219.291 9.18667 219.28 9.112 219.259 9.048C219.248 8.984 219.227 8.92533 219.195 8.872C219.291 8.82933 219.392 8.79733 219.499 8.776C219.616 8.744 219.76 8.728 219.931 8.728C220.219 8.728 220.427 8.78133 220.555 8.888C220.693 8.99467 220.757 9.16 220.747 9.384C220.747 9.48 220.731 9.60267 220.699 9.752C220.677 9.90133 220.64 10.0453 220.587 10.184L218.299 16.952C218.128 17.0373 217.963 17.096 217.803 17.128C217.643 17.1707 217.483 17.192 217.323 17.192C217.141 17.192 216.965 17.1493 216.795 17.064C216.635 16.9893 216.533 16.856 216.491 16.664L214.795 10.216L213.067 16.952C212.896 17.0373 212.72 17.096 212.539 17.128C212.357 17.1707 212.181 17.192 212.011 17.192ZM227.563 17.208C226.39 17.208 225.472 16.8347 224.811 16.088C224.16 15.3307 223.835 14.28 223.835 12.936C223.835 11.5813 224.16 10.5253 224.811 9.768C225.472 9.01067 226.39 8.632 227.563 8.632C228.736 8.632 229.648 9.01067 230.299 9.768C230.95 10.5253 231.275 11.5813 231.275 12.936C231.275 14.28 230.95 15.3307 230.299 16.088C229.648 16.8347 228.736 17.208 227.563 17.208ZM227.563 16.6C228.267 16.6 228.8 16.2853 229.163 15.656C229.536 15.0267 229.723 14.12 229.723 12.936C229.723 11.7413 229.536 10.8293 229.163 10.2C228.8 9.56 228.267 9.24 227.563 9.24C226.848 9.24 226.304 9.56 225.931 10.2C225.568 10.8293 225.387 11.7413 225.387 12.936C225.387 14.12 225.568 15.0267 225.931 15.656C226.304 16.2853 226.848 16.6 227.563 16.6ZM236.312 17.16C236.099 17.16 235.907 17.0853 235.736 16.936C235.565 16.776 235.48 16.5627 235.48 16.296V10.584C235.48 10.2853 235.443 10.0773 235.368 9.96C235.304 9.832 235.192 9.768 235.032 9.768C234.979 9.768 234.909 9.784 234.824 9.816C234.739 9.83733 234.669 9.896 234.616 9.992C234.488 9.82133 234.424 9.64533 234.424 9.464C234.424 9.21867 234.509 9.02133 234.68 8.872C234.861 8.72267 235.117 8.648 235.448 8.648C235.875 8.648 236.2 8.80267 236.424 9.112C236.659 9.41067 236.771 9.86933 236.76 10.488V11.416L236.568 11.384C236.685 10.4773 236.941 9.79467 237.336 9.336C237.741 8.86667 238.253 8.632 238.872 8.632C239.427 8.632 239.88 8.78133 240.232 9.08C240.584 9.368 240.76 9.784 240.76 10.328C240.76 10.6907 240.659 10.9893 240.456 11.224C240.253 11.4587 240.019 11.5813 239.752 11.592C239.453 11.6027 239.235 11.5333 239.096 11.384C239.235 11.192 239.32 11.0213 239.352 10.872C239.384 10.712 239.4 10.5413 239.4 10.36C239.4 10.0293 239.325 9.78933 239.176 9.64C239.027 9.48 238.808 9.4 238.52 9.4C238.243 9.4 237.981 9.528 237.736 9.784C237.491 10.0293 237.293 10.4293 237.144 10.984C236.995 11.528 236.92 12.2533 236.92 13.16C236.92 13.768 236.92 14.2747 236.92 14.68C236.931 15.0747 236.941 15.4053 236.952 15.672C236.963 15.928 236.984 16.1467 237.016 16.328C237.048 16.4987 237.096 16.664 237.16 16.824C237.096 16.888 236.989 16.9573 236.84 17.032C236.701 17.1067 236.525 17.1493 236.312 17.16ZM245.356 17.192C245.036 17.192 244.817 17.112 244.7 16.952C244.593 16.7813 244.54 16.5733 244.54 16.328V6.104C244.529 5.848 244.604 5.65067 244.764 5.512C244.924 5.37333 245.127 5.304 245.372 5.304C245.585 5.304 245.761 5.34667 245.9 5.432C246.039 5.50667 246.14 5.576 246.204 5.64C246.14 5.91733 246.097 6.17333 246.076 6.408C246.055 6.64267 246.033 6.86667 246.012 7.08C246.001 7.28267 245.996 7.496 245.996 7.72C245.996 7.93333 245.985 8.16267 245.964 8.408L245.948 11.4L245.852 11.272C246.001 10.7387 246.22 10.28 246.508 9.896C246.807 9.50133 247.169 9.192 247.596 8.968C248.023 8.744 248.508 8.632 249.052 8.632C249.724 8.632 250.225 8.80267 250.556 9.144C250.887 9.48533 251.052 9.92267 251.052 10.456C251.052 10.8933 250.94 11.288 250.716 11.64C250.503 11.9813 250.225 12.28 249.884 12.536C249.553 12.792 249.196 13.0107 248.812 13.192C248.951 13.2453 249.068 13.336 249.164 13.464C249.271 13.5813 249.377 13.72 249.484 13.88L250.332 15.384C250.449 15.5867 250.545 15.736 250.62 15.832C250.705 15.9173 250.823 15.96 250.972 15.96C251.025 15.96 251.095 15.9493 251.18 15.928C251.265 15.896 251.345 15.8427 251.42 15.768C251.495 15.8427 251.548 15.9227 251.58 16.008C251.612 16.0933 251.628 16.1787 251.628 16.264C251.628 16.5307 251.505 16.7547 251.26 16.936C251.025 17.1067 250.759 17.192 250.46 17.192C250.172 17.192 249.911 17.1067 249.676 16.936C249.441 16.7653 249.255 16.5147 249.116 16.184L247.82 13.528C247.489 13.6453 247.164 13.752 246.844 13.848C246.535 13.9333 246.247 14.008 245.98 14.072C245.98 14.5307 245.98 14.9147 245.98 15.224C245.98 15.5227 245.985 15.768 245.996 15.96C246.017 16.1413 246.044 16.3013 246.076 16.44C246.119 16.568 246.167 16.712 246.22 16.872C246.135 16.9467 246.023 17.016 245.884 17.08C245.756 17.1547 245.58 17.192 245.356 17.192ZM245.98 13.464C246.407 13.336 246.833 13.1867 247.26 13.016C247.697 12.8347 248.087 12.6267 248.428 12.392C248.78 12.1573 249.057 11.8907 249.26 11.592C249.473 11.2827 249.58 10.9307 249.58 10.536C249.58 10.1413 249.479 9.864 249.276 9.704C249.084 9.53333 248.839 9.448 248.54 9.448C248.039 9.448 247.591 9.624 247.196 9.976C246.812 10.3173 246.513 10.792 246.3 11.4C246.087 11.9973 245.98 12.6853 245.98 13.464Z" fill="white"/>
<circle cx="256.802" cy="37.3349" r="4.08486" stroke="white" stroke-width="0.5"/>
<path d="M253.137 37H118.074L0.136719 114" stroke="white" stroke-width="0.5"/>
</svg>
