<svg width="231" height="8" viewBox="0 0 231 8" fill="none" xmlns="http://www.w3.org/2000/svg">
<path d="M2.1557 2.74077C3.44034 2.6081 5.15106 2.59758 6.44382 2.63632C6.85021 2.64807 6.65001 2.78954 6.93716 2.80342C7.47414 2.83157 8.00369 2.74395 8.52981 2.78338C8.7064 2.79701 8.49609 3.01589 8.68162 3.02537C9.73362 3.07441 10.6927 2.98248 11.7229 2.98705C16.8725 3.00775 21.9099 2.91977 27.0737 2.85838C28.7959 2.83741 30.8562 2.96766 32.6348 2.834C32.8443 2.81815 32.714 2.63752 32.7535 2.62121C33.3739 2.37112 33.1662 2.7491 33.5664 2.7873C35.1598 2.93783 36.9177 2.90697 38.4745 2.79458C39.1311 2.74639 38.4673 2.39784 39.1204 2.58609C39.1656 2.59879 39.0079 2.79867 39.1845 2.81489C39.5841 2.8513 40.351 2.79631 40.6691 2.8036C41.2777 2.81873 41.3963 2.81371 41.9597 2.80152C42.7282 2.78662 43.6607 2.86035 44.5152 2.79473C44.6976 2.78014 44.4505 2.58565 44.7414 2.54428C44.7784 2.53903 44.8232 2.53442 44.8737 2.53044C45.2031 2.50353 45.7993 2.50696 46.0222 2.54274C46.2769 2.58376 46.1729 2.74403 46.2187 2.77904C46.5943 3.07482 47.4696 2.63065 47.5856 2.61734C49.6183 2.38911 51.4424 2.58503 53.3289 2.53823C54.8039 2.50113 56.3608 2.38376 57.7546 2.36082C59.4522 2.33338 60.808 2.40932 62.4453 2.35116C62.6174 2.34528 62.4099 2.11438 62.6203 2.10671C64.8141 2.0264 67.0524 1.99845 69.2223 2.10594C69.4429 2.11685 69.164 2.33062 69.3847 2.3539C70.7424 2.49171 72.8909 2.84955 73.6648 1.92947C74.5749 1.9431 75.7074 1.9527 76.522 2.11525C77.0477 2.21983 76.5446 2.45733 77.1857 2.34593C77.3305 2.32107 77.1369 2.12804 77.3544 2.10568C78.2704 2.01175 79.282 2.05218 80.2001 1.92854C80.3869 1.90292 80.3316 1.72717 80.384 1.69406C80.8248 1.42551 81.559 1.83513 81.7211 1.86235C82.9424 2.06503 83.8346 1.95317 84.9814 1.93209C85.2478 1.92729 84.9274 1.69694 85.1835 1.68378C86.4905 1.61925 87.8541 1.60801 89.154 1.68344C89.4432 1.70079 89.1825 1.9094 89.3209 1.92805C89.933 2.00779 90.0551 1.62234 90.6345 1.69163C90.7566 1.70574 90.692 1.88066 90.7147 1.89918C91.0691 2.18998 91.362 1.75958 91.4513 1.74817C92.582 1.59429 93.3198 2.01957 94.4215 1.93164C94.5534 1.92068 94.2506 1.7082 94.6216 1.69078C97.0632 1.57416 99.6822 1.57469 102.112 1.69516C102.491 1.71356 102.224 1.88443 102.249 1.9042C102.644 2.21275 102.886 1.78186 103.009 1.76305C103.983 1.62569 104.899 1.96179 105.547 1.44049C109.675 1.52336 113.771 1.14763 117.868 1.51151C117.92 1.51563 117.832 1.72708 117.936 1.73439C119.187 1.82456 118.94 1.50436 119.758 1.08821C119.964 0.983696 120.607 1.45043 120.664 1.48444C120.871 1.60979 120.666 1.92597 120.735 1.94961C121.305 2.13468 121.19 1.10637 121.953 1.08942C121.977 1.09062 121.881 1.28244 121.945 1.29991C122.145 1.35477 122.341 1.27513 122.537 1.33618C122.985 1.47755 123.155 1.97474 123.828 1.66863C123.913 1.62895 123.769 1.04736 124.452 1.06019C124.724 1.06579 125.927 1.02979 126.264 1.06042C126.602 1.091 126.375 1.28431 126.399 1.29195C127.31 1.52147 126.969 1.63209 127.431 1.99104C127.892 2.34861 127.747 1.47523 127.93 1.37348C128.114 1.27199 128.78 1.46328 128.946 1.53118C129.112 1.59914 128.91 1.72318 129.057 1.76051C130.027 2.00408 129.471 1.3166 129.786 1.17075C130.527 0.825517 131.124 1.46281 131.809 1.51195C131.994 1.52521 131.84 1.38044 132.005 1.36311C132.656 1.2964 133.05 1.49088 133.79 1.28927C133.912 1.2564 134.506 0.853052 134.902 1.13152C134.958 1.17169 134.804 1.3369 135.084 1.36729C135.502 1.41295 136.252 1.4326 136.697 1.36913C137.026 1.32219 136.643 1.06331 137.059 1.13751C137.244 1.17066 136.906 1.33387 137.253 1.38314C137.599 1.4324 138.474 1.40729 138.815 1.39482C139.151 1.38231 138.963 1.18378 138.99 1.16958C139.153 1.08805 139.796 0.977074 139.853 0.976139C142.713 0.892099 145.378 1.17885 148.152 1.01003C148.373 0.99702 148.222 0.786573 148.255 0.782388C149.008 0.677803 148.425 1.25715 148.955 1.43649C148.87 1.00496 149.183 1.07712 149.711 1.01904C149.965 0.9907 149.823 0.825793 149.846 0.808162C150.219 0.545914 150.488 0.869653 150.557 0.935602C150.811 1.17818 151.076 0.880281 151.249 1.04238C151.422 1.20325 151.037 1.45446 151.541 1.44132C151.679 1.2835 151.297 0.885811 151.678 0.812562C153.116 0.535506 155.854 0.799857 157 0.810801C158.177 0.821042 158.553 0.785256 159.233 0.828277C160.458 0.906215 160.004 0.61421 160.757 0.462268C161.511 0.310382 161.157 1.0569 161.269 1.21383C161.378 1.37073 161.492 1.20494 161.63 1.28973C161.766 1.37452 161.476 1.48813 161.794 1.51494C162.113 1.54169 162.972 1.24276 163.08 1.07446C163.31 0.717869 162.916 0.355449 163.75 0.469819C163.798 0.476637 163.647 0.673986 163.83 0.690235C165.274 0.813114 166.8 0.794398 168.253 0.900622C168.453 0.915542 168.279 1.13509 168.395 1.14622C169.601 1.26295 169.163 0.905934 169.812 0.489007C169.673 1.03091 170.043 1.35428 170.974 1.34102C171.531 1.33331 171.431 1.09949 171.786 0.927203C171.893 0.875274 172.286 1.03016 172.355 0.918177C172.581 0.552075 172.209 0.15307 173.152 0.298162C173.193 0.305119 173.066 0.505576 173.208 0.515119C174.122 0.577938 174.238 0.197097 175.249 0.134045C176.048 0.0844739 177.421 0.292566 178.325 0.315382C178.316 0.921963 179.172 0.769143 179.509 0.345605C180.093 0.353311 180.716 0.319753 181.269 0.368858C181.46 0.385572 181.337 0.563074 181.362 0.581664C181.729 0.873518 181.986 0.462721 182.113 0.444809C183.294 0.294045 184.271 0.485089 185.312 0.344633C185.5 0.320553 185.688 0.286846 185.88 0.240182C185.927 0.228658 185.998 -0.193632 186.353 0.108841C186.376 0.129716 185.946 0.327542 186.563 0.333526C187.189 0.339413 188.296 0.549758 189.161 0.342999C189.37 0.293192 189.893 -0.0557194 190.312 0.206016C190.368 0.24157 190.309 0.363151 190.39 0.429329C190.651 0.64016 190.786 0.212649 191.091 0.570479C191.397 0.928304 192.014 1.19134 192.889 0.931286C192.916 0.923703 193.117 0.583828 193.386 0.58599C193.817 0.589708 194.419 0.653093 194.854 0.646059C195.063 0.642567 194.927 0.434532 194.963 0.430297C196.462 0.2964 197.399 0.473549 198.999 0.539981C199.288 0.552614 200.082 0.259933 200.628 0.481484C201.244 0.723951 200.634 1.7571 202.019 1.50179C202.567 1.39986 203.263 0.0899428 204.281 0.760451C206.196 0.58241 208.042 0.922252 209.966 0.682976C210.056 0.67237 210.339 0.308201 210.545 0.313324C210.852 0.321627 211.018 0.492096 211.232 0.503652C212.151 0.556483 212.972 0.413662 213.873 0.441409C214.212 0.451641 214.094 0.626902 214.491 0.639372C214.88 0.651767 215.15 0.421931 215.7 0.538891C216.116 0.628119 216.486 1.10563 217.052 1.16783C217.08 0.700899 217.453 0.714751 218.107 0.601289C218.239 0.579376 218.1 0.414577 218.163 0.395824C218.417 0.315905 218.644 0.45448 218.876 0.367286C218.932 0.346359 218.937 0.18684 218.983 0.160734C219.354 -0.0679277 220.039 0.305387 220.136 0.370235C220.541 0.616705 220.765 0.414574 221.089 0.516484C221.411 0.61853 220.923 0.722421 221.3 0.78923C222.086 0.927587 223.104 0.935645 223.905 0.978044C224.226 0.994053 224.017 0.771633 224.063 0.768981C224.716 0.743516 225.385 1.00727 225.776 0.606423C226.16 1.73081 226.177 0.521376 227.114 0.814047C227.185 0.837654 227.236 1.36203 226.951 1.41584C226.657 1.46891 226.248 1.27694 225.837 1.37035C225.751 1.39241 225.173 1.84579 225.105 1.87197C224.538 2.07207 224.476 1.29411 224.449 1.24993C224.146 0.774746 223.436 1.26948 223.279 1.30001C222.473 1.43496 221.795 1.30557 221.149 1.40675C220.719 1.47203 220.639 1.97829 220.315 1.95517C219.192 1.8789 218.814 1.16401 217.73 1.76223C217.502 1.89019 217.73 2.44793 216.909 2.00109C216.85 1.97279 216.253 1.56658 215.904 1.8159C215.859 1.84732 215.859 2.0091 215.801 2.02213C215.416 2.10642 215.121 1.97506 214.72 2.03384C214.307 2.09254 213.785 2.18137 213.291 2.12418C213.009 2.09001 212.638 1.78718 212.498 1.71292C212.107 1.49895 211.652 1.84642 211.422 1.58858C211.181 1.32945 211.655 0.937299 211.019 0.769141C210.995 1.18942 210.94 1.62075 210.901 2.0434C209.465 2.02689 208.056 1.89325 206.659 1.91668C206.482 1.92003 206.664 2.14534 206.474 2.15477C205.662 2.19367 204.972 2.03584 204.147 2.1046C203.5 2.15875 202.786 2.40257 202.131 2.4675C201.735 1.98927 200.68 2.16057 199.993 2.12253C199.744 2.10946 199.759 1.98088 199.58 1.94052C198.902 1.79149 199.222 2.21372 199.036 2.28227C198.241 2.575 198.122 1.61406 197.212 1.64684C197.164 1.64824 196.564 2.16716 196.479 2.2C195.946 2.41381 196.389 2.02244 196.052 1.9881C195.437 1.92539 194.986 1.80786 194.295 1.96592C194.09 2.01274 193.597 2.33807 193.185 2.09574C193.131 2.064 193.159 1.89417 193.115 1.88476C192.329 1.7287 192.302 2.26171 191.86 2.44756C191.431 2.63321 190.746 2.27429 190.605 2.17016C190.237 1.90078 190.883 2.04942 190.901 2.0223C191.127 1.69927 190.633 1.76068 190.248 1.73865C190.187 1.2172 189.647 1.25565 189.849 1.71794C189.872 1.76842 190.171 1.71579 190.248 1.73865C189.92 2.25531 189.321 2.32883 188.655 1.85907C188.354 1.63877 188.636 1.37317 187.726 1.48149C187.311 1.53048 187.477 1.88775 187.109 1.99097C186.588 2.13685 185.959 2.06995 185.337 2.01375C184.974 1.97891 184.615 1.94809 184.287 1.97313C183.973 1.99701 184.282 2.18922 184.068 2.21234C183.498 2.27431 182.988 2.1344 182.404 2.21908C182.351 2.227 182.483 2.431 182.301 2.43644C180.928 2.48165 179.786 2.36788 178.335 2.38794C177.638 2.39764 176.446 2.5311 175.727 2.52041C174.477 2.50307 172.976 2.22933 171.925 2.32054C171.239 2.37918 171.392 2.5826 171.099 2.72819C170.529 3.01042 169.513 2.54095 169.383 2.4678C169.379 2.46537 169.961 2.4064 169.648 2.30618C169.463 2.08902 169.389 2.46673 169.383 2.4678C169.295 2.42057 168.123 2.39486 167.888 2.43854C167.761 2.46237 167.836 2.65629 167.77 2.66502C166.18 2.86857 164.621 2.94693 163.015 2.88568C162.987 2.88226 163.026 2.66311 162.959 2.65781C162.028 2.57813 161.426 2.8567 160.679 3.02952C159.924 3.20242 159.318 3.1609 158.858 2.79473C158.282 2.85297 157.444 2.70335 156.964 2.61206C156.492 2.52062 156.433 2.94695 156.392 2.95615C155.101 3.25028 154.342 3.02177 152.978 3.01079C152.323 3.00496 151.068 3.09154 150.369 3.15201C149.819 3.20044 149.484 3.10749 148.976 3.18141C148.907 3.1913 148.98 3.37914 148.959 3.38685C148.395 3.62471 148.659 3.15658 148.54 3.07631C148.107 2.78443 147.839 2.62972 147.122 2.78562C146.957 2.82135 146.485 3.49731 146.181 3.54244C145.786 3.59991 145.931 3.3581 145.517 3.42438C145.482 3.42983 145.492 3.57698 145.236 3.5757C144.043 3.57176 142.739 3.51274 141.51 3.55287C141.342 3.5578 141.563 3.78698 141.319 3.79795C140.179 3.84919 138.91 3.8669 137.799 3.78069C137.525 3.75875 137.693 3.59158 137.633 3.54425C137.262 3.25796 136.753 3.69583 136.668 3.70576C134.631 3.95376 133.056 3.60041 130.982 3.82863C130.869 3.84184 130.006 4.31822 129.608 3.93396C129.581 3.90841 129.187 3.51497 128.851 3.79692C128.83 3.81455 129.074 4.01621 128.656 4.00409C128.238 3.99201 127.568 4.14453 126.988 3.9297C126.805 3.86204 126.366 3.47062 125.829 3.80175C125.794 3.82481 124.971 4.56514 124.66 4.07335C124.61 3.99238 124.649 3.46397 124.006 3.7484C123.883 3.8035 124.11 3.91624 123.785 3.99676C123.288 4.12078 122.623 3.99394 122.014 4.24222C121.908 4.28614 121.459 4.65398 121.087 4.39032C121.029 4.34903 121.134 4.17061 120.94 4.15513C120.019 4.0807 119.058 4.21956 118.122 4.11826C117.79 4.08272 117.953 3.79442 117.607 3.72573C117.26 3.65707 116.564 3.59903 116.207 3.73704C115.849 3.8751 116.253 4.31997 115.713 4.36819C113.369 4.57766 111.033 4.36343 108.688 4.377C108.339 4.37899 108.631 4.53482 108.118 4.54941C106.226 4.60384 102.967 4.82966 101.318 4.52209C99.9994 4.27568 101.646 4.02789 100.641 3.93826C100.156 3.89563 99.6456 4.43483 99.5295 4.45408C98.3858 4.64884 97.5843 4.43344 96.5584 4.52861C96.3466 4.54834 96.5595 4.7573 96.3792 4.77173C95.7628 4.82292 95.117 4.74228 94.5266 4.77329C94.2606 4.78772 94.3134 4.94983 94.0684 4.94285C93.4822 4.92804 92.964 4.87132 92.3921 4.73142C92.34 4.71867 92.6846 4.50757 92.2531 4.50995C91.5547 4.51439 90.6887 4.38338 89.8934 4.55772C89.6545 4.61015 89.6535 4.98344 89.1327 4.73772C89.0236 4.68641 89.1505 4.23526 88.5608 4.63619C88.4613 4.70285 87.4695 5.24822 86.9715 4.92308C86.84 4.83752 86.5013 4.47862 86.2175 4.54287C86.1791 4.55296 86.3386 4.74974 86.1028 4.77478C85.2789 4.85939 84.386 4.85881 83.5278 4.94166C83.2983 4.96419 83.6456 5.16354 83.3034 5.1905C82.3594 5.265 81.2018 5.23928 80.2733 5.19614C79.9308 5.17985 80.1631 5.00253 80.1378 4.98442C79.7306 4.68978 79.5046 5.1057 79.3728 5.13274C78.5535 5.29537 77.926 5.11726 77.1766 5.18598C76.9698 5.20442 77.1212 5.39663 77.0804 5.41505C76.6574 5.59561 76.9672 5.2367 76.6961 5.20433C75.9441 5.11234 75.0697 5.14875 74.3015 5.19196C74.018 5.20815 74.3422 5.42749 74.0878 5.4394C72.5894 5.51402 71.023 5.52953 69.5454 5.43962C69.2686 5.42225 69.4382 5.24339 69.3797 5.20486C68.9761 4.93514 68.4073 5.32976 68.2756 5.3692C67.6774 5.54922 67.4392 5.40033 66.8934 5.44225C64.255 5.64906 61.0153 5.62474 58.5352 5.62165C55.2912 5.61893 52.8243 5.51286 49.6983 5.63291C49.5035 5.64022 49.7056 5.86781 49.538 5.8771C48.0535 5.95326 46.4299 5.95956 44.9597 5.99657C44.3106 6.0129 43.6687 6.0351 43.0325 6.07088C42.8544 6.08049 43.1167 6.29432 42.8314 6.31714C42.2498 6.36542 41.5083 6.37242 40.8978 6.31783C40.6036 6.29153 40.9919 6.09228 40.6962 6.06967C40.0053 6.01665 39.2923 6.01963 38.5938 6.0735C38.2904 6.09707 38.7545 6.31024 38.3601 6.32332C35.7244 6.41577 33.1145 6.52692 30.4651 6.31201C30.2775 6.29742 30.0995 5.84427 29.7094 5.94362C29.6835 6.07158 29.6896 6.22102 29.6807 6.35724C25.831 6.54374 22.0611 6.50325 18.1874 6.61255C18.0261 6.61715 18.3127 6.8501 18.0013 6.86023C16.1722 6.92018 14.4421 7.05007 12.5607 6.88066C12.3829 6.86389 12.4539 6.43372 11.9047 6.51963C11.7996 6.53545 11.0127 6.6233 10.7906 6.72499C10.7619 6.74013 10.9224 6.93321 10.6528 6.94977C9.12883 7.04089 7.52253 7.06269 5.98203 7.01034C5.72979 7.0017 5.98726 6.77756 5.80841 6.76953C4.54809 6.71393 3.2357 6.93846 2.01386 6.81058C1.20852 6.72409 1.4988 6.34102 1.04522 6.00473C1.00311 5.95589 0.481232 5.97845 0.452889 5.7699C0.355722 5.24641 0.559014 4.65447 0.425702 4.09826C0.412273 3.97691 -0.270786 4.15175 0.121333 3.83267C0.132377 3.81201 0.622277 3.68485 0.737236 3.57883C0.821214 3.50511 0.656011 3.30057 0.820873 3.20291C0.9726 3.10614 1.18318 3.27367 1.45263 3.15539C1.75179 3.03438 1.5738 2.80021 2.1557 2.74077ZM154.826 2.20407C154.381 2.00858 154.331 2.75745 154.804 2.56925C154.827 2.55927 154.848 2.21364 154.826 2.20407ZM208.086 1.3301C207.485 1.00158 207.123 1.48772 207.514 1.74132C207.923 1.99466 208.266 1.42973 208.086 1.3301ZM214.053 1.09891C213.372 0.834976 213.257 1.89476 213.991 1.68449C214.033 1.67262 214.093 1.11425 214.053 1.09891ZM3.00525 5.79725C3.00615 5.78723 2.63912 5.79621 2.63183 5.80648C2.45246 6.0534 3.1729 6.03592 3.00525 5.79725ZM219.971 0.912431C219.769 0.764414 219.14 0.917848 219.406 1.10141C219.624 1.24895 220.227 1.09641 219.971 0.912431ZM131.835 1.87646C131.828 1.86547 131.573 1.86086 131.579 1.92372C131.601 2.12617 131.955 2.06138 131.835 1.87646ZM229.973 1.5238C228.522 1.2907 227.7 0.335559 229.313 0.614749C229.604 0.667675 228.65 0.817263 229.014 0.939782C229.674 1.16254 230.199 0.680941 230.849 1.07008C230.966 1.1409 230.057 1.53859 229.97 1.52467C229.971 1.52438 229.972 1.52409 229.973 1.5238ZM154.554 1.31108C154.545 1.30136 154.191 1.29893 154.183 1.3089C153.996 1.55 154.709 1.55504 154.554 1.31108ZM116.927 1.73673C116.907 1.7161 116.086 1.71447 116.06 1.73447C115.641 2.132 117.3 2.13643 116.927 1.73673ZM178.339 0.33132C178.728 0.0861158 179.194 0.0504483 179.507 0.345329C179.122 0.335613 178.732 0.339599 178.339 0.33132Z" fill="white"/>
</svg>
