<svg width="288" height="240" viewBox="0 0 288 240" fill="none" xmlns="http://www.w3.org/2000/svg">
<g opacity="0.25" filter="url(#filter0_f_1_5478)">
<path d="M45.4318 59.9997C47.9939 61.2043 50.479 65.2937 51.7132 67.483C51.737 67.5235 51.7608 67.564 51.7847 67.6045C52.0834 68.1271 52.4003 68.5978 52.7667 69.1446C53.6385 70.4511 54.8252 72.2222 56.6069 76.2389C57.3189 77.2487 58.0065 78.2548 58.6881 79.2871C58.7037 79.3107 58.7193 79.3344 58.7348 79.358C65.5904 89.6945 70.2142 101.633 73.0331 112.866C73.6509 115.153 74.1361 117.342 74.5682 119.52C74.6232 119.69 74.6821 119.873 74.7369 120.044C75.8333 123.442 76.9979 127.634 77.148 130.373C77.3429 133.853 77.2696 136.218 77.1815 138.16C77.3899 140.315 77.5741 142.465 77.7401 144.608C78.3792 153.62 78.786 163.217 75.4221 173.413C74.1275 177.32 71.9551 181.123 70.2544 183.885C69.8041 184.634 69.4061 185.309 69.0934 185.896C67.9153 188.087 66.6304 190.143 65.3627 192.062C64.497 193.769 63.7278 195.339 63.0887 196.718C62.1837 198.658 61.5607 200.207 61.0479 201.284C60.7756 201.851 60.5077 202.384 60.26 202.879C60.5862 202.199 60.5097 202.115 60.4617 202.261C60.4002 202.413 60.3121 202.792 60.242 203.24C60.0977 204.149 60.0056 205.328 59.9606 206.402C59.9416 206.854 59.9302 207.292 59.9266 207.705C60.0714 208.548 60.2346 209.414 60.4097 210.299C60.4431 209.322 59.437 207.058 58.2844 206.164C57.1944 205.233 56.7723 205.218 57.2861 205.294C57.3218 205.354 57.3683 205.418 57.4255 205.486C57.4328 205.546 57.4421 205.608 57.4537 205.671C57.7557 207.119 59.4944 207.47 62.6008 207.026C62.6221 207.023 62.643 207.02 62.6637 207.016C63.2698 206.894 63.6249 206.788 64.3774 206.284C64.8584 205.943 65.5387 205.924 66.1189 205.868C66.2894 205.85 66.4516 205.826 66.5972 205.783C67.0987 205.632 67.0503 205.038 66.938 204.363C66.7987 203.468 66.5495 202.481 67.5232 201.504C67.98 201.04 68.3487 200.556 68.6409 200.083C70.218 197.629 69.0636 196.194 68.2162 195.286C67.9158 194.962 67.6347 194.676 67.4573 194.364C66.8977 193.389 66.9966 191.545 67.2367 189.79C67.4442 188.443 66.3215 185.828 65.3019 183.647C64.9154 182.83 64.7122 181.652 64.5278 180.233C64.3366 178.766 64.1716 177.056 63.8283 175.228C63.7431 174.78 63.6667 174.344 63.5979 173.921C63.5826 173.983 63.5685 174.104 63.5736 174.331C63.573 174.411 63.5907 174.667 63.6411 174.985C63.6671 175.148 63.7027 175.34 63.7577 175.571C63.7854 175.687 63.818 175.813 63.8578 175.951C63.8814 176.031 63.8876 176.057 63.9342 176.2C63.9794 176.338 64.0319 176.487 64.0947 176.649C64.3535 177.292 64.7319 178.172 65.683 179.31C66.1995 179.898 66.6723 180.411 67.769 181.14C69.0497 181.989 70.879 182.618 72.6054 182.664C74.3399 182.731 75.8262 182.307 76.8643 181.841C77.1272 181.724 77.367 181.603 77.5867 181.482C77.7806 181.374 77.8526 181.331 77.9761 181.256C78.2016 181.118 78.4029 180.982 78.5847 180.85C79.3088 180.322 79.7383 179.881 80.0617 179.528C80.7407 178.749 80.7837 178.62 80.9605 178.375C81.1045 178.161 81.1972 178.008 81.268 177.892C81.4792 177.551 81.5104 177.523 81.5407 177.53C81.5657 177.544 81.5684 177.612 81.5663 177.696C81.5518 178.045 81.4761 178.58 81.428 179.015C81.315 179.94 81.2148 180.746 81.1234 181.478C81.069 181.931 81.0117 182.374 80.961 182.808C80.7962 184.194 80.504 185.92 80.1926 187.705C79.8184 189.846 79.4222 192.046 79.1612 193.902C78.8309 194.76 78.4948 195.614 78.0523 196.658C77.9547 197.066 77.3554 198.149 77.1891 198.534C75.9059 200.233 74.927 201.992 74.2381 204.154C73.8603 205.327 72.8913 206.537 71.4038 207.751C71.4187 207.95 71.3193 208.54 71.3109 208.74C71.2086 209 71.1208 209.237 70.8943 209.851C70.7659 210.162 70.6729 210.519 70.1601 211.487C70.0175 211.747 69.8416 212.042 69.6013 212.38C69.3092 212.792 68.8526 213.37 68.163 213.957C67.6442 214.434 66.0366 215.523 64.2854 215.807C62.4914 216.166 60.5231 215.773 59.2909 215.163C57.2244 214.117 56.6654 213.16 56.2834 212.707C55.8677 212.135 55.7506 211.878 55.6066 211.595C55.4662 211.306 55.413 211.154 55.3516 210.984C55.2929 210.817 55.2553 210.685 55.2293 210.578C55.1165 210.118 55.121 209.898 55.1234 209.683C55.2542 208.395 55.7493 208.063 56.1922 207.547C56.6548 207.084 57.1683 206.716 57.7118 206.402C58.7998 205.777 60.0117 205.385 61.2744 205.201C62.5379 205.02 63.8094 205.06 65.0258 205.264C65.6339 205.364 66.2286 205.506 66.7998 205.654C67.085 205.725 67.3651 205.802 67.6336 205.85C67.8975 205.885 68.1732 205.959 68.3538 205.729C68.3976 205.651 68.4433 205.564 68.4066 205.297C68.3878 205.17 68.3576 204.996 68.1944 204.631C68.098 204.432 68.0207 204.248 67.7162 203.822C67.435 203.485 67.022 202.757 65.4304 201.947C64.4815 201.475 62.9568 201.168 61.5664 201.444C60.2089 201.662 58.9655 202.504 58.5659 202.869C58.0341 203.319 57.6847 203.76 57.4623 204.07C57.2791 204.325 57.146 204.544 57.039 204.735C56.6545 205.445 56.5912 205.673 56.4972 205.868C56.3344 206.246 56.27 206.334 56.1942 206.428L56.1208 207.21C54.7315 205.555 54.0025 203.216 54.2396 200.776C54.6532 196.325 55.9371 191.713 57.9812 187.593L57.2475 189.187C57.3905 188.561 57.5849 187.707 57.7718 186.853C58.9044 181.834 59.7325 177.024 61.8465 170.681C61.9571 170.376 62.0412 170.147 62.2034 169.743C62.2814 169.55 62.3537 169.376 62.4615 169.133C62.5812 168.864 62.718 168.57 62.9072 168.21C63.0309 167.976 63.1902 167.687 63.4037 167.346C63.6595 166.968 63.7394 166.744 64.6435 165.701C65.0721 165.232 65.6324 164.659 66.571 163.997C66.9126 163.732 70.2624 161.429 74.5379 162.099C76.5743 162.341 78.7723 163.503 79.7147 164.281C80.6248 164.981 81.2838 165.703 81.7775 166.347C82.7566 167.645 83.1496 168.625 83.4303 169.374C83.5881 169.82 83.6042 169.894 83.6628 170.089C83.7125 170.261 83.7545 170.42 83.7909 170.569C83.8637 170.867 83.915 171.125 83.9556 171.357C84.0359 171.815 84.0755 172.206 84.0912 172.376C84.1309 172.808 84.1447 173.153 84.1514 173.47C84.184 175.847 84.375 178.109 84.7529 180.588C84.8019 180.911 84.853 181.237 84.9083 181.57C86.0552 184.086 87.4686 187.196 88.1322 190.189C88.6829 192.618 88.4666 194.78 88.1519 196.536C87.9353 197.764 87.6829 198.819 87.5803 199.914C87.5263 200.489 87.4526 201.293 87.3181 202.234C87.1893 203.137 87.006 204.16 86.7372 205.263C85.9852 208.407 84.5069 212.829 81.1223 216.7C79.2056 218.908 76.1151 221.303 72.5924 222.645C69.841 223.725 67.0441 224.084 64.8914 224.128C63.6061 224.108 62.5088 224.109 61.7384 224.245C58.9557 224.743 55.379 224.367 51.9419 223.016C51.7821 222.946 51.5808 222.863 51.3511 222.766C50.0848 222.226 47.7965 221.283 45.7934 219.116C43.7467 216.946 42.9264 214.159 42.6655 212.519C42.5949 212.258 42.5106 212.027 42.4082 211.823C41.7384 210.484 41.8031 209.241 41.9689 207.306C42.0992 205.942 42.2214 204.322 42.4777 201.66C42.7254 199.46 43.2421 197.323 44.618 195.014C44.9528 194.55 45.2784 194.139 45.5901 193.761C47.0941 191.96 48.2492 190.822 49.0684 188.63C49.9886 186.2 51.0695 184.049 52.2324 182.716C52.767 182.106 53.2493 181.344 53.7125 180.562C54.1763 179.781 54.6216 178.979 55.1163 178.261C55.3435 177.906 55.5791 177.575 55.8161 177.281C56.616 176.291 57.5055 175.793 58.2696 175.363C58.5072 175.231 58.7348 175.102 58.9395 174.979C59.3366 174.285 59.6924 173.624 60.0075 172.973C59.9895 172.832 59.9674 172.679 59.9401 172.529C59.8116 171.754 59.6073 170.857 59.6599 169.938C59.7391 168.484 60.3153 167.439 60.8754 166.16C61.3059 165.174 61.7113 164.066 61.7411 162.709C61.7608 161.798 61.6116 160.695 61.4219 159.644C61.1441 158.061 60.778 156.451 60.8892 155.337C60.9304 154.905 61.2125 154.516 61.4911 154.132C61.4928 154.13 61.4946 154.128 61.4963 154.126C61.5152 154.1 61.5336 154.074 61.5523 154.047C61.1806 151.871 60.6926 149.678 60.1204 147.472C59.9583 146.835 59.7981 146.227 59.6303 145.593C59.5078 145.349 59.3859 145.105 59.2655 144.866C58.6739 143.672 58.093 142.543 57.4302 141.847C56.7154 141.108 55.9842 139.032 55.1744 136.898C54.6444 135.496 54.0808 134.062 53.4906 132.931C53.1445 132.264 53.2966 131.53 53.4479 130.768C53.5883 130.055 53.7306 129.331 53.4662 128.633C53.3368 128.295 53.1032 127.935 52.8573 127.571C52.638 127.241 52.4079 126.906 52.2191 126.534C52.0444 126.191 51.985 125.337 51.8884 124.25C51.8302 123.582 51.7568 122.825 51.6378 122.05C51.4224 121.561 51.2028 121.073 50.9847 120.607C50.2925 119.067 49.6368 117.635 48.9595 116.202C48.5419 115.889 48.0626 115.655 47.5181 115.543C47.1265 115.461 46.6849 115.432 46.2353 115.409C45.6231 115.377 44.9871 115.336 44.4294 115.178C43.9923 115.052 43.7363 114.798 43.7936 114.541C43.82 114.42 43.9121 114.298 43.995 114.187C44.0901 114.059 44.1742 113.945 44.1367 113.862C44.1098 113.804 43.9958 113.779 43.8568 113.748C43.6349 113.698 43.3482 113.633 43.24 113.395C42.8417 112.519 42.4819 111.487 42.1148 110.482C41.7078 109.365 41.2876 108.277 40.8239 107.484C40.304 106.591 39.9705 105.122 39.5943 103.652C39.3317 102.624 39.0528 101.604 38.7026 100.78C38.3624 99.9764 37.733 99.2896 37.1205 98.6449C36.381 97.863 35.6665 97.1406 35.4701 96.252C35.4296 96.0706 35.6423 95.6842 35.9016 95.1927C36.0857 94.8447 36.2934 94.4437 36.4554 94.0308C36.443 94.0121 36.4307 93.9934 36.4184 93.9746C35.7615 92.9776 35.1279 91.9966 34.4939 91.002C34.4266 90.9961 34.3578 90.9898 34.288 90.9841C34.2866 90.9842 34.2852 90.9844 34.2837 90.9845C32.7158 90.8654 30.5673 90.6993 30.3412 88.6041C30.2832 88.071 30.5029 87.5597 30.6959 87.093C30.8868 86.6367 31.0576 86.2288 30.926 85.9052C30.7703 85.5293 30.2948 85.3013 29.7787 85.0579C29.0484 84.7081 28.2391 84.3333 28.114 83.4711C28.1048 83.4112 28.0953 83.3466 28.0846 83.2801C27.984 82.6515 27.8373 81.7304 28.03 80.5517C26.7407 78.4567 25.4583 76.4019 24.1698 74.4638C22.7145 72.2752 21.2546 70.243 19.788 68.5357C19.3627 67.9492 18.7494 67.312 18.0324 66.7078C16.9538 65.7901 16.1008 64.1776 15.5965 62.0683C15.1207 59.9576 14.8933 57.512 15.0483 55.0103C15.2039 52.5099 16.9145 50.2152 19.4593 49.01C21.9961 47.7961 25.0958 47.7415 27.895 48.9857C29.7415 49.8096 31.5907 50.8065 33.4496 52.1189C35.6953 53.6499 37.7117 55.275 39.5706 56.9103C39.758 57.0351 39.9435 57.1616 40.1227 57.2871C41.4657 58.233 42.9524 58.8757 44.424 59.5378C44.7664 59.6953 45.0967 59.84 45.4318 59.9997Z" fill="#F7F7F7"/>
<path d="M66.6211 189.739C67.673 188.942 68.1271 189.806 68.2438 190.214C68.2467 190.221 68.2495 190.228 68.2524 190.236C68.2853 190.335 68.342 190.394 68.4 190.456C68.5394 190.605 68.7414 190.819 68.6216 191.689C68.6586 191.706 68.6946 191.724 68.7295 191.743C68.8019 191.781 68.8675 191.824 68.9263 191.87C69.8006 192.569 69.4786 193.637 69.0413 194.84C69.0497 194.839 69.0582 194.838 69.0667 194.837C69.2327 194.819 69.4316 194.79 69.1997 195.169C68.9056 195.653 68.6121 196.083 68.3568 196.452C67.9463 197.372 67.5885 198.199 67.552 198.633C67.5401 198.769 67.5598 198.865 67.6163 198.911C67.6682 198.954 67.7427 198.966 67.8354 198.949C68.0272 198.768 68.246 198.545 68.4464 198.337C68.7156 198.058 68.9515 197.805 69.0506 197.715C69.0551 197.71 69.0594 197.707 69.0634 197.703C69.2792 197.514 69.0468 197.896 68.879 198.183C68.8514 198.23 68.8254 198.275 68.8031 198.313C68.9224 198.198 69.0432 198.068 69.1594 197.931C69.1027 198.013 69.0436 198.099 68.9831 198.187C68.229 199.283 68.2676 199.289 68.3031 199.283C68.3189 199.28 68.3341 199.276 68.29 199.362C68.2611 199.417 67.9835 199.866 67.7607 200.234C67.6951 200.342 67.634 200.444 67.5849 200.526C67.4171 200.807 67.6077 200.509 67.8267 200.152C68.1125 199.691 68.4412 199.128 68.1427 199.636C67.2112 201.264 67.858 200.167 68.286 199.305C68.4143 199.053 68.5279 198.824 68.588 198.696C68.7823 198.279 68.5398 198.667 68.2509 199.221C68.0218 199.661 68.2096 199.206 68.4206 198.616C68.5014 198.394 68.4809 198.378 68.4555 198.362C68.4288 198.344 68.3975 198.325 68.4495 198.061C68.5754 197.392 68.5814 197.051 68.5891 196.781C68.5904 196.703 68.5901 196.632 68.5897 196.558C68.5888 196.325 68.5482 196.122 68.4931 195.915C68.4269 195.668 68.3389 195.416 68.2839 195.097C67.9095 195.34 67.5203 195.676 67.1588 196.035C66.97 196.221 66.7211 197.354 66.5822 199.238C66.4362 201.123 66.413 203.587 66.3868 206.139C66.3605 208.692 66.2976 211.155 66.0804 213.038C65.8704 214.919 65.5243 216.049 65.2338 216.225C64.6545 216.577 64.0429 216.889 63.4464 217.088C62.7209 217.33 62.0181 217.403 61.4627 217.203C61.0738 217.064 60.7349 216.86 60.4466 216.612C60.417 216.587 60.3882 216.561 60.3595 216.534C59.8262 216.983 59.3002 217.362 59.0196 217.447C58.7885 217.518 58.8333 217.163 58.8807 216.862C58.9129 216.656 58.9445 216.474 58.8787 216.47C58.8435 216.467 58.786 216.48 58.7179 216.495C58.4407 216.559 57.9598 216.652 58.0291 215.973C58.0607 215.673 58.2227 215.141 58.3934 214.641C58.6346 213.925 58.8912 213.275 58.7097 213.405C58.3897 213.633 58.4383 213.287 58.4934 212.988C58.5455 212.702 58.5988 212.457 58.3015 212.766C57.9456 213.136 58.0171 212.931 58.1315 212.634C58.2105 212.428 58.3085 212.177 58.2968 212.037C58.2828 211.874 58.441 211.547 58.5778 211.27C58.6327 211.159 58.684 211.056 58.7193 210.975C58.8084 210.772 58.7967 210.707 58.4834 210.997C57.9968 211.447 57.6489 211.702 57.7129 211.488C57.7421 211.39 57.6938 211.381 57.6436 211.371C57.5772 211.358 57.5078 211.343 57.6138 211.126C57.7011 210.947 57.9878 210.542 58.2428 210.183C58.3223 210.072 58.3983 209.965 58.4646 209.871C58.4339 209.853 58.4014 209.839 58.3657 209.828C58.3103 209.885 58.2492 209.949 58.186 210.015C57.8691 210.347 57.4792 210.752 57.2625 210.935C56.9195 211.225 57.0468 210.969 57.1853 210.701C57.293 210.492 57.4067 210.275 57.3041 210.3C57.2342 210.317 57.0657 210.44 56.899 210.561C56.6514 210.741 56.4065 210.917 56.4929 210.745C56.5253 210.681 56.7177 210.436 56.9095 210.192C56.9107 210.191 56.9119 210.189 56.9131 210.188C56.9261 210.171 56.9388 210.155 56.9517 210.138C56.7104 210.243 56.4542 210.366 56.1896 210.5C56.1297 210.554 56.0704 210.607 56.0121 210.659C55.7269 210.914 55.4494 211.161 55.0816 211.534C54.6831 211.939 54.4047 212.134 54.1137 212.341C53.9228 212.476 53.7265 212.616 53.4858 212.824C53.3449 212.945 53.5393 212.688 53.7402 212.425C53.9275 212.179 54.1202 211.926 54.0496 211.968C54.0142 211.99 53.9163 212.08 53.8117 212.177C53.7196 212.263 53.6222 212.354 53.5584 212.406C53.4994 212.454 53.5937 212.304 53.7147 212.114C53.7894 211.997 53.8742 211.865 53.9396 211.753C53.758 211.859 53.5844 211.962 53.4237 212.058C53.2294 212.261 52.9815 212.529 52.6673 212.877C52.4419 213.126 52.1741 213.425 51.9005 213.732C51.5281 214.149 51.1436 214.58 50.8348 214.921C50.5935 215.188 50.4938 215.292 50.5882 215.176C50.6323 215.122 50.7172 215.022 50.794 214.931C50.8819 214.827 50.9601 214.735 50.9563 214.736C50.9534 214.737 50.8891 214.809 50.8112 214.896C50.6869 215.034 50.5265 215.214 50.5169 215.217C50.4812 215.228 50.5158 215.156 50.552 215.087C50.5924 215.01 50.633 214.937 50.5785 214.985C50.5172 215.038 50.7389 214.757 50.963 214.48C51.1193 214.286 51.2763 214.095 51.3418 214.017C51.4059 213.941 51.2826 214.096 51.1676 214.251C51.029 214.437 50.9035 214.624 51.1148 214.391C51.1576 214.343 51.4033 214.043 51.7094 213.667C51.9264 213.4 52.1738 213.095 52.4023 212.813C52.4139 212.823 52.4326 212.828 52.4584 212.831C52.4712 212.833 52.4855 212.833 52.5011 212.833C52.4702 212.875 52.4388 212.919 52.4068 212.963C52.4061 212.964 52.4053 212.965 52.4046 212.966C51.6775 213.963 50.7266 215.36 51.4111 214.613C51.5838 214.422 51.8736 214.048 52.1326 213.71C52.387 213.378 52.6134 213.081 52.6739 213.027C52.7426 212.966 52.616 213.191 52.4837 213.439C52.2977 213.786 52.1051 214.185 52.3842 213.881C52.4033 213.86 52.4242 213.837 52.4452 213.815C52.6448 213.599 52.9385 213.278 53.4603 212.587C53.7591 212.503 54.1225 212.406 54.58 212.307C55.3174 212.132 56.4735 212.001 57.663 211.611C58.2393 211.419 58.7005 210.249 58.7731 208.369C58.8604 206.486 58.78 204.064 58.7908 201.56C58.8029 199.056 58.7696 196.635 58.9895 194.753C59.1926 192.875 59.8802 191.712 60.7069 191.559C62.0436 191.307 63.3948 191.301 64.386 191.299C64.4515 191.271 64.5146 191.244 64.5772 191.221C65.0461 191.05 65.6195 190.55 66.2171 190.068C66.3514 189.956 66.4869 189.845 66.6211 189.739Z" fill="#F7F7F7"/>
<path d="M81.7676 207.063C82.5447 206.789 82.6333 206.186 82.2944 204.921L52.8926 201.456C52.9686 201.449 53.0924 201.463 53.1891 201.473C53.1937 201.474 53.1984 201.474 53.203 201.474C53.2693 201.481 53.2916 201.471 53.3166 201.458C53.3765 201.425 53.4544 201.391 54.2248 201.519C54.2151 201.466 54.2169 201.418 54.2332 201.374C54.4047 200.909 55.507 200.724 56.8154 200.384C56.8112 200.375 56.8068 200.366 56.8024 200.357C56.7179 200.175 56.6071 199.961 57.0609 199.926C57.6379 199.881 58.1665 199.863 58.6226 199.846C59.6668 199.472 60.6017 198.97 61.0079 198.376C61.135 198.193 61.2095 197.998 61.2201 197.804C61.2299 197.623 61.199 197.442 61.1321 197.264C60.8737 197.156 60.5651 197.051 60.2786 196.963C59.8759 196.841 59.517 196.736 59.3993 196.656C59.1159 196.46 59.5546 196.234 59.8771 196.054C59.9299 196.024 59.9797 195.996 60.0227 195.97C59.8524 195.85 59.6689 195.735 59.4808 195.634C59.5796 195.618 59.6825 195.602 59.7881 195.585C61.1051 195.371 61.0747 195.222 61.0267 195.035C61.0059 194.956 60.9819 194.865 61.0623 194.759C61.114 194.69 61.6296 194.577 62.0484 194.474C62.1716 194.444 62.2868 194.415 62.3795 194.391C62.6971 194.306 62.3439 194.345 61.9292 194.403C61.5297 194.458 61.0735 194.537 61.0987 194.52L61.1156 194.593C61.1185 194.562 61.1787 194.515 61.3185 194.446C63.041 193.578 61.7415 193.598 60.7587 193.607C60.47 193.608 60.2092 193.608 60.0587 193.581C59.5707 193.494 59.9625 193.131 60.5407 192.822C60.9988 192.578 60.4623 192.366 59.8079 192.234C59.5603 192.184 59.5356 192.067 59.5089 191.93C59.4815 191.789 59.4526 191.629 59.1661 191.494C58.4424 191.151 58.0943 190.973 57.8139 190.821C57.7344 190.78 57.6618 190.741 57.5864 190.702C57.3476 190.575 57.145 190.414 56.9415 190.251C56.6976 190.054 56.4519 189.859 56.1372 189.723C56.4104 189.262 56.7638 188.81 57.1201 188.375C57.3055 188.153 58.4302 187.857 60.301 187.573C62.1731 187.284 64.6229 187.018 67.1679 186.823C69.713 186.628 72.1743 186.514 74.0671 186.488C75.9581 186.459 77.1143 186.531 77.3305 186.675C77.762 186.972 78.1952 187.26 78.5468 187.533C78.9754 187.868 79.2833 188.182 79.3232 188.488C79.351 188.701 79.3189 188.903 79.2385 189.087C79.2302 189.106 79.2209 189.126 79.2116 189.144C79.8548 189.178 80.4364 189.174 80.6518 189.21C80.8295 189.24 80.5124 189.36 80.2439 189.474C80.0589 189.553 79.8965 189.627 79.9323 189.659C79.9516 189.676 79.9961 189.697 80.0503 189.724C80.1715 189.787 80.3435 189.889 80.3974 190.083C80.3832 190.1 80.4365 190.175 80.4222 190.192C80.4995 190.505 80.4803 190.85 80.2583 191.182C80.041 191.509 79.5613 191.905 79.0918 192.237C78.4239 192.734 77.7816 193.122 78.0082 193.263C78.4063 193.507 78.1271 193.864 77.8742 194.164C77.6327 194.446 77.4176 194.685 77.8497 194.788C78.3661 194.909 78.1667 195.056 77.8691 195.265C77.6625 195.407 77.4095 195.576 77.3115 195.799C77.1981 196.051 76.8447 196.232 76.5438 196.384C76.12 196.593 75.8003 196.737 76.3886 196.97C77.0421 197.221 77.4536 197.513 77.241 197.715C77.1442 197.808 77.1637 197.919 77.1835 198.035C77.2097 198.191 77.2359 198.347 76.994 198.482C76.7946 198.591 76.2944 198.664 75.8518 198.722C75.7137 198.74 75.5819 198.757 75.4658 198.774C75.4667 198.864 75.4702 198.955 75.4787 199.047C75.5572 199.067 75.6443 199.089 75.7341 199.111C76.1847 199.225 76.7368 199.369 77.0055 199.518C77.4307 199.754 77.1385 199.917 76.8283 200.074C76.5868 200.197 76.3343 200.321 76.4009 200.503C76.4462 200.628 76.633 200.78 76.8164 200.937C77.089 201.169 77.3539 201.409 77.151 201.52C77.0749 201.562 76.7606 201.564 76.448 201.565C76.4461 201.565 76.4442 201.565 76.4423 201.564C76.4211 201.564 76.4004 201.565 76.3793 201.565C76.5689 201.926 76.778 202.29 76.9939 202.671C77.068 202.713 77.1408 202.756 77.2126 202.797C77.5631 203.001 77.9016 203.205 78.4001 203.39C78.9406 203.591 79.2179 203.91 79.5053 204.25C79.6935 204.474 79.885 204.711 80.1606 204.93C80.3215 205.058 79.9894 205.077 79.6474 205.094C79.3282 205.11 79.001 205.123 79.057 205.231C79.0852 205.285 79.2036 205.363 79.33 205.447C79.4411 205.522 79.5591 205.6 79.6262 205.67C79.6883 205.734 79.4934 205.801 79.2447 205.884C79.0911 205.936 78.9173 205.994 78.7687 206.062C78.8975 206.371 79.0154 206.68 79.1151 206.992C79.3714 207.121 79.7099 207.266 80.1509 207.429C80.4672 207.546 80.8477 207.677 81.2365 207.812C81.7655 207.996 82.3117 208.187 82.7409 208.362C83.0762 208.499 83.2008 208.586 83.0481 208.576C82.9769 208.572 82.8474 208.547 82.7303 208.525C82.5961 208.499 82.4769 208.476 82.4766 208.49C82.4766 208.5 82.5665 208.536 82.6752 208.579C82.8489 208.649 83.0729 208.741 83.0702 208.78C83.0606 208.928 82.9394 209.067 82.8207 209.198C82.6885 209.344 82.5588 209.486 82.5854 209.641C82.6153 209.814 82.2059 209.92 81.7988 210.016C81.5146 210.083 81.2314 210.148 81.0931 210.239C80.9576 210.327 81.1008 210.518 81.24 210.704C81.4071 210.927 81.5659 211.147 81.2272 211.16C81.1584 211.162 80.7831 211.06 80.3142 210.929C79.9818 210.837 79.6019 210.731 79.2497 210.639C79.1954 210.785 79.1263 210.923 79.0433 211.057C79.0904 211.081 79.1384 211.106 79.1874 211.13C79.1885 211.131 79.1897 211.132 79.1908 211.132C80.2977 211.691 81.7995 212.487 80.7667 212.357C80.5044 212.323 80.051 212.184 79.6431 212.057C79.2425 211.933 78.8846 211.821 78.7946 211.833C78.6927 211.847 78.9071 212.001 79.139 212.17C79.465 212.407 79.8264 212.677 79.409 212.617C79.3805 212.613 79.3493 212.609 79.3179 212.604C79.0811 212.571 78.7539 212.525 78.208 212.385C68.8591 221.676 52.4095 222.562 55.132 209.666C55.2527 209.531 55.3909 209.398 55.5491 209.27C55.5729 207.782 55.8881 207.053 56.197 206.436C56.7315 205.455 57.3763 204.924 57.9797 204.59C58.2777 204.431 59.4517 204.506 61.3206 204.723C63.1908 204.954 65.6113 205.13 68.1163 205.074C70.6221 205.018 73.0389 205.461 74.879 205.991C76.72 206.508 77.8475 206.943 78.1002 207.141C78.5054 207.466 78.9413 207.612 79.36 207.515C79.4124 207.512 79.4631 207.507 79.5107 207.501C79.865 207.459 80.5756 207.39 81.2842 207.208C81.4469 207.166 81.6097 207.118 81.7676 207.063Z" fill="#F7F7F7"/>
<path d="M78.4856 16.3161C83.8886 14.8172 94.2435 14.9451 99.9206 15.0694C100.025 15.071 100.13 15.0726 100.234 15.0742C101.58 15.1019 102.856 15.0861 104.349 15.069C107.914 15.0362 112.702 14.9578 122.816 15.6524C124.958 15.6206 127.109 15.6046 129.279 15.6133C130.181 15.6173 131.04 15.6304 131.952 15.656C146.283 15.1969 163.473 22.6148 173.296 28.171C180.672 31.9647 188.114 35.6124 195.666 39.1585C199.436 40.9299 203.239 42.6767 207.089 44.4288C209.02 45.3086 210.936 46.1774 212.957 47.1082C213.953 47.5688 214.973 48.0421 216.089 48.5815C216.643 48.8503 217.247 49.1457 217.931 49.5035C218.333 49.7146 218.647 49.8807 219.244 50.2257C219.382 50.3064 219.525 50.3921 219.677 50.4859C219.853 50.5941 220.077 50.7358 220.309 50.8916C220.718 51.1942 221.447 51.5806 222.839 53.0423C225.059 54.986 227.254 61.0863 226.134 64.8491C225.266 68.5509 223.943 69.9511 223.115 71.0615C221.38 73.1017 220.351 73.7764 219.429 74.5088C218.992 74.8652 218.595 75.1757 218.232 75.458C217.605 75.9439 217.067 76.3547 216.671 76.6764C216.791 76.5894 216.659 76.7029 216.505 76.8592C216.335 77.0278 216.114 77.2553 215.882 77.5018C215.403 78.0097 214.843 78.6316 214.283 79.2662C213.135 80.569 211.948 81.9622 210.762 83.345C208.396 86.1075 206.075 88.7761 204.15 90.7648C198.75 96.3609 194.91 100.099 191.732 103.121C189.891 105.11 188.039 107.095 186.176 109.074C179.519 116.083 170.549 123.747 157.888 124.779C145.617 125.205 137.87 121.512 129.563 119.934C125.157 118.943 120.68 118.106 116.17 117.398C108.73 116.233 101.193 115.41 93.6375 114.905C88.4795 114.565 83.2365 114.346 78.2271 114.375C78.155 114.375 78.1123 114.377 78.1138 114.378C78.1124 114.377 78.1514 114.386 78.4781 114.35C78.6221 114.295 78.8155 114.452 80.5485 113.79C80.7754 113.693 81.0358 113.571 81.3408 113.398C81.4932 113.312 81.6568 113.213 81.8323 113.096C81.92 113.038 82.0107 112.975 82.1044 112.907C82.265 112.792 82.5759 112.549 82.8376 112.305C83.9022 111.384 85.4267 109.146 85.4261 106.501C85.4504 103.871 84.2982 102.111 83.5796 101.239C83.3891 101.009 83.2093 100.817 83.0422 100.651C82.9586 100.568 82.8781 100.492 82.8007 100.422C82.7628 100.387 82.7214 100.35 82.6893 100.322C82.6759 100.31 82.6626 100.299 82.6494 100.287C82.5439 100.196 82.4446 100.115 82.3509 100.041C82.1637 99.8943 81.9991 99.7782 81.8523 99.6803C81.5591 99.4857 81.3355 99.3617 81.152 99.2651C80.7903 99.077 80.5668 98.9895 80.4282 98.9342C80.3408 98.9 80.2738 98.8757 80.2204 98.8568C80.114 98.8194 80.0601 98.8031 80.0338 98.7947C79.9561 98.7719 80.4512 98.8911 80.8017 98.9622C81.5931 99.1283 82.4831 99.3023 83.3849 99.4802C87.5456 100.071 91.6661 100.65 95.585 101.422C99.9539 102.35 103.857 103.093 108.577 105.696C109.647 106.308 110.632 106.951 111.536 107.61C121.876 115.078 126.543 127.638 128.199 136.267C128.487 137.711 128.709 139.074 128.883 140.345C129.342 142.697 129.683 145.081 129.855 147.588C130.089 150.309 130.977 153.819 132.088 157.331C132.092 157.717 132.096 158.108 132.102 158.509C132.143 161.222 132.774 164.224 133.887 167.927C135.369 173.652 135.165 176.199 136.253 180.133C136.353 180.517 136.457 180.897 136.571 181.286C136.297 180.312 135.75 179.559 135.402 179.206C135.05 178.846 134.881 178.769 134.884 178.767C134.892 178.783 135.459 179.043 136.19 179.252C137.696 179.698 139.869 180.099 142.299 180.445C145.836 180.935 147.753 181.594 149.289 182.156C149.749 182.32 150.17 182.472 150.609 182.601C152.106 183.044 153.752 182.805 155.703 182.521C157.905 182.201 160.502 181.818 163.771 182.315C164.254 182.389 164.746 182.481 165.247 182.594C177.576 185.348 183.184 184.203 187.359 183.387C188.579 183.142 189.687 182.918 190.833 182.804C194.513 182.441 199.736 182.963 203.804 183.66C206.438 184.128 211.254 183.903 216.174 183.982C216.951 183.967 217.676 183.911 218.352 183.825C219.752 183.644 221.547 183.612 223.474 183.241C225.472 182.858 227.583 182.112 229.779 180.465C231.619 179.088 233.271 177.53 234.885 176.029C237.822 173.239 239.482 171.263 240.931 169.453C241.546 168.679 242.117 167.931 242.731 167.115C244.259 165.324 246.2 161.646 252.154 158.148C251.314 158.516 250.425 159.337 250.096 159.781C249.389 160.875 250.001 159.463 250.263 157.611C250.15 157.6 250.037 156.912 249.591 156.055C249.343 154.832 248.587 153.081 247.588 151.538C247.954 151.954 248.26 152.055 248.228 151.976C248.219 151.902 247.875 151.705 247.616 151.604L261.11 142.764C260.537 144.519 260.556 146.541 261.192 151.02C261.293 151.783 261.378 152.587 261.437 153.412C261.473 153.585 261.516 154.113 261.538 154.289C261.523 159.613 260.123 164.397 258.05 167.73C255.61 171.641 252.612 173.165 250.15 172.568C247.658 171.962 245.797 169.425 244.361 165.92C243.133 162.915 242.27 159.322 241.602 155.75L241.686 156.483C241.516 155.832 241.352 155.151 241.199 154.429C240.364 150.585 239.064 144.409 240.35 138.223C241.746 133.012 246.507 129.466 251.745 130.759C256.362 131.63 261.355 133.591 265.294 138.684C268.005 142.268 270.276 146.227 271.613 151.293C272.464 154.61 272.838 158.554 271.924 162.708C271.567 164.33 271.221 166.232 270.142 168.905C269.163 171.451 266.551 175.56 262.437 177.667C262.39 177.716 262.358 177.748 262.154 177.944C261.956 178.134 261.604 178.5 261.144 179.029C260.222 180.083 258.929 181.679 257.539 183.248C254.735 186.441 251.498 189.527 248.202 192.191C248.15 192.233 248.098 192.275 248.045 192.318C241.45 198.594 227.216 205.103 216.007 203.405C215.34 203.35 214.716 203.286 214.061 203.208C213.738 203.167 213.396 203.127 213.061 203.092C206.654 203.193 198.835 203.864 193.521 203.921C189.086 204 185.826 203.561 183.063 203.17C181.144 202.9 179.47 202.653 177.756 202.599C176.83 202.57 175.569 202.546 174.064 202.51C170.987 202.438 166.852 202.31 162.289 201.994C157.868 201.688 152.943 201.316 148.098 200.625C143.785 199.981 138.854 199.114 133.23 197.356C131.448 196.771 129.605 196.131 127.352 194.924C125.304 193.698 121.532 191.768 119.833 186.124C119.041 182.299 118.73 179.186 118.32 177.394C117.941 175.673 117.521 173.52 117.474 173.522C116.186 169.749 115.042 165.652 114.15 161.698C113.013 156.729 112.35 151.934 111.955 148.391C111.912 148.138 111.86 147.893 111.798 147.663C111.104 145.19 110.994 142.933 110.469 139.592C110.085 137.297 109.49 134.42 107.902 131.001C106.043 127.084 104.442 124.659 102.91 122.759C101.919 121.549 100.931 120.577 99.7967 119.779C98.8907 119.105 96.998 118.36 94.6161 117.931C89.6366 117.018 84.0479 116.285 79.5748 115.148C78.8456 114.962 78.0524 114.78 77.1387 114.567C76.659 114.449 76.2887 114.385 75.2753 114.08C75.1178 114.03 74.9435 113.973 74.7225 113.89C74.652 113.863 74.3945 113.766 74.0999 113.629C73.794 113.483 73.4139 113.307 72.7895 112.872C72.6327 112.761 72.4594 112.63 72.2658 112.468C72.2091 112.42 72.1953 112.409 72.092 112.317C71.9491 112.19 71.7959 112.045 71.6324 111.875C71.3067 111.533 70.9326 111.092 70.5528 110.462C69.7944 109.282 69.0356 106.87 69.642 104.521C70.2173 102.173 71.6243 100.779 72.5143 100.094C74.1506 98.9217 74.7444 98.904 75.3159 98.7045C75.5826 98.6318 75.794 98.5869 75.9762 98.5522C76.1537 98.5182 76.3315 98.4921 76.3716 98.4865C76.5124 98.4663 76.6346 98.4518 76.7461 98.4402C77.1864 98.3951 77.4983 98.3873 77.6595 98.3814C77.8544 98.3755 78.0392 98.373 78.2271 98.3723C78.9326 98.3683 79.6735 98.3674 80.4102 98.371C83.8584 98.3882 87.4333 98.4983 90.683 98.9096C93.3507 99.2486 95.5256 99.8941 97.4443 100.478C98.0348 100.659 98.6162 100.836 99.1695 100.995C101.294 101.16 103.403 101.34 105.522 101.537C105.872 101.492 106.249 101.441 106.629 101.389C108.566 101.129 110.949 100.825 113.869 100.911C118.488 101.049 122.465 101.922 126.632 102.942C128.576 103.42 130.564 103.932 132.688 104.433C134.104 104.768 135.574 105.097 137.118 105.399C139.746 105.911 142.724 106.397 145.525 106.778C149.726 107.377 153.243 107.499 155.28 107.568C155.629 107.586 155.953 107.642 156.268 107.718C156.652 107.813 157.02 107.939 157.4 108.049C157.403 108.051 157.406 108.052 157.409 108.053C157.455 108.067 157.502 108.08 157.55 108.092C162.283 107.051 167.113 103.224 171.241 98.3503C171.564 97.8848 171.874 97.4232 172.19 96.9436C172.203 96.9249 172.215 96.9063 172.227 96.8876C173.957 94.3361 175.616 91.8488 176.486 90.034C177.438 88.055 180.63 83.7952 183.992 79.2374C186.184 76.2674 188.474 73.1522 190.272 70.5251C191.329 68.9835 192.723 67.8315 194.187 66.6381C195.554 65.5261 196.983 64.3628 198.365 62.7577C199.083 61.9333 199.784 60.9907 200.863 59.7929C201.273 59.3459 201.743 58.8535 202.408 58.2728C202.954 57.7602 203.448 57.3133 203.883 56.9276C204.213 56.6336 204.828 56.1999 205.131 56.0185C205.26 55.9664 205.34 55.8589 204.836 56.552C204.59 56.9493 204.092 57.5013 203.524 59.2942C202.877 60.9234 203.002 64.9937 204.544 67.2175C204.961 67.9043 205.376 68.4107 205.776 68.8321C206.63 69.7288 207.171 70.0552 207.342 70.1745C207.564 70.3188 207.705 70.3929 207.767 70.4202C207.894 70.4752 207.872 70.4406 207.818 70.3942C207.686 70.2882 207.401 70.1141 207.102 69.941C206.477 69.5815 205.662 69.1577 204.862 68.754C199.933 66.8994 194.689 64.9818 189.542 62.9839C188.349 62.7831 187.315 62.7376 186.379 62.8456C185.729 62.9322 185.126 63.1096 184.5 63.2866C183.637 63.5223 182.786 63.7831 181.697 63.8101C180.846 63.831 179.983 63.609 179.482 63.2243C179.25 63.0459 179.103 62.8373 178.975 62.651C178.827 62.4367 178.694 62.2456 178.47 62.1499C178.308 62.081 178.101 62.0946 177.846 62.109C177.441 62.1322 176.905 62.157 176.258 61.8765C173.814 60.8169 171.091 59.4902 168.44 58.1695C165.618 56.7644 162.871 55.3638 160.578 54.3098C160.472 54.2609 160.367 54.2131 160.263 54.1662C157.66 52.9943 154.243 50.8764 151.197 49.0989C149.062 47.8536 147.108 46.8048 145.434 46.1466C143.79 45.4956 142.034 45.2436 140.271 45.1076C138.164 44.9431 136.032 44.9388 134.145 44.4982C133.774 44.4094 133.296 43.9917 132.71 43.4787C132.288 43.1148 131.781 42.7013 131.201 42.3225C130.496 42.3027 129.82 42.2902 129.098 42.283C127.009 42.2628 124.887 42.251 122.761 42.2412C122.659 42.2944 122.554 42.3485 122.449 42.4039C122.447 42.4051 122.445 42.4064 122.444 42.4077C120.063 43.6565 116.827 45.3744 112.211 44.4476C111.036 44.2122 110.29 43.7538 109.617 43.3415C108.958 42.9366 108.363 42.5747 107.508 42.5144C106.535 42.4462 105.395 42.7286 104.152 43.0378C102.408 43.4719 100.461 43.961 98.4848 43.6105C98.3498 43.5866 98.2047 43.5602 98.0538 43.5341C96.6198 43.2859 94.5049 42.922 92.3757 42.1318C87.3625 42.1202 82.3291 42.1095 77.4308 42.1669C76.2347 42.1826 75.0605 42.2021 73.9043 42.2296C72.107 42.2723 70.2924 42.3368 68.7787 42.4419C68.0525 42.4876 67.3175 42.5753 67.1693 42.5695C67.1298 42.5383 67.1968 42.5797 68.1431 42.0694C68.6074 41.8001 69.434 41.2947 70.342 40.2691C71.2596 39.2686 71.8877 37.8372 71.9876 37.462C69.5557 43.3082 67.2455 49.4996 65.0322 55.6625C63.3354 60.3896 60.8981 64.6978 58.186 67.6214C55.453 70.5851 52.7846 71.6895 50.3124 71.5171C47.7843 71.1734 45.8835 68.2039 45.0144 64.1649C44.1444 60.0673 44.3735 54.9319 45.5957 49.8685C47.2059 43.251 48.8785 36.6896 50.9097 29.9463C51.1784 29.1301 51.9023 27.4168 53.0779 25.9401C54.2418 24.4461 55.57 23.4119 56.5652 22.7741C58.5912 21.5134 59.7597 21.1917 60.7125 20.8611C62.5602 20.2846 63.6787 20.0842 64.8036 19.8627C65.3597 19.7261 65.9087 19.6025 66.4252 19.4919C70.0523 18.7273 72.9605 17.8956 75.9385 17.0362C76.0738 16.9966 76.2103 16.9569 76.3478 16.9172C77.065 16.7132 77.7611 16.5122 78.4856 16.3161Z" fill="#F7F7F7"/>
</g>
<defs>
<filter id="filter0_f_1_5478" x="0" y="0" width="287.455" height="239.456" filterUnits="userSpaceOnUse" color-interpolation-filters="sRGB">
<feFlood flood-opacity="0" result="BackgroundImageFix"/>
<feBlend mode="normal" in="SourceGraphic" in2="BackgroundImageFix" result="shape"/>
<feGaussianBlur stdDeviation="7.5" result="effect1_foregroundBlur_1_5478"/>
</filter>
</defs>
</svg>
