<svg width="219" height="51" viewBox="0 0 219 51" fill="none" xmlns="http://www.w3.org/2000/svg">
<path d="M79.7864 17.192C79.5411 17.192 79.3384 17.1227 79.1784 16.984C79.0184 16.8347 78.9384 16.6373 78.9384 16.392V7.848C78.9384 7.72 78.9331 7.54933 78.9224 7.336C78.9118 7.12267 78.8904 6.89867 78.8584 6.664C78.8264 6.42933 78.7784 6.22667 78.7144 6.056C78.9171 5.96 79.2051 5.87467 79.5784 5.8C79.9518 5.72533 80.4584 5.688 81.0984 5.688C82.6558 5.688 83.8184 5.94933 84.5864 6.472C85.3544 6.99467 85.7384 7.82667 85.7384 8.968C85.7384 10.1627 85.3224 11.0693 84.4904 11.688C83.6584 12.296 82.4371 12.6 80.8264 12.6C80.6984 12.6 80.5811 12.6 80.4744 12.6C80.3678 12.6 80.2558 12.5947 80.1384 12.584L80.0264 11.96C80.1331 11.9707 80.2451 11.9813 80.3624 11.992C80.4798 11.992 80.6398 11.992 80.8424 11.992C81.6318 11.992 82.2664 11.88 82.7464 11.656C83.2264 11.4213 83.5784 11.0853 83.8024 10.648C84.0264 10.2107 84.1384 9.68267 84.1384 9.064C84.1384 8.46667 84.0318 7.96533 83.8184 7.56C83.6158 7.144 83.2904 6.83467 82.8424 6.632C82.3944 6.41867 81.8024 6.312 81.0664 6.312C80.9278 6.312 80.7998 6.312 80.6824 6.312C80.5758 6.312 80.4851 6.32267 80.4104 6.344V15.144C80.4104 15.2613 80.4158 15.4267 80.4264 15.64C80.4371 15.8427 80.4584 16.056 80.4904 16.28C80.5224 16.4933 80.5704 16.6853 80.6344 16.856C80.5704 16.92 80.4638 16.9893 80.3144 17.064C80.1758 17.1493 79.9998 17.192 79.7864 17.192ZM90.8177 17.16C90.6043 17.16 90.4123 17.0853 90.2417 16.936C90.071 16.776 89.9857 16.5627 89.9857 16.296V10.584C89.9857 10.2853 89.9483 10.0773 89.8737 9.96C89.8097 9.832 89.6977 9.768 89.5377 9.768C89.4843 9.768 89.415 9.784 89.3297 9.816C89.2443 9.83733 89.175 9.896 89.1217 9.992C88.9937 9.82133 88.9297 9.64533 88.9297 9.464C88.9297 9.21867 89.015 9.02133 89.1857 8.872C89.367 8.72267 89.623 8.648 89.9537 8.648C90.3803 8.648 90.7057 8.80267 90.9297 9.112C91.1643 9.41067 91.2763 9.86933 91.2657 10.488V11.416L91.0737 11.384C91.191 10.4773 91.447 9.79467 91.8417 9.336C92.247 8.86667 92.759 8.632 93.3777 8.632C93.9323 8.632 94.3857 8.78133 94.7377 9.08C95.0897 9.368 95.2657 9.784 95.2657 10.328C95.2657 10.6907 95.1643 10.9893 94.9617 11.224C94.759 11.4587 94.5244 11.5813 94.2577 11.592C93.959 11.6027 93.7403 11.5333 93.6017 11.384C93.7403 11.192 93.8257 11.0213 93.8577 10.872C93.8897 10.712 93.9057 10.5413 93.9057 10.36C93.9057 10.0293 93.831 9.78933 93.6817 9.64C93.5323 9.48 93.3137 9.4 93.0257 9.4C92.7483 9.4 92.487 9.528 92.2417 9.784C91.9963 10.0293 91.799 10.4293 91.6497 10.984C91.5003 11.528 91.4257 12.2533 91.4257 13.16C91.4257 13.768 91.4257 14.2747 91.4257 14.68C91.4363 15.0747 91.447 15.4053 91.4577 15.672C91.4683 15.928 91.4897 16.1467 91.5217 16.328C91.5537 16.4987 91.6017 16.664 91.6657 16.824C91.6017 16.888 91.495 16.9573 91.3457 17.032C91.207 17.1067 91.031 17.1493 90.8177 17.16ZM101.869 17.208C100.696 17.208 99.7788 16.8347 99.1174 16.088C98.4668 15.3307 98.1414 14.28 98.1414 12.936C98.1414 11.5813 98.4668 10.5253 99.1174 9.768C99.7788 9.01067 100.696 8.632 101.869 8.632C103.043 8.632 103.955 9.01067 104.605 9.768C105.256 10.5253 105.581 11.5813 105.581 12.936C105.581 14.28 105.256 15.3307 104.605 16.088C103.955 16.8347 103.043 17.208 101.869 17.208ZM101.869 16.6C102.573 16.6 103.107 16.2853 103.469 15.656C103.843 15.0267 104.029 14.12 104.029 12.936C104.029 11.7413 103.843 10.8293 103.469 10.2C103.107 9.56 102.573 9.24 101.869 9.24C101.155 9.24 100.611 9.56 100.237 10.2C99.8748 10.8293 99.6934 11.7413 99.6934 12.936C99.6934 14.12 99.8748 15.0267 100.237 15.656C100.611 16.2853 101.155 16.6 101.869 16.6ZM111.786 17.208C111.232 17.208 110.773 17.096 110.41 16.872C110.058 16.6373 109.781 16.328 109.578 15.944C109.376 15.56 109.232 15.1387 109.146 14.68C109.061 14.2107 109.018 13.7467 109.018 13.288C109.018 11.8267 109.306 10.6853 109.882 9.864C110.469 9.04267 111.306 8.632 112.394 8.632C112.938 8.632 113.392 8.73867 113.754 8.952C114.128 9.16533 114.389 9.464 114.538 9.848V7.992C114.538 7.58667 114.522 7.18133 114.49 6.776C114.458 6.36 114.394 5.98133 114.298 5.64C114.362 5.576 114.464 5.50667 114.602 5.432C114.752 5.34667 114.928 5.304 115.13 5.304C115.376 5.304 115.578 5.37333 115.738 5.512C115.898 5.65067 115.978 5.848 115.978 6.104L115.962 15.192C115.962 15.48 116.005 15.6933 116.09 15.832C116.186 15.96 116.314 16.024 116.474 16.024C116.528 16.024 116.597 16.0133 116.682 15.992C116.778 15.96 116.848 15.896 116.89 15.8C116.965 15.8853 117.013 15.976 117.034 16.072C117.066 16.168 117.082 16.2533 117.082 16.328C117.082 16.5733 116.981 16.7707 116.778 16.92C116.576 17.0587 116.32 17.128 116.01 17.128C115.53 17.128 115.173 16.936 114.938 16.552C114.714 16.1573 114.602 15.6133 114.602 14.92V13.624L114.954 13.512C114.89 14.0667 114.773 14.568 114.602 15.016C114.442 15.464 114.229 15.8533 113.962 16.184C113.706 16.5147 113.397 16.7707 113.034 16.952C112.672 17.1227 112.256 17.208 111.786 17.208ZM112.186 16.344C112.56 16.344 112.89 16.232 113.178 16.008C113.477 15.7733 113.722 15.4587 113.914 15.064C114.117 14.6693 114.266 14.216 114.362 13.704C114.469 13.192 114.522 12.6533 114.522 12.088C114.522 11.768 114.496 11.4533 114.442 11.144C114.389 10.824 114.298 10.536 114.17 10.28C114.042 10.024 113.856 9.82133 113.61 9.672C113.365 9.52267 113.05 9.448 112.666 9.448C111.984 9.448 111.461 9.77333 111.098 10.424C110.746 11.064 110.57 12.0027 110.57 13.24C110.57 13.6453 110.586 14.0347 110.618 14.408C110.661 14.7813 110.741 15.1173 110.858 15.416C110.976 15.704 111.141 15.9333 111.354 16.104C111.568 16.264 111.845 16.344 112.186 16.344ZM126.259 8.632C126.493 8.632 126.691 8.70667 126.851 8.856C127.011 9.00533 127.091 9.21867 127.091 9.496L127.107 15.24C127.107 15.5387 127.139 15.752 127.203 15.88C127.277 15.9973 127.389 16.056 127.539 16.056C127.603 16.056 127.677 16.0453 127.763 16.024C127.848 15.992 127.917 15.928 127.971 15.832C128.088 16.0027 128.147 16.1787 128.147 16.36C128.147 16.5947 128.056 16.7867 127.875 16.936C127.704 17.0853 127.459 17.16 127.139 17.16C126.712 17.16 126.381 17.0213 126.147 16.744C125.923 16.456 125.811 16.024 125.811 15.448V14.44L126.051 14.12C125.987 14.76 125.827 15.3147 125.571 15.784C125.315 16.2427 124.979 16.6 124.563 16.856C124.157 17.1013 123.683 17.224 123.139 17.224C122.285 17.224 121.651 16.9733 121.235 16.472C120.829 15.96 120.627 15.096 120.627 13.88V10.744C120.627 10.4667 120.611 10.168 120.579 9.848C120.547 9.51733 120.488 9.224 120.403 8.968C120.499 8.88267 120.611 8.808 120.739 8.744C120.877 8.66933 121.043 8.632 121.235 8.632C121.48 8.632 121.677 8.70133 121.827 8.84C121.987 8.97867 122.067 9.176 122.067 9.432V13.688C122.067 14.3387 122.115 14.872 122.211 15.288C122.307 15.6933 122.461 15.992 122.675 16.184C122.899 16.3653 123.197 16.456 123.571 16.456C123.827 16.456 124.077 16.3867 124.323 16.248C124.568 16.1093 124.792 15.8907 124.995 15.592C125.197 15.2827 125.357 14.888 125.475 14.408C125.603 13.928 125.667 13.3467 125.667 12.664C125.667 12.0453 125.661 11.5333 125.651 11.128C125.651 10.7227 125.645 10.392 125.635 10.136C125.624 9.86933 125.597 9.65067 125.555 9.48C125.523 9.29867 125.48 9.12267 125.427 8.952C125.491 8.888 125.592 8.81867 125.731 8.744C125.869 8.66933 126.045 8.632 126.259 8.632ZM135.017 17.208C133.833 17.208 132.905 16.8453 132.233 16.12C131.571 15.3947 131.241 14.3387 131.241 12.952C131.241 11.6187 131.577 10.568 132.249 9.8C132.931 9.02133 133.891 8.632 135.129 8.632C136.035 8.632 136.723 8.824 137.193 9.208C137.662 9.592 137.897 10.0773 137.897 10.664C137.897 11.048 137.79 11.3573 137.577 11.592C137.363 11.8267 137.086 11.944 136.745 11.944C136.595 11.944 136.441 11.9173 136.281 11.864C136.131 11.8107 136.014 11.7253 135.929 11.608C136.099 11.5227 136.227 11.3893 136.313 11.208C136.398 11.0267 136.441 10.808 136.441 10.552C136.441 10.2427 136.371 9.992 136.233 9.8C136.105 9.59733 135.934 9.45333 135.721 9.368C135.507 9.28267 135.262 9.24 134.985 9.24C134.345 9.24 133.817 9.53867 133.401 10.136C132.995 10.7227 132.793 11.5867 132.793 12.728C132.793 13.5813 132.905 14.2693 133.129 14.792C133.363 15.304 133.678 15.6773 134.073 15.912C134.478 16.136 134.926 16.248 135.417 16.248C135.801 16.248 136.147 16.184 136.457 16.056C136.777 15.928 137.049 15.7413 137.273 15.496C137.497 15.2507 137.651 14.952 137.737 14.6C137.843 14.6427 137.918 14.728 137.961 14.856C138.003 14.984 137.987 15.1867 137.913 15.464C137.731 16.0293 137.385 16.4613 136.873 16.76C136.361 17.0587 135.742 17.208 135.017 17.208ZM143.91 17.176C143.377 17.176 142.961 17.0107 142.662 16.68C142.374 16.3493 142.23 15.8907 142.23 15.304V7.512C142.23 7.256 142.31 7.064 142.47 6.936C142.63 6.79733 142.833 6.728 143.078 6.728C143.292 6.728 143.468 6.76533 143.606 6.84C143.745 6.91467 143.841 6.984 143.894 7.048C143.798 7.38933 143.74 7.8 143.718 8.28C143.697 8.74933 143.686 9.37867 143.686 10.168L143.67 15.192C143.67 15.4693 143.734 15.6827 143.862 15.832C143.99 15.9813 144.182 16.056 144.438 16.056C144.577 16.056 144.716 16.0347 144.854 15.992C145.004 15.9387 145.105 15.8587 145.158 15.752C145.233 15.8373 145.281 15.928 145.302 16.024C145.334 16.12 145.35 16.2107 145.35 16.296C145.35 16.552 145.217 16.7653 144.95 16.936C144.684 17.096 144.337 17.176 143.91 17.176ZM141.03 9.64L141.046 9.24C141.057 9.112 141.1 9.016 141.174 8.952C141.26 8.888 141.356 8.856 141.462 8.856H144.214C144.257 8.856 144.348 8.856 144.486 8.856C144.625 8.84533 144.78 8.84 144.95 8.84C145.121 8.82933 145.276 8.824 145.414 8.824C145.553 8.81333 145.644 8.808 145.686 8.808L145.67 9.192C145.66 9.32 145.617 9.42133 145.542 9.496C145.468 9.56 145.377 9.592 145.27 9.592H141.99C141.884 9.592 141.724 9.59733 141.51 9.608C141.297 9.608 141.137 9.61867 141.03 9.64ZM150.627 17C150.36 17 150.152 16.9307 150.003 16.792C149.854 16.6427 149.779 16.4507 149.779 16.216L149.747 7.848C149.747 7.528 149.742 7.18133 149.731 6.808C149.72 6.424 149.672 6.104 149.587 5.848C149.875 5.816 150.222 5.79467 150.627 5.784C151.032 5.76267 151.443 5.752 151.859 5.752C152.275 5.74133 152.643 5.736 152.963 5.736C154.467 5.736 155.63 6.2 156.451 7.128C157.272 8.056 157.683 9.46933 157.683 11.368C157.683 13.3413 157.272 14.776 156.451 15.672C155.64 16.5573 154.499 17 153.027 17H150.627ZM151.219 16.376H152.963C153.646 16.376 154.216 16.216 154.675 15.896C155.134 15.5653 155.48 15.0427 155.715 14.328C155.95 13.6027 156.067 12.6427 156.067 11.448C156.067 9.67733 155.806 8.38667 155.283 7.576C154.76 6.76533 153.987 6.36 152.963 6.36H151.203L151.219 16.376ZM165.133 17.208C163.97 17.208 163.042 16.8453 162.349 16.12C161.666 15.3947 161.325 14.3387 161.325 12.952C161.325 11.6187 161.655 10.568 162.317 9.8C162.978 9.02133 163.938 8.632 165.197 8.632C165.773 8.632 166.285 8.72267 166.733 8.904C167.181 9.07467 167.533 9.336 167.789 9.688C168.055 10.0293 168.189 10.456 168.189 10.968C168.189 11.768 167.863 12.376 167.213 12.792C166.573 13.1973 165.698 13.4 164.589 13.4C164.151 13.4 163.719 13.384 163.293 13.352C162.877 13.3093 162.445 13.24 161.997 13.144L162.029 12.6C162.295 12.6427 162.594 12.68 162.925 12.712C163.255 12.744 163.597 12.7653 163.949 12.776C164.301 12.776 164.637 12.7493 164.957 12.696C165.277 12.632 165.565 12.5307 165.821 12.392C166.077 12.2427 166.274 12.0347 166.413 11.768C166.562 11.5013 166.637 11.1653 166.637 10.76C166.637 10.3547 166.562 10.0453 166.413 9.832C166.263 9.61867 166.071 9.46933 165.837 9.384C165.613 9.288 165.378 9.24 165.133 9.24C164.45 9.24 163.901 9.544 163.485 10.152C163.079 10.7493 162.877 11.624 162.877 12.776C162.877 13.64 162.989 14.328 163.213 14.84C163.437 15.3413 163.746 15.704 164.141 15.928C164.546 16.1413 164.999 16.248 165.501 16.248C166.077 16.248 166.578 16.1307 167.005 15.896C167.431 15.6507 167.725 15.3147 167.885 14.888C167.991 14.9307 168.066 15.0107 168.109 15.128C168.151 15.2453 168.119 15.4373 168.013 15.704C167.81 16.1947 167.453 16.568 166.941 16.824C166.429 17.08 165.826 17.208 165.133 17.208ZM174.535 17.208C173.831 17.208 173.255 17.1227 172.807 16.952C172.37 16.7813 172.045 16.552 171.831 16.264C171.629 15.9653 171.527 15.64 171.527 15.288C171.527 15.1067 171.565 14.9413 171.639 14.792C171.714 14.632 171.831 14.5093 171.991 14.424C172.162 14.328 172.397 14.3067 172.695 14.36C172.663 14.4773 172.642 14.5947 172.631 14.712C172.631 14.8187 172.642 14.936 172.663 15.064C172.695 15.512 172.882 15.8747 173.223 16.152C173.575 16.4293 174.061 16.568 174.679 16.568C175.223 16.568 175.671 16.472 176.023 16.28C176.386 16.0773 176.567 15.7733 176.567 15.368C176.567 15.0373 176.461 14.7707 176.247 14.568C176.034 14.3547 175.762 14.1733 175.431 14.024C175.101 13.864 174.754 13.6987 174.391 13.528C173.975 13.3253 173.57 13.1173 173.175 12.904C172.791 12.68 172.471 12.3973 172.215 12.056C171.97 11.7147 171.847 11.2773 171.847 10.744C171.847 10.232 171.981 9.82133 172.247 9.512C172.525 9.20267 172.887 8.97867 173.335 8.84C173.783 8.69067 174.263 8.616 174.775 8.616C175.65 8.616 176.338 8.75467 176.839 9.032C177.351 9.30933 177.607 9.704 177.607 10.216C177.607 10.408 177.554 10.5787 177.447 10.728C177.351 10.8773 177.175 10.968 176.919 11C176.834 11.0213 176.754 11.032 176.679 11.032C176.605 11.0213 176.525 11.0053 176.439 10.984C176.461 10.8667 176.466 10.744 176.455 10.616C176.455 10.488 176.434 10.3707 176.391 10.264C176.349 9.93333 176.178 9.68267 175.879 9.512C175.591 9.33067 175.207 9.24 174.727 9.24C174.461 9.24 174.205 9.27733 173.959 9.352C173.725 9.416 173.533 9.528 173.383 9.688C173.245 9.83733 173.175 10.04 173.175 10.296C173.175 10.6373 173.266 10.92 173.447 11.144C173.639 11.368 173.89 11.5653 174.199 11.736C174.519 11.896 174.855 12.0613 175.207 12.232C175.527 12.3813 175.847 12.536 176.167 12.696C176.487 12.856 176.781 13.0373 177.047 13.24C177.314 13.432 177.527 13.6613 177.687 13.928C177.847 14.184 177.927 14.4987 177.927 14.872C177.927 15.2347 177.821 15.5973 177.607 15.96C177.405 16.3227 177.058 16.6213 176.567 16.856C176.077 17.0907 175.399 17.208 174.535 17.208ZM182.611 7.432C182.355 7.432 182.131 7.34133 181.939 7.16C181.758 6.97867 181.667 6.76 181.667 6.504C181.667 6.23733 181.758 6.01333 181.939 5.832C182.131 5.65067 182.355 5.56 182.611 5.56C182.867 5.56 183.086 5.65067 183.267 5.832C183.448 6.01333 183.539 6.23733 183.539 6.504C183.539 6.76 183.448 6.97867 183.267 7.16C183.086 7.34133 182.867 7.432 182.611 7.432ZM183.395 15.08C183.395 15.3893 183.411 15.6987 183.443 16.008C183.475 16.3173 183.534 16.6 183.619 16.856C183.555 16.92 183.448 16.9893 183.299 17.064C183.16 17.1493 182.99 17.192 182.787 17.192C182.552 17.192 182.355 17.1227 182.195 16.984C182.046 16.8347 181.971 16.6373 181.971 16.392L181.955 10.744C181.955 10.424 181.939 10.1093 181.907 9.8C181.886 9.49067 181.827 9.208 181.731 8.952C181.806 8.888 181.912 8.81867 182.051 8.744C182.19 8.66933 182.36 8.632 182.563 8.632C182.798 8.632 182.99 8.70133 183.139 8.84C183.299 8.968 183.379 9.16 183.379 9.416L183.395 15.08ZM190.35 20.696C189.859 20.696 189.401 20.6267 188.974 20.488C188.547 20.36 188.206 20.152 187.95 19.864C187.694 19.5867 187.566 19.2293 187.566 18.792C187.566 18.4293 187.673 18.136 187.886 17.912C188.099 17.688 188.355 17.576 188.654 17.576C188.985 17.576 189.219 17.6667 189.358 17.848C189.209 17.9653 189.097 18.1093 189.022 18.28C188.947 18.4507 188.91 18.6373 188.91 18.84C188.91 19.1173 188.969 19.352 189.086 19.544C189.214 19.736 189.39 19.88 189.614 19.976C189.838 20.0827 190.099 20.136 190.398 20.136C191.273 20.136 191.913 19.8053 192.318 19.144C192.734 18.4827 192.942 17.5493 192.942 16.344C192.942 16.1947 192.942 16.0187 192.942 15.816C192.942 15.6133 192.942 15.416 192.942 15.224C192.75 15.8 192.43 16.248 191.982 16.568C191.534 16.888 190.985 17.048 190.334 17.048C189.769 17.048 189.273 16.9147 188.846 16.648C188.419 16.3707 188.089 15.9387 187.854 15.352C187.619 14.7547 187.502 13.9813 187.502 13.032C187.502 12.6053 187.534 12.184 187.598 11.768C187.673 11.3413 187.79 10.9413 187.95 10.568C188.121 10.1947 188.345 9.864 188.622 9.576C188.899 9.27733 189.251 9.048 189.678 8.888C190.105 8.71733 190.617 8.632 191.214 8.632C191.587 8.632 191.966 8.66933 192.35 8.744C192.745 8.808 193.118 8.92 193.47 9.08C193.822 9.22933 194.126 9.432 194.382 9.688V16.28C194.382 17.3787 194.206 18.248 193.854 18.888C193.502 19.5387 193.022 20.0027 192.414 20.28C191.817 20.5573 191.129 20.696 190.35 20.696ZM190.734 16.296C191.139 16.296 191.481 16.2053 191.758 16.024C192.035 15.832 192.259 15.5813 192.43 15.272C192.601 14.9627 192.723 14.616 192.798 14.232C192.883 13.8373 192.926 13.4373 192.926 13.032L192.942 9.8C192.771 9.61867 192.531 9.48 192.222 9.384C191.913 9.288 191.577 9.24 191.214 9.24C190.755 9.24 190.382 9.352 190.094 9.576C189.806 9.78933 189.587 10.0827 189.438 10.456C189.289 10.8187 189.182 11.2347 189.118 11.704C189.065 12.1733 189.038 12.664 189.038 13.176C189.038 14.2853 189.171 15.0853 189.438 15.576C189.715 16.056 190.147 16.296 190.734 16.296ZM199.823 17.192C199.578 17.192 199.375 17.1173 199.215 16.968C199.055 16.808 198.975 16.5947 198.975 16.328V10.584C198.964 10.2853 198.927 10.0773 198.863 9.96C198.799 9.832 198.687 9.768 198.527 9.768C198.474 9.768 198.404 9.784 198.319 9.816C198.234 9.83733 198.164 9.896 198.111 9.992C197.983 9.82133 197.919 9.64533 197.919 9.464C197.919 9.21867 198.004 9.02133 198.175 8.872C198.356 8.72267 198.612 8.648 198.943 8.648C199.37 8.648 199.695 8.792 199.919 9.08C200.154 9.368 200.271 9.8 200.271 10.376V11.368L200.015 11.704C200.09 11.064 200.255 10.5147 200.511 10.056C200.767 9.59733 201.103 9.24533 201.519 9C201.946 8.75467 202.436 8.632 202.991 8.632C203.876 8.632 204.527 8.91467 204.943 9.48C205.359 10.0347 205.567 10.856 205.567 11.944V15.08C205.578 15.3467 205.599 15.6453 205.631 15.976C205.663 16.3067 205.722 16.6 205.807 16.856C205.711 16.952 205.594 17.032 205.455 17.096C205.327 17.16 205.167 17.192 204.975 17.192C204.73 17.192 204.527 17.1227 204.367 16.984C204.207 16.8347 204.127 16.6373 204.127 16.392V12.136C204.116 11.2613 203.999 10.5947 203.775 10.136C203.562 9.67733 203.156 9.448 202.559 9.448C202.303 9.448 202.047 9.51733 201.791 9.656C201.535 9.784 201.3 9.99733 201.087 10.296C200.884 10.584 200.719 10.968 200.591 11.448C200.474 11.9173 200.415 12.488 200.415 13.16C200.415 13.7787 200.415 14.2907 200.415 14.696C200.415 15.1013 200.42 15.4373 200.431 15.704C200.452 15.96 200.479 16.1787 200.511 16.36C200.543 16.5307 200.591 16.7013 200.655 16.872C200.591 16.9253 200.484 16.9893 200.335 17.064C200.196 17.1493 200.026 17.192 199.823 17.192Z" fill="white"/>
<path d="M103.916 24.331C104.054 24.349 104.198 24.364 104.348 24.376C104.498 24.382 104.645 24.385 104.789 24.385C104.897 24.385 105.053 24.385 105.257 24.385C105.467 24.385 105.698 24.385 105.95 24.385C106.202 24.385 106.451 24.385 106.697 24.385C106.949 24.385 107.174 24.385 107.372 24.385C107.576 24.385 107.729 24.385 107.831 24.385C107.969 24.385 108.116 24.382 108.272 24.376C108.434 24.364 108.587 24.349 108.731 24.331V25.258C108.587 25.246 108.437 25.237 108.281 25.231C108.125 25.225 107.975 25.222 107.831 25.222C107.729 25.222 107.576 25.222 107.372 25.222C107.174 25.222 106.949 25.222 106.697 25.222C106.451 25.222 106.202 25.222 105.95 25.222C105.698 25.222 105.47 25.222 105.266 25.222C105.062 25.222 104.906 25.222 104.798 25.222C104.648 25.222 104.495 25.225 104.339 25.231C104.183 25.237 104.042 25.246 103.916 25.258V24.331ZM102.854 26.608C102.98 26.62 103.112 26.632 103.25 26.644C103.394 26.65 103.535 26.653 103.673 26.653C103.751 26.653 103.904 26.653 104.132 26.653C104.366 26.653 104.648 26.653 104.978 26.653C105.314 26.653 105.671 26.653 106.049 26.653C106.433 26.653 106.817 26.653 107.201 26.653C107.585 26.653 107.942 26.653 108.272 26.653C108.602 26.653 108.881 26.653 109.109 26.653C109.343 26.653 109.496 26.653 109.568 26.653C109.664 26.653 109.784 26.65 109.928 26.644C110.078 26.638 110.21 26.626 110.324 26.608V27.535C110.216 27.529 110.09 27.526 109.946 27.526C109.808 27.52 109.682 27.517 109.568 27.517C109.496 27.517 109.343 27.517 109.109 27.517C108.881 27.517 108.602 27.517 108.272 27.517C107.942 27.517 107.585 27.517 107.201 27.517C106.817 27.517 106.433 27.517 106.049 27.517C105.671 27.517 105.314 27.517 104.978 27.517C104.648 27.517 104.366 27.517 104.132 27.517C103.904 27.517 103.751 27.517 103.673 27.517C103.541 27.517 103.403 27.52 103.259 27.526C103.115 27.526 102.98 27.532 102.854 27.544V26.608ZM107.255 27.085C107.255 27.661 107.21 28.183 107.12 28.651C107.03 29.119 106.886 29.539 106.688 29.911C106.58 30.115 106.436 30.322 106.256 30.532C106.076 30.736 105.869 30.931 105.635 31.117C105.407 31.303 105.161 31.462 104.897 31.594L104.069 30.982C104.399 30.844 104.714 30.655 105.014 30.415C105.32 30.175 105.56 29.917 105.734 29.641C105.962 29.287 106.109 28.897 106.175 28.471C106.241 28.039 106.277 27.58 106.283 27.094L107.255 27.085ZM109.226 23.647C109.304 23.749 109.388 23.875 109.478 24.025C109.568 24.175 109.655 24.325 109.739 24.475C109.823 24.625 109.895 24.76 109.955 24.88L109.361 25.132C109.271 24.952 109.16 24.742 109.028 24.502C108.896 24.262 108.77 24.058 108.65 23.89L109.226 23.647ZM110.243 23.26C110.327 23.374 110.414 23.506 110.504 23.656C110.6 23.806 110.69 23.956 110.774 24.106C110.864 24.25 110.936 24.376 110.99 24.484L110.405 24.745C110.309 24.553 110.192 24.34 110.054 24.106C109.922 23.872 109.793 23.671 109.667 23.503L110.243 23.26ZM119.567 24.079C119.621 24.187 119.678 24.316 119.738 24.466C119.804 24.616 119.864 24.766 119.918 24.916C119.978 25.06 120.029 25.192 120.071 25.312L119.549 25.492C119.507 25.36 119.456 25.222 119.396 25.078C119.342 24.928 119.285 24.781 119.225 24.637C119.171 24.487 119.114 24.355 119.054 24.241L119.567 24.079ZM120.476 23.791C120.536 23.905 120.596 24.037 120.656 24.187C120.722 24.331 120.785 24.478 120.845 24.628C120.905 24.772 120.953 24.907 120.989 25.033L120.467 25.204C120.401 25.006 120.323 24.793 120.233 24.565C120.143 24.331 120.053 24.127 119.963 23.953L120.476 23.791ZM118.748 27.085C118.748 27.667 118.706 28.189 118.622 28.651C118.544 29.107 118.409 29.518 118.217 29.884C118.025 30.244 117.758 30.568 117.416 30.856C117.074 31.138 116.639 31.396 116.111 31.63L115.346 30.919C115.772 30.763 116.138 30.589 116.444 30.397C116.756 30.205 117.014 29.968 117.218 29.686C117.422 29.404 117.572 29.059 117.668 28.651C117.77 28.237 117.821 27.733 117.821 27.139V24.862C117.821 24.676 117.815 24.517 117.803 24.385C117.797 24.247 117.788 24.145 117.776 24.079H118.793C118.787 24.145 118.778 24.247 118.766 24.385C118.754 24.517 118.748 24.676 118.748 24.862V27.085ZM115.499 24.142C115.493 24.202 115.484 24.298 115.472 24.43C115.46 24.556 115.454 24.703 115.454 24.871V28.129C115.454 28.249 115.457 28.369 115.463 28.489C115.469 28.609 115.472 28.714 115.472 28.804C115.478 28.894 115.484 28.96 115.49 29.002H114.491C114.497 28.96 114.503 28.894 114.509 28.804C114.515 28.714 114.521 28.609 114.527 28.489C114.533 28.369 114.536 28.249 114.536 28.129V24.862C114.536 24.754 114.53 24.637 114.518 24.511C114.512 24.385 114.503 24.262 114.491 24.142H115.499ZM112.718 25.834C112.76 25.84 112.829 25.849 112.925 25.861C113.021 25.873 113.132 25.885 113.258 25.897C113.384 25.903 113.516 25.906 113.654 25.906H119.585C119.807 25.906 119.99 25.9 120.134 25.888C120.284 25.876 120.401 25.864 120.485 25.852V26.806C120.419 26.8 120.308 26.794 120.152 26.788C119.996 26.782 119.81 26.779 119.594 26.779H113.654C113.516 26.779 113.384 26.782 113.258 26.788C113.138 26.788 113.03 26.791 112.934 26.797C112.844 26.803 112.772 26.806 112.718 26.806V25.834ZM123.167 27.643C123.959 27.433 124.685 27.184 125.345 26.896C126.011 26.602 126.593 26.299 127.091 25.987C127.409 25.795 127.718 25.579 128.018 25.339C128.324 25.099 128.612 24.85 128.882 24.592C129.152 24.334 129.389 24.085 129.593 23.845L130.349 24.565C130.085 24.835 129.8 25.102 129.494 25.366C129.188 25.63 128.864 25.885 128.522 26.131C128.186 26.371 127.841 26.599 127.487 26.815C127.157 27.019 126.782 27.226 126.362 27.436C125.942 27.64 125.498 27.838 125.03 28.03C124.562 28.216 124.088 28.384 123.608 28.534L123.167 27.643ZM126.929 26.455L127.928 26.194V30.271C127.928 30.391 127.928 30.523 127.928 30.667C127.934 30.805 127.94 30.934 127.946 31.054C127.958 31.174 127.973 31.267 127.991 31.333H126.875C126.881 31.267 126.89 31.174 126.902 31.054C126.914 30.934 126.92 30.805 126.92 30.667C126.926 30.523 126.929 30.391 126.929 30.271V26.455ZM134.75 24.295C134.912 24.403 135.098 24.538 135.308 24.7C135.518 24.856 135.731 25.024 135.947 25.204C136.169 25.384 136.379 25.558 136.577 25.726C136.775 25.894 136.934 26.044 137.054 26.176L136.343 26.905C136.229 26.785 136.079 26.641 135.893 26.473C135.707 26.299 135.506 26.122 135.29 25.942C135.08 25.756 134.87 25.582 134.66 25.42C134.45 25.252 134.261 25.111 134.093 24.997L134.75 24.295ZM133.823 30.316C134.327 30.238 134.792 30.136 135.218 30.01C135.644 29.878 136.034 29.731 136.388 29.569C136.748 29.401 137.072 29.23 137.36 29.056C137.84 28.762 138.281 28.423 138.683 28.039C139.091 27.655 139.448 27.259 139.754 26.851C140.06 26.443 140.303 26.047 140.483 25.663L141.032 26.644C140.816 27.034 140.549 27.424 140.231 27.814C139.919 28.204 139.565 28.579 139.169 28.939C138.773 29.293 138.341 29.614 137.873 29.902C137.573 30.088 137.243 30.268 136.883 30.442C136.529 30.616 136.145 30.772 135.731 30.91C135.323 31.048 134.888 31.159 134.426 31.243L133.823 30.316ZM146.891 24.826C147.155 24.868 147.452 24.898 147.782 24.916C148.118 24.934 148.463 24.94 148.817 24.934C149.171 24.928 149.51 24.916 149.834 24.898C150.158 24.88 150.437 24.856 150.671 24.826V25.744C150.413 25.768 150.122 25.789 149.798 25.807C149.474 25.819 149.138 25.825 148.79 25.825C148.448 25.825 148.112 25.819 147.782 25.807C147.452 25.789 147.158 25.768 146.9 25.744L146.891 24.826ZM147.404 28.57C147.368 28.726 147.338 28.867 147.314 28.993C147.296 29.119 147.287 29.245 147.287 29.371C147.287 29.473 147.308 29.569 147.35 29.659C147.398 29.749 147.473 29.827 147.575 29.893C147.683 29.959 147.827 30.013 148.007 30.055C148.193 30.091 148.421 30.109 148.691 30.109C149.099 30.109 149.48 30.091 149.834 30.055C150.194 30.013 150.56 29.95 150.932 29.866L150.95 30.829C150.668 30.883 150.338 30.928 149.96 30.964C149.588 30.994 149.159 31.009 148.673 31.009C147.911 31.009 147.347 30.886 146.981 30.64C146.621 30.388 146.441 30.043 146.441 29.605C146.441 29.443 146.453 29.275 146.477 29.101C146.501 28.921 146.54 28.72 146.594 28.498L147.404 28.57ZM145.325 24.178C145.307 24.232 145.283 24.304 145.253 24.394C145.229 24.478 145.205 24.565 145.181 24.655C145.163 24.739 145.148 24.808 145.136 24.862C145.106 25.012 145.07 25.195 145.028 25.411C144.992 25.621 144.953 25.852 144.911 26.104C144.875 26.35 144.839 26.602 144.803 26.86C144.773 27.112 144.746 27.358 144.722 27.598C144.704 27.838 144.695 28.057 144.695 28.255C144.695 28.411 144.698 28.57 144.704 28.732C144.716 28.888 144.731 29.05 144.749 29.218C144.803 29.098 144.857 28.972 144.911 28.84C144.965 28.702 145.019 28.567 145.073 28.435C145.127 28.303 145.178 28.183 145.226 28.075L145.676 28.435C145.598 28.657 145.514 28.903 145.424 29.173C145.334 29.443 145.253 29.701 145.181 29.947C145.115 30.187 145.067 30.382 145.037 30.532C145.025 30.592 145.013 30.664 145.001 30.748C144.989 30.826 144.986 30.892 144.992 30.946C144.992 30.988 144.992 31.039 144.992 31.099C144.998 31.165 145.004 31.225 145.01 31.279L144.191 31.333C144.101 31.021 144.023 30.61 143.957 30.1C143.891 29.59 143.858 29.032 143.858 28.426C143.858 28.09 143.873 27.751 143.903 27.409C143.933 27.061 143.969 26.725 144.011 26.401C144.053 26.077 144.095 25.78 144.137 25.51C144.185 25.24 144.221 25.015 144.245 24.835C144.263 24.721 144.278 24.598 144.29 24.466C144.308 24.334 144.32 24.208 144.326 24.088L145.325 24.178ZM153.578 26.194C153.74 26.164 153.911 26.125 154.091 26.077C154.277 26.029 154.454 25.981 154.622 25.933C154.802 25.879 155.039 25.804 155.333 25.708C155.633 25.606 155.96 25.507 156.314 25.411C156.674 25.309 157.04 25.225 157.412 25.159C157.784 25.093 158.135 25.06 158.465 25.06C158.981 25.06 159.446 25.156 159.86 25.348C160.28 25.54 160.613 25.819 160.859 26.185C161.111 26.551 161.237 26.998 161.237 27.526C161.237 27.952 161.159 28.336 161.003 28.678C160.847 29.02 160.622 29.326 160.328 29.596C160.034 29.866 159.68 30.097 159.266 30.289C158.858 30.475 158.396 30.625 157.88 30.739C157.37 30.847 156.821 30.916 156.233 30.946L155.828 30.01C156.428 29.992 156.992 29.932 157.52 29.83C158.048 29.728 158.516 29.578 158.924 29.38C159.332 29.182 159.653 28.93 159.887 28.624C160.121 28.312 160.238 27.943 160.238 27.517C160.238 27.211 160.169 26.938 160.031 26.698C159.893 26.458 159.686 26.266 159.41 26.122C159.14 25.978 158.813 25.906 158.429 25.906C158.147 25.906 157.838 25.942 157.502 26.014C157.172 26.08 156.833 26.164 156.485 26.266C156.143 26.368 155.81 26.479 155.486 26.599C155.168 26.719 154.877 26.833 154.613 26.941C154.355 27.043 154.145 27.13 153.983 27.202L153.578 26.194ZM165.314 24.655C165.296 24.739 165.281 24.841 165.269 24.961C165.257 25.081 165.245 25.201 165.233 25.321C165.227 25.441 165.224 25.543 165.224 25.627C165.224 25.813 165.224 26.02 165.224 26.248C165.23 26.476 165.236 26.71 165.242 26.95C165.248 27.184 165.263 27.418 165.287 27.652C165.335 28.126 165.407 28.54 165.503 28.894C165.599 29.248 165.722 29.524 165.872 29.722C166.022 29.92 166.196 30.019 166.394 30.019C166.508 30.019 166.616 29.965 166.718 29.857C166.82 29.749 166.916 29.605 167.006 29.425C167.096 29.245 167.177 29.05 167.249 28.84C167.327 28.624 167.393 28.417 167.447 28.219L168.158 29.056C167.966 29.566 167.774 29.974 167.582 30.28C167.396 30.58 167.204 30.796 167.006 30.928C166.808 31.06 166.598 31.126 166.376 31.126C166.076 31.126 165.788 31.024 165.512 30.82C165.242 30.61 165.008 30.268 164.81 29.794C164.612 29.32 164.471 28.687 164.387 27.895C164.357 27.631 164.333 27.346 164.315 27.04C164.303 26.734 164.294 26.443 164.288 26.167C164.288 25.891 164.288 25.663 164.288 25.483C164.288 25.369 164.282 25.231 164.27 25.069C164.264 24.901 164.246 24.757 164.216 24.637L165.314 24.655ZM169.922 24.88C170.084 25.09 170.24 25.336 170.39 25.618C170.546 25.894 170.687 26.194 170.813 26.518C170.939 26.842 171.05 27.172 171.146 27.508C171.248 27.844 171.332 28.177 171.398 28.507C171.464 28.837 171.509 29.149 171.533 29.443L170.606 29.803C170.57 29.413 170.51 29.005 170.426 28.579C170.342 28.153 170.234 27.733 170.102 27.319C169.97 26.899 169.814 26.506 169.634 26.14C169.46 25.768 169.259 25.447 169.031 25.177L169.922 24.88ZM173.772 24.925C173.946 24.919 174.108 24.913 174.258 24.907C174.408 24.895 174.525 24.886 174.609 24.88C174.771 24.868 174.987 24.85 175.257 24.826C175.533 24.796 175.845 24.766 176.193 24.736C176.541 24.7 176.913 24.667 177.309 24.637C177.705 24.601 178.11 24.565 178.524 24.529C178.848 24.499 179.16 24.475 179.46 24.457C179.76 24.433 180.042 24.415 180.306 24.403C180.57 24.385 180.804 24.373 181.008 24.367V25.276C180.846 25.276 180.657 25.279 180.441 25.285C180.231 25.291 180.021 25.303 179.811 25.321C179.601 25.339 179.418 25.369 179.262 25.411C178.962 25.501 178.689 25.642 178.443 25.834C178.197 26.026 177.987 26.248 177.813 26.5C177.639 26.752 177.504 27.019 177.408 27.301C177.312 27.577 177.264 27.85 177.264 28.12C177.264 28.444 177.321 28.729 177.435 28.975C177.549 29.221 177.705 29.431 177.903 29.605C178.101 29.773 178.326 29.914 178.578 30.028C178.836 30.136 179.109 30.217 179.397 30.271C179.691 30.325 179.988 30.358 180.288 30.37L179.955 31.324C179.601 31.312 179.25 31.261 178.902 31.171C178.56 31.081 178.233 30.958 177.921 30.802C177.615 30.64 177.342 30.442 177.102 30.208C176.868 29.968 176.682 29.692 176.544 29.38C176.412 29.068 176.346 28.711 176.346 28.309C176.346 27.859 176.421 27.442 176.571 27.058C176.727 26.674 176.922 26.341 177.156 26.059C177.396 25.771 177.636 25.546 177.876 25.384C177.696 25.408 177.474 25.435 177.21 25.465C176.946 25.489 176.661 25.519 176.355 25.555C176.055 25.585 175.752 25.621 175.446 25.663C175.14 25.699 174.849 25.738 174.573 25.78C174.303 25.822 174.069 25.867 173.871 25.915L173.772 24.925Z" fill="white"/>
<circle cx="213.602" cy="37.5" r="4.25" stroke="white" stroke-width="0.5"/>
<path d="M209.602 37.5H28.1019L0.101929 50" stroke="white" stroke-width="0.5"/>
</svg>
