<svg width="322" height="287" viewBox="0 0 322 287" fill="none" xmlns="http://www.w3.org/2000/svg">
<g opacity="0.82" filter="url(#filter0_f_1_3521)">
<path d="M116.512 261.827C113.682 261.271 110.339 259.528 107.946 257.935C107.192 257.436 107.927 256.75 107.415 256.365C106.434 255.622 105.238 255.642 104.284 254.834C103.967 254.561 104.932 253.4 104.587 253.144C102.728 251.764 100.633 251.351 98.6316 250.255C88.7902 244.856 78.8622 240.329 68.7168 235.487C67.1941 234.76 65.5986 233.757 63.9498 232.788C61.9293 231.612 59.9282 230.505 57.8425 229.934C57.3952 229.813 57.1457 231.071 57.0244 231.131C55.1342 232.03 56.592 229.906 55.8924 229.23C53.1871 226.583 49.6752 224.816 46.3764 223.686C44.9596 223.2 45.1508 226.093 44.4504 224.162C44.4023 224.031 45.3456 223.021 45.0529 222.71C44.3939 222.011 42.7424 221.397 42.1461 220.945C41.0523 220.099 40.8155 219.98 39.6967 219.313C38.1445 218.369 36.6476 216.663 34.8348 215.787C34.4469 215.604 34.1507 217.057 33.4355 216.845C32.7221 216.64 31.2802 215.443 30.9582 214.779C30.6523 214.135 31.53 213.458 31.5938 213.196C32.1713 211.031 28.7205 211.857 28.4286 211.677C25.0887 209.848 23.1289 206.638 21.6638 203.921C20.8341 202.502 20.1344 201.059 19.4226 199.629C17.5763 195.949 16.0433 192.026 15.5899 188.524C15.0702 184.349 15.7076 180.969 15.6298 177.22C15.6251 176.824 14.0128 177.262 14.0049 176.771C13.9347 171.545 14.6153 166.549 16.322 161.821C16.4894 161.362 17.7205 162.105 18.0352 161.741C18.0465 161.726 18.0567 161.71 18.0657 161.693C19.6378 158.363 23.5983 154.736 18.4359 150.959C19.3665 148.947 20.5659 146.593 22.4478 145.356C23.6585 144.565 24.592 146.253 24.5871 144.648C24.5898 144.286 23.1876 144.129 23.2846 143.628C23.705 141.502 25.1002 139.64 25.4279 137.494C25.4925 137.055 24.3719 136.602 24.235 136.395C23.1458 134.679 26.5034 134.562 26.8576 134.356C29.5524 132.703 29.9931 130.7 31.3194 128.543C31.6275 128.045 29.8849 127.81 30.1319 127.302C31.4424 124.661 33.1791 122.152 35.3318 120.148C35.8131 119.707 36.6527 120.943 36.9406 120.772C37.6959 120.316 37.2669 119.526 37.0654 118.801C36.9311 118.324 36.8964 117.875 37.3669 117.572C37.6138 117.409 38.5096 118.19 38.6449 118.221C40.7654 118.704 38.7421 116.556 38.8041 116.351C39.5035 113.775 42.889 114.18 43.9275 111.987C44.0511 111.721 42.458 111.384 42.8817 110.687C45.6913 106.052 49.4588 101.744 53.6568 98.3036C54.308 97.7677 54.8294 98.9208 54.9703 98.9648C57.1878 99.6323 55.2474 97.4211 55.3284 97.1418C56.021 94.9921 59.1479 94.9612 57.3576 91.6888C63.8979 85.4524 68.155 77.3716 76.308 72.6975C76.4099 72.6348 77.3504 73.7238 77.5487 73.5952C79.0024 72.675 78.8217 71.8999 78.2439 70.7355C77.8949 69.9929 77.402 69.0855 77.0677 67.8888C76.8708 67.0833 80.2227 68.2295 80.4861 68.2946C81.4387 68.5522 82.7184 70.3018 82.944 70.3055C84.7535 70.294 79.3921 65.7734 80.5164 64.5237C80.5593 64.4937 81.3721 65.5179 81.5591 65.5023C82.1564 65.4422 82.0602 64.7859 82.6802 64.7657C84.1037 64.7338 86.8226 66.8025 86.3942 64.3669C86.3454 64.0469 83.227 61.5472 84.4544 60.5449C84.924 60.1558 86.9082 58.0978 87.8302 57.6804C88.7021 57.2809 89.0309 58.6796 89.1221 58.6746C92.0557 58.5161 91.8753 59.5963 93.9076 61.2918C95.5835 63.2576 93.2016 57.8242 93.5444 56.9985C93.5562 56.9682 93.5707 56.9403 93.5877 56.9146C94.0993 56.1982 96.1956 57.191 96.5676 57.679C97.0075 58.1455 96.5407 58.98 96.8904 59.2418C98.928 61.0799 98.0477 56.3184 99.0473 55.4536C101.799 53.5809 102.238 58.4341 103.366 59.4192C103.712 59.7062 103.808 58.6416 104.211 58.7268C105.83 59.118 105.904 60.7543 108.038 60.654C108.129 60.6512 108.372 60.556 108.681 60.4569C109.649 60.2012 111.476 60.3067 111.025 61.9506C110.924 62.2543 109.853 62.7142 110.163 63.416C110.626 64.4578 111.399 66.0354 112.222 66.7564C112.841 67.2987 113.987 65.6239 113.976 66.7777C113.963 67.2873 112.653 67.0825 112.683 67.9623C112.72 68.8386 113.576 70.5782 113.898 71.256C114.219 71.9123 115.33 71.01 115.439 71.0273C116.075 71.1585 117.234 72.2521 117.282 72.3858C119.778 78.3464 119.235 84.5101 121.728 90.0717C121.922 90.5168 123.22 89.7916 123.264 89.8552C124.311 91.2317 120.248 91.1136 119.332 92.562C122.106 91.5571 121.795 92.381 122.422 93.3643C122.728 93.8426 123.738 93.2361 123.864 93.2507C125.756 93.5422 123.774 94.7379 123.375 95.0043C121.906 95.9821 123.98 95.9878 123.002 96.6571C122.032 97.3235 120.204 96.9656 120.532 98.0202C121.631 98.0274 124.048 96.4662 124.713 97.1572C124.718 97.1625 124.723 97.1678 124.728 97.1732C127.233 99.7719 126.641 106.057 127.017 108.543C127.404 111.043 127.784 111.807 127.752 113.311C127.697 116.07 129.457 114.629 130.745 116.032C132.033 117.447 126.948 117.787 125.948 118.262C124.947 118.728 126.087 118.724 125.573 119.136C125.057 119.548 124.203 119.109 124.135 119.814C124.069 120.52 126.353 121.901 127.507 121.884C129.956 121.856 132.225 120.484 131.758 122.441C131.729 122.554 130.365 122.512 130.321 122.93C130.01 126.214 130.64 129.416 130.411 132.67C130.377 133.116 128.858 133.047 128.822 133.31C128.441 136.051 130.676 134.631 133.667 135.465C130.012 135.905 127.979 137.135 128.36 139.076C128.587 140.242 130.114 139.716 131.376 140.241C131.756 140.399 130.848 141.446 131.617 141.444C134.13 141.442 136.671 140.109 136.006 142.335C135.973 142.433 134.595 142.423 134.577 142.743C134.454 144.812 137.026 144.536 137.761 146.599C138.337 148.219 137.389 151.493 137.512 153.434C133.459 154.195 134.739 155.802 137.67 155.978C137.798 157.231 138.216 158.531 138.061 159.794C138.009 160.23 136.785 160.188 136.668 160.265C134.837 161.445 137.655 161.451 137.813 161.696C139.407 164.379 137.797 167.113 140.335 169.482C140.426 169.566 143.27 169.189 141.355 170.311C141.222 170.385 139.771 169.728 139.916 171.03C140.065 172.353 139.019 175.081 140.659 176.613C141.056 176.995 143.55 177.673 141.928 178.878C141.708 179.039 140.876 179.064 140.459 179.316C139.131 180.139 142.034 179.909 139.737 181.006C137.439 182.091 135.884 183.794 137.888 185.274C137.947 185.324 140.284 185.338 140.355 185.912C140.391 186.215 140.39 186.566 140.379 186.931C140.362 187.702 140.301 188.527 140.425 189.146C140.516 189.601 141.864 189.051 141.904 189.126C143.251 192.048 142.393 194.458 142.397 197.843C142.394 198.455 144.592 199.875 143.254 201.303C141.778 202.814 134.683 202.578 136.733 205.178C137.542 206.184 146.559 206.651 142.197 209.301C143.664 213.418 141.657 217.031 141.78 220.918C141.783 221.062 143.096 222.077 143.457 222.736C143.548 222.893 143.586 223.023 143.538 223.103C143.172 223.705 141.972 223.482 141.675 223.853C140.4 225.385 140.15 227.444 138.762 228.856C138.24 229.38 137.504 228.407 136.89 228.989C136.277 229.559 136.999 231.088 135.615 231.363C134.557 231.571 131.783 229.737 130.732 230.131C132.747 232.586 132.115 233.046 131.504 234.583C131.386 234.881 132.298 235.573 132.276 235.76C132.197 236.542 131.245 236.112 131.208 236.913C131.197 237.107 131.839 237.982 131.866 238.19C132.105 240.004 129.516 238.859 129.082 238.647C127.392 237.876 127.869 239.271 126.937 239.169C125.994 239.078 126.367 237.81 125.472 237.995C124.702 238.163 123.956 238.531 123.25 239.048L123.758 238.756C122.686 238.985 121.618 239.314 120.657 239.49C120.006 239.615 120.742 240.94 120.656 240.99C119.307 241.646 117.678 240.319 117.269 243.285C115.322 236.015 116.496 244.116 114.275 242.882C114.102 242.781 113.463 239.305 114.02 238.715C114.575 238.126 115.637 239.11 116.356 238.201C116.542 237.988 117.151 234.564 117.237 234.346C118.03 232.639 119.079 237.795 119.207 238.068C120.493 241.017 121.096 237.227 121.299 236.913C121.787 236.304 122.284 236.004 122.782 235.77L121.16 236.703C121.958 235.867 122.744 235.348 123.188 234.428C123.68 233.417 121.734 230.566 122.412 230.207C124.567 229.083 128.122 232.469 127.181 227.893C126.962 226.923 124.262 224.27 127.254 225.636C127.428 225.738 130.066 227.044 129.351 225.354C129.259 225.144 128.504 224.344 128.51 224.211C128.558 223.341 129.472 223.668 129.632 222.887C129.789 222.107 129.798 221.143 130.518 220.827C130.946 220.646 132.932 221.397 133.479 221.488C135.052 221.76 133.409 219.916 135.104 220.484C136.846 220.983 138.688 223.154 140.319 222.574C137.837 221.156 135.306 219.669 132.798 218.264C132.916 218.07 133.039 217.879 133.167 217.687C133.492 217.274 133.777 217.176 134.078 216.638C134.368 216.125 134.587 215.265 134.53 214.27C134.511 213.99 132.976 214.28 132.914 213.987C132.656 212.773 133.664 211.431 133.076 209.892C132.615 208.707 130.835 207.54 130.25 206.277C133.381 205.013 131.991 203.164 132.049 201.632C132.069 201.099 132.937 200.994 133.157 200.571C133.971 199.004 131.225 200.127 130.713 199.818C128.525 198.492 134.948 197.239 134.448 195.311C134.422 195.2 130.764 194.536 130.519 194.404C128.925 193.537 131.681 194.008 131.808 193.255C132.044 191.913 132.695 190.842 131.415 189.545C131.244 189.371 130.675 189.14 130.237 188.827C129.709 188.463 129.376 187.978 130.194 187.334C130.389 187.18 131.533 187.031 131.583 186.927C132.377 185.053 128.814 185.707 127.43 184.979C126.046 184.251 128.235 182.361 128.885 181.92C130.569 180.792 129.781 182.372 129.968 182.378C132.2 182.473 131.63 181.466 131.659 180.629C135.128 179.858 134.705 178.767 131.676 179.762C131.345 179.873 131.789 180.438 131.659 180.629C128.105 180.578 127.426 179.385 130.37 177.429C131.748 176.503 133.611 176.778 132.6 174.942C132.145 174.115 129.807 174.912 129.004 174.254C127.169 172.744 128.968 170.005 128.261 168.23C128.004 167.583 126.815 168.49 126.594 168.057C126.006 166.919 126.786 165.66 126.045 164.54C125.976 164.44 124.653 164.974 124.562 164.601C123.848 161.767 124.243 159.111 123.676 156.116C123.404 154.676 122.132 152.248 121.985 150.727C121.723 148.093 123.072 144.507 122.131 142.4C121.524 141.026 120.217 141.626 119.155 141.206C117.096 140.393 119.903 137.626 120.344 137.231C120.359 137.22 120.942 138.387 121.508 137.581C122.894 136.888 120.354 137.244 120.344 137.231C120.63 136.974 120.421 134.451 120.052 134.012C119.852 133.776 118.586 134.202 118.506 134.074C116.641 131.035 115.596 127.831 115.456 124.381C115.469 124.317 116.937 124.079 116.95 123.932C117.16 121.862 115.11 121.054 113.691 119.713C112.278 118.397 112.332 117.063 114.592 115.552C113.995 114.435 114.684 112.505 115.099 111.344C115.519 110.201 112.682 110.776 112.606 110.705C110.16 108.494 111.379 106.604 110.883 103.821C110.777 103.203 110.445 102.265 110.07 101.406C109.642 100.388 109.169 99.4419 108.794 98.7407C108.217 97.6755 108.678 96.8434 107.95 95.9184C107.854 95.7959 106.662 96.3036 106.602 96.2754C104.787 95.5804 107.965 95.2271 108.434 94.8318C110.133 93.3841 111.016 92.5379 109.647 91.3463C109.329 91.0573 104.709 91.4508 104.262 90.9052C103.695 90.2172 105.339 90.0325 104.707 89.3354C104.654 89.2741 103.702 89.5869 103.583 89.0662C103.022 86.6681 102.756 84.0014 101.837 81.7425C101.716 81.4364 100.363 82.3678 100.166 81.9435C99.2479 79.9603 98.4584 77.8234 98.4491 76.1091C98.4537 75.6902 99.5543 75.4085 99.8142 75.1882C101.349 73.7772 98.4819 74.6037 98.4154 74.6052C97.9107 74.383 97.7024 74.3091 97.7968 74.4056C97.876 74.4923 98.3427 74.7677 98.7328 74.8473C97.9787 73.8936 97.1045 72.9782 96.5915 73.529C96.5664 73.5584 96.2759 74.3071 96.2788 74.7751C96.2567 75.2395 96.5763 75.4011 96.8456 74.0803C96.8644 73.9927 96.999 73.2739 97.1068 72.8046C97.2254 72.3348 97.2948 72.1199 97.5494 73.0355C97.6056 73.1453 97.3662 74.589 97.9581 74.3775C98.2105 74.2813 98.594 74.3464 99.0148 74.2735C99.1595 74.2735 99.8308 74.0314 100.238 73.6843C100.663 73.3357 100.817 72.9383 100.662 72.506C100.587 71.9604 98.6354 69.9967 99.5136 72.1454C99.5715 72.2915 102.146 76.6341 99.3527 74.6517C98.8941 74.325 96.3943 71.7415 96.8619 73.9145C96.9564 74.333 97.8371 74.566 97.764 75.3705C97.6679 76.5939 96.0657 76.916 96.4084 78.9196C96.4771 79.2649 97.6673 81.5801 95.7861 80.9135C95.491 80.8096 94.7456 79.8464 94.3812 80.0538C93.2971 80.6719 92.613 81.6815 91.774 82.6067C91.2777 83.1531 90.7051 83.6878 89.9813 84.0385C89.3014 84.3762 88.0696 82.8429 87.2063 83.0456C86.3354 83.2572 84.994 84.046 85.1635 85.2057C85.3388 86.3591 88.2216 87.7376 87.6632 88.7669C85.2515 93.225 80.7178 95.8086 77.3748 99.4648C76.877 100.01 78.1178 100.237 77.4522 101.083C74.9846 104.217 71.5529 110.189 67.6132 111.465C64.4448 112.495 65.4307 108.875 63.5358 110.081C62.6213 110.672 64.8071 113.722 64.7504 113.983C64.2253 116.571 61.9648 116.942 61.0924 118.951C60.9132 119.366 62.3405 119.878 62.1762 120.221C61.6291 121.394 60.3216 122.094 59.7142 123.149C59.4451 123.624 60.4078 124.187 60.0515 124.541C59.2071 125.4 58.23 125.983 56.7154 126.347C56.5771 126.38 55.8444 125.009 55.3028 125.705C54.5303 126.704 52.9874 127.53 52.6551 129.052C52.6093 129.25 52.583 129.46 52.5803 129.681C52.5765 130.271 54.6953 131.664 52.6546 131.592C52.229 131.577 49.8147 129.695 51.3695 132.147C51.6217 132.561 53.5347 136.172 51.0728 135.802C50.4256 135.702 47.9456 134.971 47.9737 135.676C47.9861 135.776 49.3126 136.219 49.1761 136.697C48.6725 138.376 47.6484 139.816 47.1695 141.51C47.0427 141.966 48.6043 142.076 48.3802 142.729C47.7728 144.51 46.3727 146.328 45.1763 147.69C44.7336 148.189 43.8981 147.259 43.7637 147.242C41.5727 146.983 43.8565 148.659 43.8951 148.947C44.0802 150.766 42.4026 151.25 42.1502 152.665C42.0788 153.052 43.406 153.343 43.4837 153.461C44.2357 154.631 42.277 153.146 41.8396 153.49C40.6028 154.467 40.131 155.933 39.8457 157.233C39.7429 157.712 41.3777 157.722 41.2738 158.135C40.695 160.572 39.9809 162.727 38.8979 164.37C38.8614 164.424 38.796 164.457 38.7111 164.476C38.3021 164.654 37.4921 164.324 37.2579 164.39C35.2684 164.945 37.6958 166.43 37.911 166.716C38.8889 168.042 37.7951 168.38 37.8832 169.444C38.3148 174.623 37.4444 180.445 37.4962 184.165C37.508 187.904 37.6554 190.326 38.396 191.67C39.0541 192.666 39.6645 193.458 40.3587 194.144C40.5517 194.336 41.5542 193.084 41.7286 193.227C43.7648 194.947 45.9197 197.385 49.472 199.044C49.7593 199.18 50.1583 197.667 50.6426 197.839C51.6223 198.172 52.7443 198.916 53.4696 199.863C53.8296 200.325 52.5708 201.1 52.9537 201.546C53.8539 202.591 55.0449 203.337 56.3923 203.75C56.9506 203.914 56.8718 202.157 57.542 202.475C62.1923 204.637 67.1017 206.527 71.404 210.473C71.6991 210.743 70.8116 213.748 71.8071 213.512C72.0887 212.948 72.3686 212.295 72.6454 211.657C72.749 211.418 72.8522 211.181 72.9549 210.951C80.753 213.621 87.8683 217.66 95.4821 220.85C95.8022 220.984 95.8523 219.229 96.4739 219.479C100.07 220.926 103.768 221.882 106.868 224.839C107.176 225.13 105.949 227.769 107.192 227.778C107.406 227.775 109.193 228.047 109.834 227.618C109.925 227.551 110.115 226.172 110.65 226.335C113.795 227.32 116.867 228.815 119.648 230.738C120.091 231.049 119.064 232.206 119.375 232.439C121.598 234.087 124.688 234.056 126.629 236.152C127.915 237.555 126.488 239.692 126.506 242.308C126.522 242.682 127.478 243.081 127.064 244.45C125.999 247.885 124.181 251.414 123.105 255.096C122.886 255.894 124.529 255.533 123.067 257.131C122.972 257.239 121.74 257.503 121.273 258.054C120.943 258.433 120.766 259.913 120.211 260.35C119.639 260.781 119.698 259.508 118.863 259.954C118.044 260.415 117.746 262.066 116.512 261.827ZM116.947 106.211C118.051 104.946 113.1 106.114 114.532 106.778C114.607 106.809 116.893 106.275 116.947 106.211ZM138.361 216.713C140.703 215.982 137.424 215.079 135.664 215.621C133.906 216.016 137.656 216.852 138.361 216.713ZM135.124 226.243C137.348 226.348 131.791 221.745 132.172 223.565C132.192 223.668 134.997 226.232 135.124 226.243ZM122.306 241.531C122.292 241.598 122.989 241.922 123.03 241.866C123.965 240.488 122.576 239.843 122.306 241.531ZM127.181 235.444C128.124 235.969 128.498 234.303 127.338 233.648C126.408 233.119 126.018 234.786 127.181 235.444ZM102.382 61.6981C102.402 61.622 101.938 61.3458 101.784 61.7476C101.286 63.031 102.058 62.9493 102.382 61.6981ZM107.867 240.399C110.994 240.661 113.204 246.543 109.57 245.944C108.925 245.83 110.935 244.026 110.107 243.5C108.619 242.543 107.643 246.28 106.136 244.277C105.865 243.91 107.689 240.371 107.873 240.391C107.871 240.393 107.869 240.396 107.867 240.399ZM122.716 104.134C122.776 104.097 122.643 103.345 122.574 103.346C120.91 103.365 121.174 104.87 122.716 104.134ZM76.0175 75.1543C75.887 75.0854 74.6164 76.3534 74.6854 76.4766C76.0848 78.8959 78.628 76.3732 76.0175 75.1543ZM137.41 153.485C139.165 153.99 139.545 154.932 137.671 155.973C137.619 155.144 137.473 154.323 137.41 153.485Z" fill="#7C7461"/>
<path d="M144.303 28.2646C146.495 28.3122 148.729 29.5302 150.109 30.7393C150.55 31.1182 149.973 31.8649 150.251 32.162C150.79 32.7424 151.549 32.5709 152.016 33.2176C152.168 33.4358 151.362 34.6458 151.529 34.8428C152.43 35.9062 153.619 36.0458 154.582 36.8429C158.029 39.7172 161.214 42.2381 164.353 44.8108C166 46.0704 167.437 47.4419 168.689 48.8612C170.276 50.6418 170.969 53.4589 172.664 54.811C172.866 54.971 173.787 54.11 173.899 54.0872C175.63 53.7785 173.43 55.0555 173.432 55.6383C173.441 57.9511 174.36 59.6579 175.625 60.8988C176.163 61.4237 177.973 59.5668 177.116 60.8942C177.058 60.9841 175.808 61.4737 175.78 61.7146C175.719 62.2591 176.325 62.878 176.391 63.2296C176.511 63.9064 176.571 63.9934 176.838 64.5471C177.192 65.3087 177.033 66.4817 177.684 67.143C177.826 67.2833 178.949 66.469 179.289 66.6426C179.63 66.8172 179.866 67.5923 179.685 67.9697C179.506 68.3477 178.485 68.6935 178.281 68.8393C176.558 70.0535 179.542 69.6775 179.656 69.7589C181.634 71.2054 180.841 73.5103 181.595 75.272C182.172 76.6127 183.266 77.8194 183.727 79.0828C183.735 79.1056 183.743 79.1284 183.751 79.1511C184.464 81.1155 184.282 82.8998 184.884 84.5896C184.947 84.7738 186.433 84.1268 186.514 84.3567C187.365 86.7809 187.672 89.2043 187.005 91.6658C186.937 91.9122 185.499 91.862 185.347 92.1206C184.453 93.7154 182.018 96.2051 188.201 96.1522C188.097 97.11 188.005 98.2737 186.885 99.2476C186.165 99.8763 184.578 99.5613 185.31 100.125C185.474 100.253 186.782 99.8907 186.926 100.097C187.531 100.95 187.221 102.006 188.02 102.839C188.185 103.007 189.374 102.812 189.595 102.839C191.391 103.067 188.595 104.146 188.405 104.331C186.983 105.714 187.697 106.525 187.785 107.659C187.805 107.918 189.377 107.433 189.454 107.677C189.829 108.954 189.839 110.323 189.262 111.661C189.131 111.963 187.733 111.85 187.6 112.002C187.031 112.674 189.63 112.514 189.133 113.146C189.031 113.279 187.852 113.337 187.725 113.373C185.742 113.934 188.637 113.927 188.71 114.01C189.693 115.02 186.781 116.067 187.319 117.09C187.387 117.214 188.839 116.763 188.938 117.12C189.324 118.488 189.441 119.916 189.296 121.385C189.188 122.444 188.94 123.478 188.559 124.539C188.421 124.926 187.277 124.8 187.143 124.839C185.045 125.475 187.946 125.369 188.069 125.472C188.96 126.296 186.672 127.506 190.17 127.68C189.512 131.788 192.031 135.362 189.712 139.791C189.686 139.848 188.269 140.017 188.224 140.129C187.662 141.479 189.794 140.831 192.603 141.101C193.308 141.167 190.218 142.394 189.994 142.496C189.167 142.862 187.048 143.074 186.894 143.172C185.686 143.982 192.537 142.507 192.686 143.227C192.679 143.252 191.396 143.416 191.283 143.502C190.927 143.772 191.468 143.855 191.071 144.129C190.153 144.759 186.851 145.604 188.931 145.854C189.2 145.881 193.06 144.927 193.014 145.602C192.991 145.87 193.308 146.978 193.129 147.35C192.95 147.72 191.652 147.791 191.603 147.825C190.147 149.055 189.388 148.883 187.048 149.895C184.721 150.911 190.492 149.42 191.18 149.442C191.867 149.464 190.657 150.41 190.222 150.678C189.787 150.948 188.949 150.946 188.716 151.151C187.199 152.51 191.688 150.85 192.68 150.922C195.023 151.068 190.877 152.694 190.629 153.456C190.561 153.659 191.498 153.263 191.629 153.393C192.133 153.896 190.907 154.65 192.314 155C192.543 155.057 195.257 154.904 193.482 155.788C193.226 155.916 192.125 156.07 191.961 156.397C191.712 156.878 191.688 157.659 192.164 157.967C192.516 158.193 194.151 157.329 193.724 157.867C193.534 158.108 192.423 158.099 192.151 158.529C191.882 158.971 192.178 159.772 192.311 160.072C192.447 160.376 193.704 159.787 193.8 159.785C194.355 159.779 195.174 160.156 195.188 160.205C196.183 162.712 194.873 165.901 196.646 168.012C196.781 168.172 198.051 167.457 198.085 167.475C198.917 167.838 195.179 168.941 194.22 169.947C196.864 168.646 196.493 169.119 197.003 169.431C197.248 169.573 198.215 168.954 198.33 168.922C200.025 168.444 198.126 169.644 197.752 169.916C196.365 170.901 198.231 170.173 197.318 170.848C196.417 171.528 194.775 171.979 195.041 172.418C196.024 172.016 198.27 170.387 198.818 170.451C198.909 170.46 198.993 170.473 199.072 170.49C200.775 170.891 200.343 173.653 200.88 174.564C201.385 175.47 201.762 175.559 201.922 176.245C202.246 177.489 203.343 175.715 204.405 175.397C205.454 175.052 202.063 178.772 201.454 179.672C200.861 180.582 201.65 179.789 201.388 180.338C201.131 180.892 200.435 181.281 200.564 181.664C200.707 182.063 202.582 181.044 203.3 180.162C204.841 178.313 205.987 176.058 206.049 177.16C206.054 177.226 205.219 178.26 205.278 178.459C205.793 180.009 206.986 180.721 207.885 182.074C208.012 182.264 207.286 183.555 207.359 183.683C208.153 185.016 208.679 182.549 210.137 180.147C208.793 183.558 208.385 185.811 209.354 186.127C209.922 186.307 210.266 184.737 210.889 183.736C211.069 183.432 211.18 184.592 211.423 183.875C212.194 181.524 212.505 178.776 213.002 180.002C213.026 180.06 212.651 181.359 212.756 181.463C213.086 181.793 213.397 181.362 213.695 180.809C213.941 180.212 214.155 179.476 214.438 179.331C214.826 179.119 215.923 180.647 216.743 180.8C217.188 184.902 217.947 183.852 217.789 180.994C218.314 181.029 218.84 180.767 219.415 181.048C219.617 181.143 219.748 182.335 219.796 182.457C220.578 184.36 220.221 181.605 220.306 181.475C221.28 180.171 222.853 181.918 223.462 179.606C223.484 179.522 222.74 176.756 223.642 178.669C223.705 178.8 223.693 180.165 224.271 180.096C224.848 180.029 226.389 181.151 226.742 179.631C226.828 179.265 226.551 176.904 227.51 178.494C227.64 178.709 227.855 179.504 228.078 179.911C228.797 181.203 227.964 178.427 229.066 180.646C230.171 182.863 231.403 184.379 231.624 182.487C231.632 182.431 231.018 180.212 231.276 180.153C231.693 180.061 232.424 180.293 232.83 180.12C233.025 180.035 232.382 178.757 232.407 178.719C233.427 177.464 234.82 178.272 236.441 178.195C236.738 178.184 236.724 176.083 237.814 177.287C239.02 178.6 241.212 185.273 241.844 183.184C242.108 182.342 239.164 173.943 241.932 177.743C243.218 175.919 245.827 177.306 246.886 175.005C246.933 174.902 246.117 172.548 246.313 172.492C246.607 172.413 247.256 173.385 247.484 173.361C248.449 173.285 248.764 172.03 249.607 171.789C249.928 171.694 250.352 172.819 250.737 172.704C250.923 172.648 250.911 172.259 250.941 171.924C250.941 171.566 250.984 171.271 251.424 171.454C252.069 171.729 254.211 174.177 254.957 174.108C253.131 171.505 253.494 171.335 253.496 170.265C253.49 170.061 252.7 169.277 252.66 169.138C252.474 168.556 253.212 169.135 252.968 168.524C252.908 168.379 252.193 167.563 252.098 167.403C251.24 166.033 253.219 167.499 253.623 167.686C255.067 168.497 254.105 167.442 254.761 167.618C255.453 167.737 255.826 168.595 256.379 168.47C257.57 168.193 257.973 166.581 257.935 165.538C257.932 165.12 256.496 165.482 256.462 165.423C256.294 165.158 256.437 164.869 256.445 164.604C256.456 164.243 256.208 163.949 254.53 164.125C261.698 162.011 253.748 163.918 254.965 162.717C255.063 162.619 258.428 161.553 259.01 161.711C259.594 161.877 258.649 162.614 259.538 162.879C259.743 162.915 263.125 162.94 263.344 163.042C263.683 163.152 263.746 163.288 263.627 163.428C263.154 164.021 259.774 164.577 259.548 164.625C258.027 165.061 258.16 165.307 258.692 165.654C259.227 165.983 260.138 166.469 260.236 166.665C261.126 168.537 259.731 169.669 259.761 171.01C259.758 171.909 262.366 174.167 261.821 174.641C259.953 176.143 256.586 172.594 258.017 176.796C258.32 177.68 260.787 180.565 258.106 178.835C257.918 178.74 255.748 176.939 256.341 178.6C256.413 178.811 257.014 179.733 257 179.852C256.915 180.443 256.483 180.259 256.164 180.41C255.994 180.483 255.536 180.799 255.361 180.855C255.273 180.884 255.197 180.949 255.146 181.09C254.942 181.659 254.748 182.452 254.139 182.333C253.771 182.265 252.529 180.589 252.183 180.2C251.192 179.073 251.837 181.393 250.853 179.924C249.867 178.446 249.147 175.828 248.072 175.083C249.284 177.671 250.5 180.342 251.704 182.952C250.354 183.486 248.658 183.261 247.388 183.982C247.232 184.074 248.041 185.394 247.889 185.529C247.232 186.098 246.136 185.392 245.526 186.142C245.064 186.725 245.048 188.51 244.566 189.166C242.875 186.337 242.361 187.767 241.553 187.784C241.268 187.792 240.945 186.98 240.662 186.79C239.605 186.091 241.025 188.629 241.02 189.124C240.993 191.237 238.416 185.225 237.592 185.734C237.553 185.757 238.26 189.231 238.256 189.467C238.256 190.991 237.719 188.374 237.299 188.264C236.539 188.058 235.815 187.448 235.488 188.667C235.4 189.025 235.658 191.252 234.666 189.828C234.536 189.642 234.162 188.551 234.096 188.504C232.949 187.73 234.17 191.139 234.136 192.456C234.103 193.773 232.545 191.672 232.172 191.039C231.188 189.408 232.19 190.188 232.151 190.008C231.658 187.873 231.282 188.404 230.845 188.361C229.629 185.025 229.181 185.404 230.394 188.33C230.529 188.649 230.717 188.234 230.845 188.361C231.664 191.765 231.154 192.411 229.484 189.533C228.697 188.185 228.432 186.403 227.718 187.315C227.394 187.726 228.288 190.008 228.1 190.765C227.66 192.495 225.851 190.648 225.01 191.244C224.704 191.46 225.381 192.665 225.18 192.858C224.626 193.38 223.833 192.544 223.281 193.2C223.231 193.262 223.699 194.591 223.491 194.658C221.908 195.184 220.287 194.593 218.362 194.8C217.45 194.904 215.676 195.809 214.375 195.616C213.543 195.5 212.571 195.074 211.577 194.534C210.5 193.753 209.565 192.88 208.64 192.956C207.66 193.026 207.476 194.422 206.802 195.223C205.433 196.759 205.072 193.121 205.117 192.583C205.118 192.568 205.991 192.529 205.828 191.707C206.109 190.215 205.131 192.581 205.117 192.583C205.11 192.237 203.742 191.348 203.351 191.457C203.133 191.521 202.683 192.774 202.577 192.783C200.042 192.957 197.724 192.042 196.162 190.187C196.144 190.142 197.046 188.96 196.995 188.87C196.333 187.591 194.597 188.534 193.015 188.61C191.448 188.692 190.962 187.731 192.302 185.471C191.483 185.119 191.504 183.485 191.608 182.557C191.713 181.633 189.443 183.417 189.357 183.405C186.733 183.089 187.361 181.14 186.57 179.421C186.409 179.065 186.097 178.638 185.731 178.186C185.219 177.554 184.648 176.934 184.236 176.526C183.688 176.005 184.104 175.305 183.452 174.931C183.363 174.878 182.232 175.498 182.176 175.495C180.471 175.474 183.48 174.485 183.931 174.119C185.587 172.819 186.461 172.111 185.259 171.739C184.989 171.666 180.575 172.853 180.196 172.62C179.709 172.31 181.282 171.872 180.737 171.562C180.692 171.536 179.761 171.908 179.692 171.609C179.364 170.239 179.413 168.664 178.869 167.379C178.799 167.206 177.372 167.946 177.247 167.702C176.653 166.54 176.274 165.164 176.631 163.785C176.722 163.44 177.842 163.298 178.139 163.139C179.933 162.17 176.997 162.485 176.915 162.405C174.944 160.653 177.029 158.316 175.27 156.493C175.167 156.39 171.921 156.251 174.412 155.196C174.577 155.126 177.131 154.07 175.232 154.167C175.114 154.173 173.806 154.751 173.842 154.286C173.878 153.827 172.793 153.326 174.162 152.384C174.593 152.085 177.149 151.045 174.904 150.963C174.748 150.963 169.758 151.151 173.001 150.115C173.535 149.945 177.05 149.236 175.11 148.96C174.733 148.907 174.001 149.309 173.44 149.074C172.574 148.706 173.375 147.845 171.678 147.522C171.378 147.47 168.893 147.466 170.63 146.726C170.902 146.61 172.098 146.488 172.19 146.263C172.631 145.191 171.652 144.343 172.287 143.228C172.51 142.832 174.446 142.655 174.891 142.206C175.335 141.755 175.701 140.976 174.764 140.76C173.828 140.545 170.861 141.489 170.519 140.969C169.036 138.714 170.436 136 170.347 133.544C170.334 133.179 169.284 133.636 169.188 133.111C168.821 131.162 167.359 127.908 169.494 125.928C171.205 124.369 172.821 125.89 173.463 124.783C173.769 124.254 170.145 124.114 170.019 124.003C169.824 123.841 169.694 123.679 169.612 123.519C169.161 122.666 170.158 121.881 169.654 121.057C169.531 120.858 168.108 121.219 168.019 121.048C167.703 120.465 168.281 119.768 168.099 119.194C168.015 118.939 166.916 119.106 166.976 118.858C167.106 118.272 167.516 117.71 168.49 117.043C168.579 116.982 169.989 117.176 169.995 116.749C170.002 116.069 170.929 115.092 169.792 114.435C169.45 114.238 166.925 114.498 168.613 113.809C168.966 113.665 172.009 113.468 169.329 113.174C168.884 113.128 165.247 112.531 167.471 111.809C168.056 111.617 170.5 111.032 170.079 110.791C170.012 110.76 168.674 111.061 168.517 110.844C167.985 110.082 168.035 109.217 167.517 108.446C167.376 108.241 166.012 108.725 165.847 108.415C165.389 107.546 165.616 106.391 165.951 105.477C166.077 105.134 167.264 105.218 167.387 105.179C169.395 104.552 166.597 104.666 166.42 104.563C165.359 103.918 166.587 103.169 166.153 102.51C166.036 102.328 164.734 102.636 164.611 102.612C163.41 102.364 165.819 102.353 166.047 102.067C166.696 101.271 166.484 100.502 166.217 99.8192C166.117 99.5715 164.629 100.074 164.557 99.8518C164.102 98.5369 164.04 97.1623 164.666 95.7849C164.786 95.5247 165.982 95.4671 166.241 95.3719C168.053 94.7062 165.412 94.6628 165.15 94.6047C163.952 94.321 164.945 93.9258 164.669 93.5414C163.303 91.6464 163.391 89.3541 163.365 88.18C163.363 88.0782 163.364 87.9818 163.369 87.8902C162.713 84.8854 162.73 82.3865 161.402 80.0363C161.314 79.8771 159.939 80.6783 159.845 80.5502C158.695 78.8765 158.47 76.9011 157.252 75.477C157.155 75.3602 155.908 76.2171 155.709 76.0558C155.292 75.731 155.097 75.173 155.304 74.5416C155.402 74.2328 156.682 73.902 156.755 73.6002C156.926 72.8949 156.74 72.3337 156.267 71.9904C156.063 71.8471 154.9 72.9001 154.742 72.661C153.631 71.0423 152.562 69.9268 153.178 67.5752C153.223 67.4173 155.527 65.3163 154.916 65.5263C154.256 66.0854 153.495 66.7601 152.799 67.3675C151.842 66.7183 151.414 66.0642 151.14 65.5533C150.064 64.6195 148.994 63.6926 147.828 62.9398C147.713 62.8657 147.094 64.4135 146.869 64.2795C145.569 63.5075 144.125 63.2502 143.542 61.1361C143.482 60.9283 144.822 58.35 144.228 58.5513C144.123 58.5886 143.355 58.6549 142.941 59.1597C142.881 59.237 142.419 60.5162 142.219 60.4681C141.07 60.1697 140.135 59.4507 139.45 58.3321C139.338 58.1487 139.983 56.8452 139.904 56.7014C139.301 55.6802 138.174 56.496 137.859 55.0888C137.623 54.1379 138.268 51.7237 138.406 49.2522C138.418 48.9013 138.071 48.7905 138.247 47.3734C138.68 43.8054 139.528 39.9533 139.974 36.1476C140.067 35.3236 138.961 36.0767 139.806 34.1756C139.865 34.0463 140.704 33.4997 141 32.8661C141.209 32.427 141.203 30.9524 141.584 30.4099C141.975 29.8705 142.048 31.121 142.626 30.5201C143.201 29.9128 143.365 28.2517 144.303 28.2646ZM192.274 178.5C193.09 177.261 188.89 180.128 190.252 179.935C190.323 179.922 192.236 178.562 192.274 178.5ZM247.049 179.775C245.578 177.986 246.603 181.144 247.704 182.544C248.809 183.939 247.499 180.315 247.049 179.775ZM251.736 175.717C250.358 174.423 253.426 180.949 253.439 179.319C253.441 179.226 251.816 175.791 251.736 175.717ZM140.089 48.907C140.1 48.8397 139.827 48.7028 139.806 48.7668C139.277 50.2989 139.78 50.5603 140.089 48.907ZM256.227 170.333C255.366 169.832 255.662 171.098 256.709 171.777C257.589 172.296 257.347 170.916 256.227 170.333ZM188.232 154.101C188.303 154.075 188.306 153.814 187.893 153.926C186.562 154.289 187.028 154.534 188.232 154.101ZM256.782 159.228C256.889 160.64 251.46 163.25 251.636 161.459C251.671 161.138 253.64 161.554 254.051 161.04C254.807 160.13 251.071 160.651 252.83 159.438C253.157 159.238 256.791 159.158 256.791 159.229C256.788 159.229 256.785 159.228 256.782 159.228ZM197.052 174.685C197.1 174.638 196.952 174.318 196.893 174.35C195.454 175.109 195.778 175.793 197.052 174.685ZM188.179 139.136C188.316 139.093 188.308 138.284 188.174 138.281C185.5 138.326 185.513 139.983 188.179 139.136ZM216.768 180.908C216.907 179.256 217.194 179.022 217.788 180.992C217.433 180.939 217.11 180.968 216.768 180.908Z" fill="#7C7461"/>
<path d="M261.358 14.8221C263.78 17.097 265.222 20.1399 265.967 22.4932C266.204 23.2363 265.235 23.3947 265.359 23.923C265.591 24.9425 266.452 25.488 266.592 26.5115C266.636 26.8557 265.214 27.2678 265.288 27.6113C265.674 29.3991 266.765 30.6162 267.421 32.2017C267.448 32.2675 267.475 32.3341 267.5 32.4017C270.633 40.6805 274.237 48.2734 277.795 56.2319C278.968 58.8569 279.455 62.5296 281.327 64.8854C281.547 65.16 282.562 64.3966 282.683 64.4069C284.563 64.5897 282.162 65.4571 282.175 66.2088C282.233 69.1902 283.483 71.8757 285.075 73.9549C285.754 74.8369 287.481 72.7345 286.732 74.3521C286.682 74.463 285.368 74.8121 285.377 75.1446C285.398 75.8961 286.187 76.9451 286.328 77.4655C286.59 78.4659 286.68 78.6177 287.091 79.4858C287.643 80.6825 287.735 82.3828 288.616 83.5238C288.809 83.7685 289.865 82.8155 290.284 83.1534C290.512 83.3377 290.749 83.7794 290.898 84.226C291.026 84.6065 291.092 84.9897 291.044 85.2305C290.937 85.7589 289.888 86.0482 289.698 86.2219C288.085 87.6631 291.315 87.7971 291.459 87.9418C294.026 90.6213 293.752 94.06 295.013 97.1143C295.977 99.4421 297.459 101.784 298.206 104.102C299.091 106.867 299.147 109.43 300.059 112.088C300.154 112.37 301.596 111.585 301.715 111.932C302.981 115.622 303.734 119.467 303.436 123.428C303.404 123.827 301.926 123.623 301.812 124.035C301.151 126.564 299.008 130.511 305.271 130.916C305.277 131.807 305.287 132.784 305.119 133.762C304.982 134.529 304.731 135.302 304.268 135.984C303.597 136.975 301.963 136.314 302.754 137.316C302.93 137.543 304.221 137.051 304.385 137.407C305.071 138.894 304.839 140.653 305.696 142.107C305.873 142.405 307.061 142.189 307.286 142.255C309.113 142.821 306.356 144.368 306.173 144.658C304.814 146.867 305.567 148.299 305.692 150.214C305.72 150.658 307.286 149.998 307.371 150.421C307.789 152.621 307.823 154.934 307.253 157.15C307.122 157.643 305.718 157.292 305.585 157.532C305.015 158.584 307.625 158.643 307.125 159.652C307.023 159.864 305.839 159.821 305.712 159.866C303.719 160.573 306.624 160.907 306.696 161.055C307.674 162.912 304.737 164.289 305.251 166.096C305.315 166.313 306.781 165.746 306.871 166.361C307.478 170.458 307.22 174.848 306.114 178.945C305.944 179.582 304.814 179.154 304.677 179.197C302.532 179.886 305.432 180.245 305.544 180.453C306.358 182.062 303.951 183.619 307.405 184.691C307.062 186.785 306.988 188.872 306.954 190.962C306.875 195.858 306.959 200.835 304.31 205.51C304.265 205.595 302.865 205.29 302.782 205.458C301.759 207.451 304 207.297 306.497 209.092C307.12 209.572 303.728 210.178 303.474 210.238C302.548 210.457 300.509 209.77 300.322 209.861C298.847 210.594 305.803 211.512 305.56 212.901C305.541 212.94 304.303 212.537 304.157 212.626C303.698 212.901 304.142 213.316 303.639 213.579C302.474 214.177 299.102 213.694 300.783 215.256C300.997 215.465 304.942 216.085 304.462 217.276C304.284 217.717 303.764 219.893 303.332 220.391C302.902 220.915 301.805 220.124 301.738 220.152C299.64 221.171 299.15 220.38 296.538 220.281C293.942 220.135 299.619 221.949 300.132 222.485C300.646 223.021 298.917 223.621 298.358 223.697C297.802 223.773 297.179 223.146 296.832 223.268C294.56 224.046 299.28 225.078 299.932 225.961C301.436 228.111 296.982 227.184 296.111 228.002C295.872 228.23 296.888 228.438 296.856 228.724C296.727 229.833 295.187 229.847 295.914 231.379C295.97 231.494 296.458 231.951 296.779 232.357C297.093 232.976 297.11 233.638 295.977 233.593C295.677 233.57 294.809 232.835 294.358 233.202C293.683 233.76 292.783 234.794 292.579 235.677C292.423 236.342 294.319 236.847 293.358 237.17C292.934 237.297 292.515 236.125 291.806 236.389C291.118 236.651 290.051 237.812 289.611 238.23C289.184 238.655 290.327 239.482 290.353 239.583C290.474 240.194 289.873 241.511 289.773 241.573C285.124 245.123 279.857 244.341 275.904 246.732C275.591 246.915 276.337 248.182 276.295 248.224C275.387 249.23 274.88 245.286 273.602 244.4C274.482 246.376 274.356 246.735 273.967 247.03C273.817 247.14 273.625 247.245 273.426 247.415C273.068 247.723 273.701 248.7 273.706 248.824C273.669 250.693 272.423 248.757 272.174 248.36C271.206 246.915 271.397 248.946 270.757 247.969C270.148 246.99 270.265 245.217 269.474 245.487C269.555 246.565 270.987 249.008 270.478 249.631C268.445 252.032 263.439 250.984 261.508 251.177C259.561 251.378 258.977 251.699 257.8 251.559C255.65 251.305 256.815 253.149 255.749 254.324C254.697 255.494 254.293 250.443 253.9 249.419C253.511 248.396 253.527 249.528 253.2 248.987C252.871 248.448 253.184 247.635 252.641 247.517C252.097 247.4 251.075 249.564 251.117 250.708C251.199 253.133 252.316 255.476 250.784 254.877C250.697 254.841 250.691 253.494 250.371 253.421C247.807 252.887 245.326 253.298 242.794 252.86C242.729 252.848 242.677 252.79 242.634 252.701C242.444 252.299 242.422 251.288 242.257 251.244C240.145 250.682 241.256 252.997 240.697 255.903C240.275 252.251 239.277 250.155 237.777 250.405C236.885 250.551 237.32 252.1 236.932 253.317C236.809 253.684 235.988 252.714 236.005 253.476C236.054 255.968 237.147 258.574 235.392 257.77C235.314 257.73 235.299 256.364 235.047 256.326C233.453 256.064 233.685 258.638 232.112 259.227C230.859 259.693 228.294 258.538 226.801 258.532C226.144 254.461 224.909 255.628 224.829 258.524C223.863 258.569 222.853 258.902 221.876 258.667C221.538 258.587 221.549 257.375 221.487 257.254C220.543 255.361 220.582 258.158 220.394 258.3C218.352 259.708 216.19 257.941 214.405 260.311C214.341 260.396 214.685 263.242 213.777 261.272C213.717 261.136 214.208 259.735 213.191 259.8C212.177 259.864 210.045 258.658 208.876 260.193C208.593 260.563 208.118 262.997 207.145 261.315C207.014 261.086 206.981 260.26 206.777 259.83C206.119 258.461 206.354 261.356 205.461 259.01C204.568 256.664 203.238 255.014 202.114 256.916C202.077 256.972 202.116 259.291 201.67 259.326C200.958 259.382 199.886 259.072 199.157 259.205C198.808 259.27 199.261 260.64 199.204 260.676C196.971 261.848 195.096 260.866 192.477 260.733C191.999 260.706 190.98 262.841 189.836 261.471C188.58 259.972 188.477 252.901 186.47 254.918C185.669 255.724 185.936 264.673 183.565 260.403C180.57 262.049 177.24 260.215 174.324 262.356C174.198 262.45 174.143 264.971 173.802 264.994C173.292 265.025 172.827 263.93 172.462 263.914C170.898 263.826 169.689 265.038 168.245 265.133C167.679 265.175 167.665 263.962 166.998 264.011C166.667 264.035 166.464 264.455 166.221 264.794C165.963 265.134 165.663 265.393 165.158 265.096C164.411 264.64 163.142 261.593 162.207 261.38C162.751 264.511 162.091 264.563 161.188 265.58C161.016 265.777 161.43 266.826 161.359 266.975C161.05 267.61 160.514 266.777 160.253 267.455C160.189 267.619 160.381 268.687 160.341 268.88C159.978 270.572 158.516 268.361 158.235 267.981C157.232 266.526 157.194 267.97 156.527 267.449C155.878 266.925 156.523 265.994 155.833 265.732C154.391 265.193 152.765 265.686 151.448 265.897C150.937 265.985 151.566 267.337 151.5 267.382C150.492 267.957 149.094 266.669 149.073 269.619C146.821 262.465 148.581 270.46 146.735 269.317C146.596 269.222 145.729 265.798 146.08 265.197C146.435 264.595 147.365 265.528 147.858 264.602C147.962 264.387 148.189 260.966 148.276 260.745C148.911 259.019 150.099 264.159 150.198 264.434C151.37 267.386 151.773 263.676 151.994 263.382C153.081 262.02 154.335 262.535 155.266 261.539C155.891 260.892 155.317 257.486 155.897 257.484C157.836 257.478 159.353 262.098 160.358 257.67C160.572 256.726 159.539 253.076 161.413 255.754C161.52 255.925 163.031 258.413 163.291 256.622C163.325 256.396 163.13 255.313 163.209 255.205C163.602 254.688 164.027 254.979 164.484 254.951C164.64 254.942 164.799 254.893 164.963 254.752C165.585 254.216 166.348 253.448 167.2 253.68C167.718 253.817 168.71 255.726 169.011 256.183C169.896 257.498 170.201 255.042 170.906 256.698C171.607 258.363 171.268 261.13 172.508 262.073C172.069 259.249 171.669 256.341 171.252 253.496C173.62 253.197 176.059 253.727 178.381 253.215C178.668 253.149 178.12 251.682 178.422 251.572C179.712 251.111 181.015 252.006 182.314 251.351C183.302 250.84 184.209 249.043 185.235 248.46C186.438 251.577 187.887 250.216 189.125 250.317C189.559 250.351 189.672 251.217 190.011 251.451C191.291 252.31 190.307 249.542 190.538 249.044C191.538 246.914 192.702 253.353 194.218 252.942C194.298 252.923 194.742 249.318 194.844 249.081C195.489 247.542 195.183 250.256 195.771 250.421C196.844 250.724 197.676 251.432 198.682 250.234C198.975 249.88 199.448 247.601 200.381 249.152C200.504 249.355 200.641 250.501 200.722 250.556C202.174 251.459 201.626 247.879 202.155 246.551C202.685 245.222 204.209 247.506 204.553 248.18C205.45 249.922 204.224 249.041 204.221 249.227C204.191 251.437 204.949 250.934 205.604 251.013C206.266 254.503 207.108 254.15 206.281 251.082C206.189 250.747 205.755 251.153 205.604 251.013C205.591 247.485 206.481 246.888 208.066 249.928C208.808 251.352 208.627 253.185 210.033 252.295C210.67 251.893 210.01 249.524 210.505 248.767C211.641 247.039 213.8 248.995 215.166 248.405C215.659 248.191 214.939 246.954 215.269 246.762C216.138 246.25 217.139 247.102 217.987 246.439C218.064 246.378 217.627 245.03 217.915 244.964C220.107 244.434 222.167 244.999 224.483 244.631C225.59 244.455 227.45 243.354 228.631 243.307C230.647 243.225 233.483 244.796 235.073 244.009C236.136 243.496 235.638 242.162 235.939 241.137C236.511 239.154 238.71 242.121 239.024 242.584C239.025 242.601 238.156 243.097 238.783 243.713C239.339 245.135 239.017 242.592 239.024 242.584C239.162 242.784 240.09 242.832 240.757 242.745C241.109 242.698 241.399 242.618 241.508 242.507C241.688 242.324 241.325 241.041 241.423 240.971C243.742 239.322 246.209 238.503 248.881 238.606C248.931 238.623 249.153 240.093 249.267 240.116C250.868 240.471 251.478 238.494 252.447 237.194C253.455 235.887 254.462 236.044 255.697 238.388C256.547 237.88 258.054 238.705 258.959 239.203C259.839 239.707 259.318 236.86 259.365 236.791C260.927 234.556 262.445 235.899 264.418 235.639C265.377 235.518 266.867 234.632 267.462 234.07C267.816 233.749 268.21 233.908 268.618 233.772C268.84 233.693 269.054 233.573 269.256 233.359C269.352 233.259 268.76 232.109 268.777 232.048C269.18 230.235 269.861 233.349 270.261 233.796C271.697 235.43 272.507 236.285 273.277 234.961C273.458 234.656 272.558 230.148 272.881 229.737C273.307 229.209 273.7 230.8 274.114 230.211C274.148 230.162 273.769 229.236 274.115 229.143C275.706 228.706 277.336 228.592 278.213 227.959C278.33 227.878 277.376 226.596 277.513 226.468C278.158 225.858 278.447 225.661 279.116 226.033C279.289 226.122 280.1 226.884 280.357 227.092C281.979 228.276 279.828 226.306 279.757 226.306C279.351 225.853 279.463 225.922 279.778 225.818C281.105 223.359 282.519 221.913 282.581 220.054C282.601 219.843 280.225 217.555 282.847 218.205C283.02 218.253 285.734 218.853 284.159 217.758C284.058 217.695 282.652 217.427 282.962 217.031C283.28 216.614 282.647 215.615 284.327 215.448C284.849 215.419 287.628 215.68 285.734 214.407C285.614 214.283 281.128 212.068 284.494 212.56C285.048 212.639 288.521 213.561 286.931 212.288C286.619 212.051 285.775 212.154 285.381 211.635C284.771 210.84 285.89 210.162 284.46 209.085C284.208 208.887 281.91 207.901 283.808 207.727C284.106 207.697 285.265 208.033 285.439 207.792C286.27 206.645 285.651 205.192 286.616 203.957C286.955 203.513 288.855 203.961 289.423 203.495C289.992 203.031 290.581 202.042 289.742 201.409C288.901 200.81 285.782 201.148 285.594 200.347C284.85 197.183 286.357 194.064 286.853 190.779C286.904 190.442 286.944 190.1 286.971 189.751C287.013 189.194 285.908 189.649 285.889 188.843C285.824 185.85 284.717 180.66 286.991 177.98C288.815 175.809 290.314 178.449 291.036 176.8C291.379 176.009 287.768 175.256 287.65 175.079C286.446 173.277 287.987 171.947 287.433 170.307C287.317 169.969 285.879 170.364 285.797 170.077C285.504 169.102 286.105 168.03 285.941 167.089C285.864 166.667 284.759 166.798 284.826 166.406C284.971 165.466 285.394 164.617 286.383 163.649C286.473 163.561 287.883 164.046 287.896 163.349C287.912 162.224 288.853 160.765 287.712 159.543C287.368 159.181 284.836 159.335 286.529 158.399C286.883 158.203 289.938 158.213 287.245 157.439C286.798 157.303 283.142 155.971 285.364 155.018C285.949 154.767 288.394 154.044 287.967 153.616C287.9 153.559 286.561 153.916 286.398 153.548C285.848 152.251 285.873 150.848 285.323 149.526C285.173 149.174 283.819 149.842 283.641 149.316C283.148 147.871 283.321 146.003 283.602 144.521C283.708 143.974 284.91 144.211 285.032 144.159C287.019 143.309 284.202 143.254 284.017 143.068C282.903 141.909 284.087 140.79 283.592 139.669C283.459 139.36 282.169 139.759 282.043 139.711C280.807 139.206 283.241 139.383 283.447 138.932C283.772 138.235 283.825 137.511 283.751 136.833C283.69 136.275 283.547 135.741 283.393 135.235C283.263 134.813 281.812 135.531 281.713 135.153C281.102 132.935 280.846 130.624 281.25 128.32C281.328 127.883 282.544 127.902 282.793 127.763C284.534 126.791 281.817 126.464 281.534 126.326C280.242 125.686 281.191 125.118 280.82 124.389C279.004 120.843 278.367 116.188 277.55 112.569C276.494 107.879 276.076 103.897 273.851 99.6039C273.71 99.3297 272.392 100.256 272.253 100.031C271.19 98.2267 270.443 96.2756 269.572 94.3484C269.029 93.1474 268.432 91.9453 267.685 90.8138C267.528 90.5717 266.362 91.599 266.065 91.2332C265.446 90.4829 264.993 89.3802 264.996 88.3102C264.995 87.7902 266.426 87.7787 266.401 87.2658C266.343 86.0657 265.909 84.9634 265.185 84.0617C264.874 83.68 263.833 85.0186 263.535 84.4695C261.477 80.7393 259.314 77.1479 259.037 72.3883C259.018 72.0621 261.647 70.37 260.822 70.0909C260.036 70.4548 259.14 70.935 258.314 71.3508C254.939 66.0706 252.916 60.1236 249.986 54.5827C249.863 54.3512 248.647 55.5556 248.403 55.1129C246.972 52.5299 245.159 50.2829 245.076 46.8947C245.065 46.5589 247.641 45.2105 246.822 44.6848C246.787 44.6636 246.706 44.5964 246.593 44.508C246.212 44.1946 245.511 43.6802 244.957 43.694C244.852 43.7036 243.81 44.602 243.561 44.2623C242.142 42.2907 241.099 40.0012 240.566 37.6775C240.485 37.3063 241.899 36.8301 241.85 36.5559C241.457 34.5657 239.499 33.7002 239.725 31.949C239.847 30.7411 241.919 29.3229 243.333 27.2344C243.535 26.9401 243.071 26.3845 244.049 25.344C246.52 22.7323 249.613 20.265 252.218 17.4515C252.757 16.8217 251.322 16.6429 253.208 15.7097C253.321 15.6331 254.452 15.8336 255.138 15.5756C255.606 15.3886 256.414 14.13 257.125 14.008C257.84 13.8932 257.26 15.056 258.244 15.1073C259.237 15.1659 260.307 13.8558 261.358 14.8221ZM262.969 241.412C263.984 242.594 262.859 237.634 262.431 238.991C262.411 239.062 262.917 241.355 262.969 241.412ZM176.677 257.514C177.986 259.569 178.103 256.207 177.146 254.61C176.19 253.015 176.279 256.891 176.677 257.514ZM167.176 260.788C168.58 262.339 167.519 255.205 166.589 256.846C166.533 256.939 167.093 260.698 167.176 260.788ZM245.661 28.9136C245.712 28.8673 245.439 28.4081 245.378 28.4401C243.945 29.2285 244.459 30.1017 245.661 28.9136ZM157.812 264.285C158.319 265.183 159.108 263.892 158.459 262.779C157.934 261.883 157.161 263.173 157.812 264.285ZM293.858 226.96C293.932 226.981 294.175 226.631 293.784 226.454C292.528 225.884 292.626 226.583 293.858 226.96ZM145.301 267.122C145.198 267.484 144.949 267.735 144.624 267.919C144.462 268.014 144.271 268.087 144.096 268.227C143.919 268.362 143.806 268.619 143.861 268.906C144.08 269.713 144.608 270.411 144.661 271.074C144.699 271.4 144.697 271.705 144.498 271.962C144.304 272.184 143.965 272.549 142.631 272.244C141.957 272.079 141.037 271.504 140.511 270.739C139.973 269.98 139.805 269.252 139.762 268.707C139.752 268.021 140.227 268.662 141.003 269.29C141.389 269.607 141.911 269.88 142.224 269.858C142.549 269.841 142.571 269.608 142.463 269.182C142.338 268.425 142.344 268.133 142.138 267.778C141.954 267.441 141.671 267.118 141.428 266.791C140.945 266.142 140.629 265.51 141.724 265.144C142.122 265.014 145.322 267.085 145.309 267.127C145.306 267.125 145.304 267.124 145.301 267.122ZM264.814 247.249C264.84 247.312 265.427 247.232 265.425 247.164C265.339 245.522 264.175 245.677 264.814 247.249ZM303.081 203.775C303.228 203.766 303.48 202.358 303.349 202.321C300.777 201.406 300.269 204.131 303.081 203.775ZM226.759 258.428C226.399 260.136 225.668 260.453 224.832 258.526C225.47 258.528 226.112 258.436 226.759 258.428Z" fill="#7C7461"/>
</g>
<defs>
<filter id="filter0_f_1_3521" x="0" y="0" width="321.909" height="286.361" filterUnits="userSpaceOnUse" color-interpolation-filters="sRGB">
<feFlood flood-opacity="0" result="BackgroundImageFix"/>
<feBlend mode="normal" in="SourceGraphic" in2="BackgroundImageFix" result="shape"/>
<feGaussianBlur stdDeviation="7" result="effect1_foregroundBlur_1_3521"/>
</filter>
</defs>
</svg>
