<svg width="106" height="54" viewBox="0 0 106 54" fill="none" xmlns="http://www.w3.org/2000/svg">
<path d="M18.6482 26.049H26.6402V26.895H18.6482V26.049ZM19.3052 23.826H26.0012V24.672H19.3052V23.826ZM22.1672 22.404H23.0672V30.756H22.1672V22.404ZM21.9872 26.508L22.7162 26.823C22.5062 27.177 22.2602 27.525 21.9782 27.867C21.6962 28.203 21.3902 28.524 21.0602 28.83C20.7362 29.13 20.4002 29.406 20.0522 29.658C19.7042 29.904 19.3562 30.12 19.0082 30.306C18.9602 30.228 18.8972 30.144 18.8192 30.054C18.7472 29.964 18.6722 29.877 18.5942 29.793C18.5162 29.703 18.4442 29.631 18.3782 29.577C18.7262 29.421 19.0712 29.232 19.4132 29.01C19.7612 28.788 20.0942 28.545 20.4122 28.281C20.7362 28.011 21.0302 27.726 21.2942 27.426C21.5642 27.12 21.7952 26.814 21.9872 26.508ZM23.2472 26.517C23.4392 26.823 23.6702 27.126 23.9402 27.426C24.2102 27.72 24.5042 28.005 24.8222 28.281C25.1462 28.551 25.4792 28.797 25.8212 29.019C26.1692 29.235 26.5172 29.421 26.8652 29.577C26.7992 29.631 26.7272 29.703 26.6492 29.793C26.5712 29.877 26.4962 29.964 26.4242 30.054C26.3522 30.15 26.2922 30.234 26.2442 30.306C25.8962 30.126 25.5482 29.91 25.2002 29.658C24.8522 29.406 24.5162 29.127 24.1922 28.821C23.8682 28.515 23.5652 28.194 23.2832 27.858C23.0012 27.516 22.7522 27.168 22.5362 26.814L23.2472 26.517ZM30.3842 24.987H35.1812V25.761H30.3842V24.987ZM28.7822 26.634H36.8012V27.435H28.7822V26.634ZM31.0682 27.237H31.9862C31.9442 27.663 31.8722 28.059 31.7702 28.425C31.6682 28.785 31.5122 29.115 31.3022 29.415C31.0982 29.715 30.8162 29.976 30.4562 30.198C30.0962 30.426 29.6312 30.618 29.0612 30.774C29.0312 30.702 28.9892 30.618 28.9352 30.522C28.8812 30.432 28.8212 30.342 28.7552 30.252C28.6892 30.162 28.6262 30.09 28.5662 30.036C29.0762 29.91 29.4872 29.76 29.7992 29.586C30.1172 29.406 30.3602 29.199 30.5282 28.965C30.7022 28.731 30.8252 28.47 30.8972 28.182C30.9752 27.888 31.0322 27.573 31.0682 27.237ZM33.3632 27.129H34.2272V29.514C34.2272 29.652 34.2512 29.739 34.2992 29.775C34.3472 29.811 34.4582 29.829 34.6322 29.829C34.6742 29.829 34.7432 29.829 34.8392 29.829C34.9412 29.829 35.0522 29.829 35.1722 29.829C35.2922 29.829 35.4032 29.829 35.5052 29.829C35.6132 29.829 35.6942 29.829 35.7482 29.829C35.8562 29.829 35.9372 29.805 35.9912 29.757C36.0452 29.703 36.0842 29.595 36.1082 29.433C36.1322 29.265 36.1472 29.016 36.1532 28.686C36.2132 28.728 36.2882 28.77 36.3782 28.812C36.4682 28.854 36.5612 28.893 36.6572 28.929C36.7592 28.965 36.8492 28.995 36.9272 29.019C36.8972 29.439 36.8432 29.766 36.7652 30C36.6932 30.228 36.5822 30.387 36.4322 30.477C36.2822 30.567 36.0782 30.612 35.8202 30.612C35.7722 30.612 35.6882 30.612 35.5682 30.612C35.4482 30.612 35.3162 30.612 35.1722 30.612C35.0282 30.612 34.8962 30.612 34.7762 30.612C34.6562 30.612 34.5722 30.612 34.5242 30.612C34.2182 30.612 33.9812 30.579 33.8132 30.513C33.6452 30.453 33.5282 30.342 33.4622 30.18C33.3962 30.018 33.3632 29.799 33.3632 29.523V27.129ZM32.3192 22.404H33.2282V23.925H32.3192V22.404ZM28.9802 23.322H36.6122V25.338H35.7122V24.132H29.8442V25.338H28.9802V23.322ZM40.0502 25.779H42.2102V26.562H40.0502V25.779ZM41.8862 25.779H42.7142C42.7142 25.779 42.7142 25.8 42.7142 25.842C42.7142 25.884 42.7112 25.932 42.7052 25.986C42.7052 26.04 42.7052 26.085 42.7052 26.121C42.6932 26.775 42.6782 27.309 42.6602 27.723C42.6422 28.137 42.6152 28.455 42.5792 28.677C42.5432 28.893 42.4922 29.043 42.4262 29.127C42.3482 29.223 42.2642 29.292 42.1742 29.334C42.0842 29.376 41.9732 29.406 41.8412 29.424C41.7272 29.442 41.5742 29.451 41.3822 29.451C41.1902 29.451 40.9862 29.448 40.7702 29.442C40.7642 29.316 40.7402 29.178 40.6982 29.028C40.6562 28.878 40.6022 28.749 40.5362 28.641C40.7222 28.659 40.8962 28.671 41.0582 28.677C41.2202 28.683 41.3402 28.686 41.4182 28.686C41.4782 28.686 41.5292 28.68 41.5712 28.668C41.6192 28.65 41.6612 28.623 41.6972 28.587C41.7392 28.533 41.7722 28.416 41.7962 28.236C41.8202 28.05 41.8382 27.771 41.8502 27.399C41.8682 27.027 41.8802 26.532 41.8862 25.914V25.779ZM44.4872 22.899L45.0092 22.386C45.1892 22.476 45.3782 22.581 45.5762 22.701C45.7742 22.815 45.9602 22.932 46.1342 23.052C46.3082 23.172 46.4522 23.283 46.5662 23.385L46.0262 23.961C45.9182 23.859 45.7772 23.745 45.6032 23.619C45.4352 23.493 45.2522 23.367 45.0542 23.241C44.8622 23.115 44.6732 23.001 44.4872 22.899ZM45.6842 25.293L46.5392 25.5C46.1612 26.67 45.6392 27.696 44.9732 28.578C44.3132 29.46 43.5302 30.174 42.6242 30.72C42.5882 30.654 42.5312 30.576 42.4532 30.486C42.3752 30.402 42.2972 30.315 42.2192 30.225C42.1412 30.141 42.0692 30.072 42.0032 30.018C42.8972 29.538 43.6532 28.896 44.2712 28.092C44.8892 27.288 45.3602 26.355 45.6842 25.293ZM40.1042 23.853H47.0612V24.69H40.1042V23.853ZM39.5372 23.853H40.4282V26.436C40.4282 26.766 40.4162 27.123 40.3922 27.507C40.3682 27.891 40.3232 28.284 40.2572 28.686C40.1912 29.082 40.0952 29.466 39.9692 29.838C39.8432 30.21 39.6752 30.543 39.4652 30.837C39.4232 30.783 39.3542 30.717 39.2582 30.639C39.1682 30.561 39.0752 30.486 38.9792 30.414C38.8892 30.348 38.8112 30.297 38.7452 30.261C38.9912 29.901 39.1682 29.499 39.2762 29.055C39.3902 28.605 39.4622 28.152 39.4922 27.696C39.5222 27.24 39.5372 26.817 39.5372 26.427V23.853ZM43.2452 22.413H44.1362C44.1302 23.205 44.1572 23.967 44.2172 24.699C44.2772 25.425 44.3642 26.1 44.4782 26.724C44.5922 27.348 44.7272 27.891 44.8832 28.353C45.0392 28.815 45.2132 29.175 45.4052 29.433C45.6032 29.691 45.8042 29.82 46.0082 29.82C46.1282 29.82 46.2182 29.694 46.2782 29.442C46.3382 29.19 46.3802 28.773 46.4042 28.191C46.5062 28.287 46.6262 28.38 46.7642 28.47C46.9022 28.56 47.0282 28.626 47.1422 28.668C47.0942 29.202 47.0252 29.616 46.9352 29.91C46.8452 30.204 46.7192 30.408 46.5572 30.522C46.4012 30.636 46.1972 30.693 45.9452 30.693C45.6332 30.693 45.3482 30.588 45.0902 30.378C44.8382 30.168 44.6102 29.871 44.4062 29.487C44.2082 29.103 44.0372 28.653 43.8932 28.137C43.7552 27.621 43.6382 27.054 43.5422 26.436C43.4462 25.818 43.3742 25.17 43.3262 24.492C43.2782 23.808 43.2512 23.115 43.2452 22.413ZM52.7042 23.826C52.9682 23.868 53.2652 23.898 53.5952 23.916C53.9312 23.934 54.2762 23.94 54.6302 23.934C54.9842 23.928 55.3232 23.916 55.6472 23.898C55.9712 23.88 56.2502 23.856 56.4842 23.826V24.744C56.2262 24.768 55.9352 24.789 55.6112 24.807C55.2872 24.819 54.9512 24.825 54.6032 24.825C54.2612 24.825 53.9252 24.819 53.5952 24.807C53.2652 24.789 52.9712 24.768 52.7132 24.744L52.7042 23.826ZM53.2172 27.57C53.1812 27.726 53.1512 27.867 53.1272 27.993C53.1092 28.119 53.1002 28.245 53.1002 28.371C53.1002 28.473 53.1212 28.569 53.1632 28.659C53.2112 28.749 53.2862 28.827 53.3882 28.893C53.4962 28.959 53.6402 29.013 53.8202 29.055C54.0062 29.091 54.2342 29.109 54.5042 29.109C54.9122 29.109 55.2932 29.091 55.6472 29.055C56.0072 29.013 56.3732 28.95 56.7452 28.866L56.7632 29.829C56.4812 29.883 56.1512 29.928 55.7732 29.964C55.4012 29.994 54.9722 30.009 54.4862 30.009C53.7242 30.009 53.1602 29.886 52.7942 29.64C52.4342 29.388 52.2542 29.043 52.2542 28.605C52.2542 28.443 52.2662 28.275 52.2902 28.101C52.3142 27.921 52.3532 27.72 52.4072 27.498L53.2172 27.57ZM51.1382 23.178C51.1202 23.232 51.0962 23.304 51.0662 23.394C51.0422 23.478 51.0182 23.565 50.9942 23.655C50.9762 23.739 50.9612 23.808 50.9492 23.862C50.9192 24.012 50.8832 24.195 50.8412 24.411C50.8052 24.621 50.7662 24.852 50.7242 25.104C50.6882 25.35 50.6522 25.602 50.6162 25.86C50.5862 26.112 50.5592 26.358 50.5352 26.598C50.5172 26.838 50.5082 27.057 50.5082 27.255C50.5082 27.411 50.5112 27.57 50.5172 27.732C50.5292 27.888 50.5442 28.05 50.5622 28.218C50.6162 28.098 50.6702 27.972 50.7242 27.84C50.7782 27.702 50.8322 27.567 50.8862 27.435C50.9402 27.303 50.9912 27.183 51.0392 27.075L51.4892 27.435C51.4112 27.657 51.3272 27.903 51.2372 28.173C51.1472 28.443 51.0662 28.701 50.9942 28.947C50.9282 29.187 50.8802 29.382 50.8502 29.532C50.8382 29.592 50.8262 29.664 50.8142 29.748C50.8022 29.826 50.7992 29.892 50.8052 29.946C50.8052 29.988 50.8052 30.039 50.8052 30.099C50.8112 30.165 50.8172 30.225 50.8232 30.279L50.0042 30.333C49.9142 30.021 49.8362 29.61 49.7702 29.1C49.7042 28.59 49.6712 28.032 49.6712 27.426C49.6712 27.09 49.6862 26.751 49.7162 26.409C49.7462 26.061 49.7822 25.725 49.8242 25.401C49.8662 25.077 49.9082 24.78 49.9502 24.51C49.9982 24.24 50.0342 24.015 50.0582 23.835C50.0762 23.721 50.0912 23.598 50.1032 23.466C50.1212 23.334 50.1332 23.208 50.1392 23.088L51.1382 23.178ZM59.3912 25.194C59.5532 25.164 59.7242 25.125 59.9042 25.077C60.0902 25.029 60.2672 24.981 60.4352 24.933C60.6152 24.879 60.8522 24.804 61.1462 24.708C61.4462 24.606 61.7732 24.507 62.1272 24.411C62.4872 24.309 62.8532 24.225 63.2252 24.159C63.5972 24.093 63.9482 24.06 64.2782 24.06C64.7942 24.06 65.2592 24.156 65.6732 24.348C66.0932 24.54 66.4262 24.819 66.6722 25.185C66.9242 25.551 67.0502 25.998 67.0502 26.526C67.0502 26.952 66.9722 27.336 66.8162 27.678C66.6602 28.02 66.4352 28.326 66.1412 28.596C65.8472 28.866 65.4932 29.097 65.0792 29.289C64.6712 29.475 64.2092 29.625 63.6932 29.739C63.1832 29.847 62.6342 29.916 62.0462 29.946L61.6412 29.01C62.2412 28.992 62.8052 28.932 63.3332 28.83C63.8612 28.728 64.3292 28.578 64.7372 28.38C65.1452 28.182 65.4662 27.93 65.7002 27.624C65.9342 27.312 66.0512 26.943 66.0512 26.517C66.0512 26.211 65.9822 25.938 65.8442 25.698C65.7062 25.458 65.4992 25.266 65.2232 25.122C64.9532 24.978 64.6262 24.906 64.2422 24.906C63.9602 24.906 63.6512 24.942 63.3152 25.014C62.9852 25.08 62.6462 25.164 62.2982 25.266C61.9562 25.368 61.6232 25.479 61.2992 25.599C60.9812 25.719 60.6902 25.833 60.4262 25.941C60.1682 26.043 59.9582 26.13 59.7962 26.202L59.3912 25.194ZM71.1272 23.655C71.1092 23.739 71.0942 23.841 71.0822 23.961C71.0702 24.081 71.0582 24.201 71.0462 24.321C71.0402 24.441 71.0372 24.543 71.0372 24.627C71.0372 24.813 71.0372 25.02 71.0372 25.248C71.0432 25.476 71.0492 25.71 71.0552 25.95C71.0612 26.184 71.0762 26.418 71.1002 26.652C71.1482 27.126 71.2202 27.54 71.3162 27.894C71.4122 28.248 71.5352 28.524 71.6852 28.722C71.8352 28.92 72.0092 29.019 72.2072 29.019C72.3212 29.019 72.4292 28.965 72.5312 28.857C72.6332 28.749 72.7292 28.605 72.8192 28.425C72.9092 28.245 72.9902 28.05 73.0622 27.84C73.1402 27.624 73.2062 27.417 73.2602 27.219L73.9712 28.056C73.7792 28.566 73.5872 28.974 73.3952 29.28C73.2092 29.58 73.0172 29.796 72.8192 29.928C72.6212 30.06 72.4112 30.126 72.1892 30.126C71.8892 30.126 71.6012 30.024 71.3252 29.82C71.0552 29.61 70.8212 29.268 70.6232 28.794C70.4252 28.32 70.2842 27.687 70.2002 26.895C70.1702 26.631 70.1462 26.346 70.1282 26.04C70.1162 25.734 70.1072 25.443 70.1012 25.167C70.1012 24.891 70.1012 24.663 70.1012 24.483C70.1012 24.369 70.0952 24.231 70.0832 24.069C70.0772 23.901 70.0592 23.757 70.0292 23.637L71.1272 23.655ZM75.7352 23.88C75.8972 24.09 76.0532 24.336 76.2032 24.618C76.3592 24.894 76.5002 25.194 76.6262 25.518C76.7522 25.842 76.8632 26.172 76.9592 26.508C77.0612 26.844 77.1452 27.177 77.2112 27.507C77.2772 27.837 77.3222 28.149 77.3462 28.443L76.4192 28.803C76.3832 28.413 76.3232 28.005 76.2392 27.579C76.1552 27.153 76.0472 26.733 75.9152 26.319C75.7832 25.899 75.6272 25.506 75.4472 25.14C75.2732 24.768 75.0722 24.447 74.8442 24.177L75.7352 23.88ZM79.5848 23.925C79.7588 23.919 79.9208 23.913 80.0708 23.907C80.2208 23.895 80.3378 23.886 80.4218 23.88C80.5838 23.868 80.7998 23.85 81.0698 23.826C81.3458 23.796 81.6578 23.766 82.0058 23.736C82.3538 23.7 82.7258 23.667 83.1218 23.637C83.5178 23.601 83.9228 23.565 84.3368 23.529C84.6608 23.499 84.9728 23.475 85.2728 23.457C85.5728 23.433 85.8548 23.415 86.1188 23.403C86.3828 23.385 86.6168 23.373 86.8208 23.367V24.276C86.6588 24.276 86.4698 24.279 86.2538 24.285C86.0438 24.291 85.8338 24.303 85.6238 24.321C85.4138 24.339 85.2308 24.369 85.0748 24.411C84.7748 24.501 84.5018 24.642 84.2558 24.834C84.0098 25.026 83.7998 25.248 83.6258 25.5C83.4518 25.752 83.3168 26.019 83.2208 26.301C83.1248 26.577 83.0768 26.85 83.0768 27.12C83.0768 27.444 83.1338 27.729 83.2478 27.975C83.3618 28.221 83.5178 28.431 83.7158 28.605C83.9138 28.773 84.1388 28.914 84.3908 29.028C84.6488 29.136 84.9218 29.217 85.2098 29.271C85.5038 29.325 85.8008 29.358 86.1008 29.37L85.7678 30.324C85.4138 30.312 85.0628 30.261 84.7148 30.171C84.3728 30.081 84.0458 29.958 83.7338 29.802C83.4278 29.64 83.1548 29.442 82.9148 29.208C82.6808 28.968 82.4948 28.692 82.3568 28.38C82.2248 28.068 82.1588 27.711 82.1588 27.309C82.1588 26.859 82.2338 26.442 82.3838 26.058C82.5398 25.674 82.7348 25.341 82.9688 25.059C83.2088 24.771 83.4488 24.546 83.6888 24.384C83.5088 24.408 83.2868 24.435 83.0228 24.465C82.7588 24.489 82.4738 24.519 82.1678 24.555C81.8678 24.585 81.5648 24.621 81.2588 24.663C80.9528 24.699 80.6618 24.738 80.3858 24.78C80.1158 24.822 79.8818 24.867 79.6838 24.915L79.5848 23.925Z" fill="white"/>
<path d="M15.7327 6.52V12.104C15.7327 13.8 15.402 15.0747 14.7407 15.928C14.0794 16.7813 13.0874 17.208 11.7647 17.208C10.4847 17.208 9.51935 16.8027 8.86869 15.992C8.22869 15.1707 7.90869 13.8747 7.90869 12.104V7.848C7.90869 7.528 7.89269 7.21867 7.86069 6.92C7.83935 6.61067 7.78069 6.32267 7.68469 6.056C7.75935 6.00267 7.86602 5.93867 8.00469 5.864C8.15402 5.77867 8.33002 5.736 8.53269 5.736C8.76735 5.736 8.96469 5.80533 9.12469 5.944C9.28469 6.08267 9.36469 6.27467 9.36469 6.52V12.168C9.36469 13.7147 9.55669 14.84 9.94069 15.544C10.3354 16.2373 10.9434 16.584 11.7647 16.584C12.6287 16.584 13.2634 16.2107 13.6687 15.464C14.0847 14.7173 14.2927 13.6187 14.2927 12.168V7.848C14.2927 7.528 14.2767 7.21867 14.2447 6.92C14.2234 6.61067 14.1647 6.32267 14.0687 6.056C14.1434 6.00267 14.25 5.93867 14.3887 5.864C14.5274 5.77867 14.7034 5.736 14.9167 5.736C15.1514 5.736 15.3434 5.80533 15.4927 5.944C15.6527 6.08267 15.7327 6.27467 15.7327 6.52ZM21.3527 17.192C21.1074 17.192 20.9047 17.1173 20.7447 16.968C20.5847 16.808 20.5047 16.5947 20.5047 16.328V10.584C20.494 10.2853 20.4567 10.0773 20.3927 9.96C20.3287 9.832 20.2167 9.768 20.0567 9.768C20.0034 9.768 19.934 9.784 19.8487 9.816C19.7634 9.83733 19.694 9.896 19.6407 9.992C19.5127 9.82133 19.4487 9.64533 19.4487 9.464C19.4487 9.21867 19.534 9.02133 19.7047 8.872C19.886 8.72267 20.142 8.648 20.4727 8.648C20.8994 8.648 21.2247 8.792 21.4487 9.08C21.6834 9.368 21.8007 9.8 21.8007 10.376V11.368L21.5447 11.704C21.6194 11.064 21.7847 10.5147 22.0407 10.056C22.2967 9.59733 22.6327 9.24533 23.0487 9C23.4754 8.75467 23.966 8.632 24.5207 8.632C25.406 8.632 26.0567 8.91467 26.4727 9.48C26.8887 10.0347 27.0967 10.856 27.0967 11.944V15.08C27.1074 15.3467 27.1287 15.6453 27.1607 15.976C27.1927 16.3067 27.2514 16.6 27.3367 16.856C27.2407 16.952 27.1234 17.032 26.9847 17.096C26.8567 17.16 26.6967 17.192 26.5047 17.192C26.2594 17.192 26.0567 17.1227 25.8967 16.984C25.7367 16.8347 25.6567 16.6373 25.6567 16.392V12.136C25.646 11.2613 25.5287 10.5947 25.3047 10.136C25.0914 9.67733 24.686 9.448 24.0887 9.448C23.8327 9.448 23.5767 9.51733 23.3207 9.656C23.0647 9.784 22.83 9.99733 22.6167 10.296C22.414 10.584 22.2487 10.968 22.1207 11.448C22.0034 11.9173 21.9447 12.488 21.9447 13.16C21.9447 13.7787 21.9447 14.2907 21.9447 14.696C21.9447 15.1013 21.95 15.4373 21.9607 15.704C21.982 15.96 22.0087 16.1787 22.0407 16.36C22.0727 16.5307 22.1207 16.7013 22.1847 16.872C22.1207 16.9253 22.014 16.9893 21.8647 17.064C21.726 17.1493 21.5554 17.192 21.3527 17.192ZM32.7471 17.192C32.5017 17.192 32.2991 17.1227 32.1391 16.984C31.9897 16.8347 31.9151 16.6373 31.9151 16.392V8.52C31.9151 8.09333 31.9631 7.68267 32.0591 7.288C32.1551 6.88267 32.3257 6.52 32.5711 6.2C32.8271 5.86933 33.1791 5.608 33.6271 5.416C34.0751 5.224 34.6564 5.128 35.3711 5.128C35.9684 5.128 36.4911 5.18667 36.9391 5.304C37.3977 5.41067 37.7497 5.576 37.9951 5.8C38.2511 6.024 38.3791 6.296 38.3791 6.616C38.3791 6.91467 38.2671 7.16 38.0431 7.352C37.8297 7.544 37.5897 7.64 37.3231 7.64C37.0457 7.64 36.8431 7.57067 36.7151 7.432C36.8537 7.28267 36.9391 7.13867 36.9711 7C37.0031 6.85067 37.0191 6.72267 37.0191 6.616C37.0191 6.392 36.9337 6.216 36.7631 6.088C36.6031 5.94933 36.4004 5.85333 36.1551 5.8C35.9097 5.736 35.6484 5.704 35.3711 5.704C34.9124 5.704 34.5444 5.784 34.2671 5.944C33.9897 6.09333 33.7871 6.30667 33.6591 6.584C33.5311 6.86133 33.4457 7.18667 33.4031 7.56C33.3711 7.93333 33.3551 8.33867 33.3551 8.776V15.08C33.3551 15.3467 33.3657 15.6453 33.3871 15.976C33.4191 16.3067 33.4831 16.6 33.5791 16.856C33.4831 16.9413 33.3657 17.016 33.2271 17.08C33.0991 17.1547 32.9391 17.192 32.7471 17.192ZM30.7311 9.64L30.7471 9.24C30.7577 9.112 30.8004 9.016 30.8751 8.952C30.9497 8.888 31.0404 8.856 31.1471 8.856H34.2031C34.2351 8.856 34.3044 8.856 34.4111 8.856C34.5284 8.84533 34.6511 8.84 34.7791 8.84C34.9177 8.82933 35.0404 8.824 35.1471 8.824C35.2644 8.81333 35.3444 8.808 35.3871 8.808L35.3711 9.192C35.3604 9.32 35.3177 9.42133 35.2431 9.496C35.1684 9.56 35.0777 9.592 34.9711 9.592H31.6911C31.5844 9.592 31.4244 9.59733 31.2111 9.608C30.9977 9.608 30.8377 9.61867 30.7311 9.64ZM38.4111 15.08C38.4111 15.4 38.4217 15.7147 38.4431 16.024C38.4751 16.3227 38.5391 16.6 38.6351 16.856C38.5604 16.92 38.4537 16.9893 38.3151 17.064C38.1764 17.1493 38.0004 17.192 37.7871 17.192C37.5631 17.192 37.3711 17.1227 37.2111 16.984C37.0617 16.8347 36.9871 16.6373 36.9871 16.392L36.9711 10.744C36.9711 10.424 36.9551 10.1093 36.9231 9.8C36.9017 9.49067 36.8431 9.208 36.7471 8.952C36.8111 8.888 36.9124 8.81867 37.0511 8.744C37.1897 8.66933 37.3604 8.632 37.5631 8.632C37.8084 8.632 38.0057 8.70133 38.1551 8.84C38.3044 8.968 38.3791 9.16 38.3791 9.416L38.4111 15.08ZM44.0596 17.192C43.8142 17.192 43.6116 17.1173 43.4516 16.968C43.2916 16.808 43.2116 16.5947 43.2116 16.328V10.584C43.2009 10.2853 43.1636 10.0773 43.0996 9.96C43.0356 9.832 42.9236 9.768 42.7636 9.768C42.7102 9.768 42.6409 9.784 42.5556 9.816C42.4702 9.83733 42.4009 9.896 42.3476 9.992C42.2196 9.82133 42.1556 9.64533 42.1556 9.464C42.1556 9.21867 42.2409 9.02133 42.4116 8.872C42.5929 8.72267 42.8489 8.648 43.1796 8.648C43.6062 8.648 43.9316 8.792 44.1556 9.08C44.3902 9.368 44.5076 9.8 44.5076 10.376V11.368L44.2516 11.704C44.3262 11.064 44.4916 10.5147 44.7476 10.056C45.0036 9.59733 45.3396 9.24533 45.7556 9C46.1822 8.75467 46.6729 8.632 47.2276 8.632C48.1129 8.632 48.7636 8.91467 49.1796 9.48C49.5956 10.0347 49.8036 10.856 49.8036 11.944V15.08C49.8142 15.3467 49.8356 15.6453 49.8676 15.976C49.8996 16.3067 49.9582 16.6 50.0436 16.856C49.9476 16.952 49.8302 17.032 49.6916 17.096C49.5636 17.16 49.4036 17.192 49.2116 17.192C48.9662 17.192 48.7636 17.1227 48.6036 16.984C48.4436 16.8347 48.3636 16.6373 48.3636 16.392V12.136C48.3529 11.2613 48.2356 10.5947 48.0116 10.136C47.7982 9.67733 47.3929 9.448 46.7956 9.448C46.5396 9.448 46.2836 9.51733 46.0276 9.656C45.7716 9.784 45.5369 9.99733 45.3236 10.296C45.1209 10.584 44.9556 10.968 44.8276 11.448C44.7102 11.9173 44.6516 12.488 44.6516 13.16C44.6516 13.7787 44.6516 14.2907 44.6516 14.696C44.6516 15.1013 44.6569 15.4373 44.6676 15.704C44.6889 15.96 44.7156 16.1787 44.7476 16.36C44.7796 16.5307 44.8276 16.7013 44.8916 16.872C44.8276 16.9253 44.7209 16.9893 44.5716 17.064C44.4329 17.1493 44.2622 17.192 44.0596 17.192ZM55.1499 7.432C54.8939 7.432 54.6699 7.34133 54.4779 7.16C54.2966 6.97867 54.2059 6.76 54.2059 6.504C54.2059 6.23733 54.2966 6.01333 54.4779 5.832C54.6699 5.65067 54.8939 5.56 55.1499 5.56C55.4059 5.56 55.6246 5.65067 55.8059 5.832C55.9873 6.01333 56.0779 6.23733 56.0779 6.504C56.0779 6.76 55.9873 6.97867 55.8059 7.16C55.6246 7.34133 55.4059 7.432 55.1499 7.432ZM55.9339 15.08C55.9339 15.3893 55.9499 15.6987 55.9819 16.008C56.0139 16.3173 56.0726 16.6 56.1579 16.856C56.0939 16.92 55.9873 16.9893 55.8379 17.064C55.6993 17.1493 55.5286 17.192 55.3259 17.192C55.0913 17.192 54.8939 17.1227 54.7339 16.984C54.5846 16.8347 54.5099 16.6373 54.5099 16.392L54.4939 10.744C54.4939 10.424 54.4779 10.1093 54.4459 9.8C54.4246 9.49067 54.3659 9.208 54.2699 8.952C54.3446 8.888 54.4513 8.81867 54.5899 8.744C54.7286 8.66933 54.8993 8.632 55.1019 8.632C55.3366 8.632 55.5286 8.70133 55.6779 8.84C55.8379 8.968 55.9179 9.16 55.9179 9.416L55.9339 15.08ZM62.9531 17.208C62.2491 17.208 61.6731 17.1227 61.2251 16.952C60.7877 16.7813 60.4624 16.552 60.2491 16.264C60.0464 15.9653 59.9451 15.64 59.9451 15.288C59.9451 15.1067 59.9824 14.9413 60.0571 14.792C60.1317 14.632 60.2491 14.5093 60.4091 14.424C60.5797 14.328 60.8144 14.3067 61.1131 14.36C61.0811 14.4773 61.0597 14.5947 61.0491 14.712C61.0491 14.8187 61.0597 14.936 61.0811 15.064C61.1131 15.512 61.2997 15.8747 61.6411 16.152C61.9931 16.4293 62.4784 16.568 63.0971 16.568C63.6411 16.568 64.0891 16.472 64.4411 16.28C64.8037 16.0773 64.9851 15.7733 64.9851 15.368C64.9851 15.0373 64.8784 14.7707 64.6651 14.568C64.4517 14.3547 64.1797 14.1733 63.8491 14.024C63.5184 13.864 63.1717 13.6987 62.8091 13.528C62.3931 13.3253 61.9877 13.1173 61.5931 12.904C61.2091 12.68 60.8891 12.3973 60.6331 12.056C60.3877 11.7147 60.2651 11.2773 60.2651 10.744C60.2651 10.232 60.3984 9.82133 60.6651 9.512C60.9424 9.20267 61.3051 8.97867 61.7531 8.84C62.2011 8.69067 62.6811 8.616 63.1931 8.616C64.0677 8.616 64.7557 8.75467 65.2571 9.032C65.7691 9.30933 66.0251 9.704 66.0251 10.216C66.0251 10.408 65.9717 10.5787 65.8651 10.728C65.7691 10.8773 65.5931 10.968 65.3371 11C65.2517 11.0213 65.1717 11.032 65.0971 11.032C65.0224 11.0213 64.9424 11.0053 64.8571 10.984C64.8784 10.8667 64.8837 10.744 64.8731 10.616C64.8731 10.488 64.8517 10.3707 64.8091 10.264C64.7664 9.93333 64.5957 9.68267 64.2971 9.512C64.0091 9.33067 63.6251 9.24 63.1451 9.24C62.8784 9.24 62.6224 9.27733 62.3771 9.352C62.1424 9.416 61.9504 9.528 61.8011 9.688C61.6624 9.83733 61.5931 10.04 61.5931 10.296C61.5931 10.6373 61.6837 10.92 61.8651 11.144C62.0571 11.368 62.3077 11.5653 62.6171 11.736C62.9371 11.896 63.2731 12.0613 63.6251 12.232C63.9451 12.3813 64.2651 12.536 64.5851 12.696C64.9051 12.856 65.1984 13.0373 65.4651 13.24C65.7317 13.432 65.9451 13.6613 66.1051 13.928C66.2651 14.184 66.3451 14.4987 66.3451 14.872C66.3451 15.2347 66.2384 15.5973 66.0251 15.96C65.8224 16.3227 65.4757 16.6213 64.9851 16.856C64.4944 17.0907 63.8171 17.208 62.9531 17.208ZM71.0767 17.192C70.8314 17.192 70.6287 17.1173 70.4687 16.968C70.3087 16.808 70.2287 16.5947 70.2287 16.328V6.104C70.218 5.848 70.282 5.656 70.4207 5.528C70.5594 5.4 70.73 5.33067 70.9327 5.32C71.1567 5.29867 71.354 5.33067 71.5247 5.416C71.706 5.50133 71.834 5.576 71.9087 5.64C71.8127 5.97067 71.7487 6.35467 71.7167 6.792C71.6847 7.22933 71.6634 7.76267 71.6527 8.392L71.6367 11.368L71.3487 11.704C71.4127 11.064 71.5674 10.5147 71.8127 10.056C72.0687 9.59733 72.3994 9.24533 72.8047 9C73.2207 8.75467 73.7007 8.632 74.2447 8.632C75.1194 8.632 75.7647 8.91467 76.1807 9.48C76.5967 10.0347 76.8047 10.856 76.8047 11.944V15.08C76.8047 15.3467 76.8207 15.6453 76.8527 15.976C76.8847 16.3067 76.9434 16.6 77.0287 16.856C76.9434 16.9413 76.8314 17.016 76.6927 17.08C76.554 17.1547 76.394 17.192 76.2127 17.192C75.9674 17.192 75.7647 17.1227 75.6047 16.984C75.4554 16.8347 75.3807 16.6373 75.3807 16.392L75.3647 12.136C75.3647 11.24 75.2527 10.5627 75.0287 10.104C74.8047 9.63467 74.394 9.4 73.7967 9.4C73.5407 9.4 73.2847 9.46933 73.0287 9.608C72.7834 9.74667 72.554 9.96533 72.3407 10.264C72.138 10.5627 71.9727 10.952 71.8447 11.432C71.7167 11.9013 71.6527 12.4773 71.6527 13.16C71.6527 13.7787 71.6527 14.2907 71.6527 14.696C71.6634 15.1013 71.674 15.4373 71.6847 15.704C71.6954 15.96 71.7167 16.1787 71.7487 16.36C71.7914 16.5307 71.8447 16.7013 71.9087 16.872C71.834 16.9253 71.7274 16.9893 71.5887 17.064C71.45 17.1493 71.2794 17.192 71.0767 17.192ZM84.5559 17.208C83.3933 17.208 82.4653 16.8453 81.7719 16.12C81.0893 15.3947 80.7479 14.3387 80.7479 12.952C80.7479 11.6187 81.0786 10.568 81.7399 9.8C82.4013 9.02133 83.3613 8.632 84.6199 8.632C85.1959 8.632 85.7079 8.72267 86.1559 8.904C86.6039 9.07467 86.9559 9.336 87.2119 9.688C87.4786 10.0293 87.6119 10.456 87.6119 10.968C87.6119 11.768 87.2866 12.376 86.6359 12.792C85.9959 13.1973 85.1213 13.4 84.0119 13.4C83.5746 13.4 83.1426 13.384 82.7159 13.352C82.2999 13.3093 81.8679 13.24 81.4199 13.144L81.4519 12.6C81.7186 12.6427 82.0173 12.68 82.3479 12.712C82.6786 12.744 83.0199 12.7653 83.3719 12.776C83.7239 12.776 84.0599 12.7493 84.3799 12.696C84.6999 12.632 84.9879 12.5307 85.2439 12.392C85.4999 12.2427 85.6973 12.0347 85.8359 11.768C85.9853 11.5013 86.0599 11.1653 86.0599 10.76C86.0599 10.3547 85.9853 10.0453 85.8359 9.832C85.6866 9.61867 85.4946 9.46933 85.2599 9.384C85.0359 9.288 84.8013 9.24 84.5559 9.24C83.8733 9.24 83.3239 9.544 82.9079 10.152C82.5026 10.7493 82.2999 11.624 82.2999 12.776C82.2999 13.64 82.4119 14.328 82.6359 14.84C82.8599 15.3413 83.1693 15.704 83.5639 15.928C83.9693 16.1413 84.4226 16.248 84.9239 16.248C85.4999 16.248 86.0013 16.1307 86.4279 15.896C86.8546 15.6507 87.1479 15.3147 87.3079 14.888C87.4146 14.9307 87.4893 15.0107 87.5319 15.128C87.5746 15.2453 87.5426 15.4373 87.4359 15.704C87.2333 16.1947 86.8759 16.568 86.3639 16.824C85.8519 17.08 85.2493 17.208 84.5559 17.208ZM93.8147 17.208C93.26 17.208 92.8014 17.096 92.4387 16.872C92.0867 16.6373 91.8094 16.328 91.6067 15.944C91.404 15.56 91.26 15.1387 91.1747 14.68C91.0894 14.2107 91.0467 13.7467 91.0467 13.288C91.0467 11.8267 91.3347 10.6853 91.9107 9.864C92.4974 9.04267 93.3347 8.632 94.4227 8.632C94.9667 8.632 95.42 8.73867 95.7827 8.952C96.156 9.16533 96.4174 9.464 96.5667 9.848V7.992C96.5667 7.58667 96.5507 7.18133 96.5187 6.776C96.4867 6.36 96.4227 5.98133 96.3267 5.64C96.3907 5.576 96.492 5.50667 96.6307 5.432C96.78 5.34667 96.956 5.304 97.1587 5.304C97.404 5.304 97.6067 5.37333 97.7667 5.512C97.9267 5.65067 98.0067 5.848 98.0067 6.104L97.9907 15.192C97.9907 15.48 98.0334 15.6933 98.1187 15.832C98.2147 15.96 98.3427 16.024 98.5027 16.024C98.556 16.024 98.6254 16.0133 98.7107 15.992C98.8067 15.96 98.876 15.896 98.9187 15.8C98.9934 15.8853 99.0414 15.976 99.0627 16.072C99.0947 16.168 99.1107 16.2533 99.1107 16.328C99.1107 16.5733 99.0094 16.7707 98.8067 16.92C98.604 17.0587 98.348 17.128 98.0387 17.128C97.5587 17.128 97.2014 16.936 96.9667 16.552C96.7427 16.1573 96.6307 15.6133 96.6307 14.92V13.624L96.9827 13.512C96.9187 14.0667 96.8014 14.568 96.6307 15.016C96.4707 15.464 96.2574 15.8533 95.9907 16.184C95.7347 16.5147 95.4254 16.7707 95.0627 16.952C94.7 17.1227 94.284 17.208 93.8147 17.208ZM94.2147 16.344C94.588 16.344 94.9187 16.232 95.2067 16.008C95.5054 15.7733 95.7507 15.4587 95.9427 15.064C96.1454 14.6693 96.2947 14.216 96.3907 13.704C96.4974 13.192 96.5507 12.6533 96.5507 12.088C96.5507 11.768 96.524 11.4533 96.4707 11.144C96.4174 10.824 96.3267 10.536 96.1987 10.28C96.0707 10.024 95.884 9.82133 95.6387 9.672C95.3934 9.52267 95.0787 9.448 94.6947 9.448C94.012 9.448 93.4894 9.77333 93.1267 10.424C92.7747 11.064 92.5987 12.0027 92.5987 13.24C92.5987 13.6453 92.6147 14.0347 92.6467 14.408C92.6894 14.7813 92.7694 15.1173 92.8867 15.416C93.004 15.704 93.1694 15.9333 93.3827 16.104C93.596 16.264 93.8734 16.344 94.2147 16.344Z" fill="white"/>
<circle cx="4.5" cy="4.5" r="4.25" transform="matrix(-1 0 0 1 9 33)" stroke="white" stroke-width="0.5"/>
<path d="M8.5 37.5H80L105 53" stroke="white" stroke-width="0.5"/>
</svg>
